<?xml version="1.0" encoding="UTF-8" standalone="no"?><!DOCTYPE svg PUBLIC "-//W3C//DTD SVG 1.1//EN" "http://www.w3.org/Graphics/SVG/1.1/DTD/svg11.dtd"><!-- Generated by graphviz version 2.40.1 (20161225.0304)
 --><!-- Title: G Pages: 1 --><svg xmlns="http://www.w3.org/2000/svg" xmlns:xlink="http://www.w3.org/1999/xlink" width="3763pt" height="403pt" viewBox="0.00 0.00 3762.76 403.00">
<g id="graph0" class="graph" transform="scale(1 1) rotate(0) translate(4 399)">
<title>G</title>
<polygon fill="#ffffff" stroke="transparent" points="-4,4 -4,-399 3758.762,-399 3758.762,4 -4,4"/>
<!-- YAGNI -->
<g id="node1" class="node">
<title>YAGNI</title>
<polygon fill="none" stroke="#000000" points="631.9278,-358.5 631.9278,-394.5 693.0148,-394.5 693.0148,-358.5 631.9278,-358.5"/>
<text text-anchor="middle" x="662.4713" y="-372.3" font-family="Times,serif" font-size="14.00" fill="#000000">YAGNI</text>
</g>
<!-- ETR -->
<g id="node2" class="node">
<title>ETR</title>
<polygon fill="none" stroke="#000000" points="711.4713,-358.5 711.4713,-394.5 765.4713,-394.5 765.4713,-358.5 711.4713,-358.5"/>
<text text-anchor="middle" x="738.1922" y="-372.3" font-family="Times,serif" font-size="14.00" fill="#000000">ETR</text>
</g>
<!-- 语义化 -->
<g id="node3" class="node">
<title>语义化</title>
<polygon fill="none" stroke="#000000" points="425.1161,-285.5 425.1161,-321.5 485.8265,-321.5 485.8265,-285.5 425.1161,-285.5"/>
<text text-anchor="middle" x="455.4713" y="-299.3" font-family="Times,serif" font-size="14.00" fill="#000000">语义化</text>
</g>
<!-- ETR&#45;&gt;语义化 -->
<g id="edge1" class="edge">
<title>ETR-&gt;语义化</title>
<path fill="none" stroke="#000000" d="M711.2804,-361.6086C708.3523,-360.2829 705.38,-359.0484 702.4713,-358 631.8908,-332.561 545.5067,-316.803 495.8485,-309.1345"/>
<polygon fill="#000000" stroke="#000000" points="496.239,-305.6539 485.8283,-307.6204 495.1931,-312.5753 496.239,-305.6539"/>
</g>
<!-- 高内聚 -->
<g id="node4" class="node">
<title>高内聚</title>
<polygon fill="none" stroke="#000000" points="1063.1417,-285.5 1063.1417,-321.5 1125.8009,-321.5 1125.8009,-285.5 1063.1417,-285.5"/>
<text text-anchor="middle" x="1094.4713" y="-299.3" font-family="Times,serif" font-size="14.00" fill="#000000">高内聚</text>
</g>
<!-- ETR&#45;&gt;高内聚 -->
<g id="edge2" class="edge">
<title>ETR-&gt;高内聚</title>
<path fill="none" stroke="#000000" d="M765.5214,-370.9532C827.3553,-358.2738 979.3719,-327.1018 1053.0732,-311.9889"/>
<polygon fill="#000000" stroke="#000000" points="1053.8424,-315.4041 1062.9354,-309.9666 1052.4362,-308.5468 1053.8424,-315.4041"/>
</g>
<!-- 语义化 Bad codes -->
<g id="node34" class="node">
<title>语义化 Bad codes</title>
<polygon fill="none" stroke="#000000" points="236.513,-87.3 236.513,-161.7 352.4296,-161.7 352.4296,-87.3 236.513,-87.3"/>
<text text-anchor="start" x="265.5088" y="-146.1" font-family="Times,serif" font-weight="bold" font-size="14.00" fill="#000000">Bad codes</text>
<polyline fill="none" stroke="#000000" points="236.513,-136.9 352.4296,-136.9 "/>
<text text-anchor="start" x="257.7269" y="-120.3" font-family="Times,serif" font-size="14.00" fill="#000000">Data Clumps</text>
<polyline fill="none" stroke="#000000" points="236.513,-112.1 352.4296,-112.1 "/>
<text text-anchor="start" x="244.513" y="-95.5" font-family="Times,serif" font-size="14.00" fill="#000000">Mysterious Name</text>
</g>
<!-- 语义化&#45;&gt;语义化 Bad codes -->
<g id="edge36" class="edge">
<title>语义化-&gt;语义化 Bad codes</title>
<path fill="none" stroke="#000000" d="M425.0769,-291.1518C405.1099,-281.865 379.4534,-267.5618 361.4713,-249 340.0422,-226.8801 323.5242,-196.5359 312.2508,-171.3428"/>
<polygon fill="#000000" stroke="#000000" points="315.3756,-169.751 308.1877,-161.9674 308.9528,-172.5346 315.3756,-169.751"/>
</g>
<!-- 语义化 重构方法 -->
<g id="node35" class="node">
<title>语义化 重构方法</title>
<polygon fill="none" stroke="#000000" points="0,-62.5 0,-186.5 218.9426,-186.5 218.9426,-62.5 0,-62.5"/>
<text text-anchor="start" x="82.0607" y="-170.9" font-family="Times,serif" font-weight="bold" font-size="14.00" fill="#000000">重构方法</text>
<polyline fill="none" stroke="#000000" points="0,-161.7 218.9426,-161.7 "/>
<text text-anchor="start" x="44.5568" y="-145.1" font-family="Times,serif" font-size="14.00" fill="#000000">Preserve Whole Object</text>
<polyline fill="none" stroke="#000000" points="0,-136.9 218.9426,-136.9 "/>
<text text-anchor="start" x="19.8657" y="-120.3" font-family="Times,serif" font-size="14.00" fill="#000000">Replace Subclass with Delegate</text>
<polyline fill="none" stroke="#000000" points="0,-112.1 218.9426,-112.1 "/>
<text text-anchor="start" x="14.4281" y="-95.5" font-family="Times,serif" font-size="14.00" fill="#000000">Replace Superclass with Delegate</text>
<polyline fill="none" stroke="#000000" points="0,-87.3 218.9426,-87.3 "/>
<text text-anchor="start" x="8" y="-70.7" font-family="Times,serif" font-size="14.00" fill="#000000">Replace Type Code with Subclasses</text>
</g>
<!-- 语义化&#45;&gt;语义化 重构方法 -->
<g id="edge37" class="edge">
<title>语义化-&gt;语义化 重构方法</title>
<path fill="none" stroke="#000000" d="M425.0369,-301.7204C379.3148,-297.8847 291.4495,-285.9221 227.4713,-249 203.2357,-235.0135 180.8943,-214.5221 162.3217,-194.185"/>
<polygon fill="#000000" stroke="#000000" points="164.9226,-191.8429 155.6531,-186.7118 159.6996,-196.5034 164.9226,-191.8429"/>
</g>
<!-- 高内聚 Bad codes -->
<g id="node32" class="node">
<title>高内聚 Bad codes</title>
<polygon fill="none" stroke="#000000" points="1028.9341,-50.1 1028.9341,-198.9 1160.0085,-198.9 1160.0085,-50.1 1028.9341,-50.1"/>
<text text-anchor="start" x="1065.5088" y="-183.3" font-family="Times,serif" font-weight="bold" font-size="14.00" fill="#000000">Bad codes</text>
<polyline fill="none" stroke="#000000" points="1028.9341,-174.1 1160.0085,-174.1 "/>
<text text-anchor="start" x="1064.3426" y="-157.5" font-family="Times,serif" font-size="14.00" fill="#000000">Data Class</text>
<polyline fill="none" stroke="#000000" points="1028.9341,-149.3 1160.0085,-149.3 "/>
<text text-anchor="start" x="1057.7269" y="-132.7" font-family="Times,serif" font-size="14.00" fill="#000000">Data Clumps</text>
<polyline fill="none" stroke="#000000" points="1028.9341,-124.5 1160.0085,-124.5 "/>
<text text-anchor="start" x="1056.9562" y="-107.9" font-family="Times,serif" font-size="14.00" fill="#000000">Feature Envy</text>
<polyline fill="none" stroke="#000000" points="1028.9341,-99.7 1160.0085,-99.7 "/>
<text text-anchor="start" x="1036.9341" y="-83.1" font-family="Times,serif" font-size="14.00" fill="#000000">Long Parameter List</text>
<polyline fill="none" stroke="#000000" points="1028.9341,-74.9 1160.0085,-74.9 "/>
<text text-anchor="start" x="1047.2255" y="-58.3" font-family="Times,serif" font-size="14.00" fill="#000000">Shotgun Surgery</text>
</g>
<!-- 高内聚&#45;&gt;高内聚 Bad codes -->
<g id="edge34" class="edge">
<title>高内聚-&gt;高内聚 Bad codes</title>
<path fill="none" stroke="#000000" d="M1094.4713,-285.3515C1094.4713,-267.1444 1094.4713,-237.7582 1094.4713,-209.0527"/>
<polygon fill="#000000" stroke="#000000" points="1097.9714,-208.947 1094.4713,-198.947 1090.9714,-208.9471 1097.9714,-208.947"/>
</g>
<!-- 高内聚 重构方法 -->
<g id="node33" class="node">
<title>高内聚 重构方法</title>
<polygon fill="none" stroke="#000000" points="796.1259,-12.9 796.1259,-236.1 1010.8167,-236.1 1010.8167,-12.9 796.1259,-12.9"/>
<text text-anchor="start" x="876.0607" y="-220.5" font-family="Times,serif" font-weight="bold" font-size="14.00" fill="#000000">重构方法</text>
<polyline fill="none" stroke="#000000" points="796.1259,-211.3 1010.8167,-211.3 "/>
<text text-anchor="start" x="818.5025" y="-194.7" font-family="Times,serif" font-size="14.00" fill="#000000">Combine Functions Into Class</text>
<polyline fill="none" stroke="#000000" points="796.1259,-186.5 1010.8167,-186.5 "/>
<text text-anchor="start" x="804.1259" y="-169.9" font-family="Times,serif" font-size="14.00" fill="#000000">Combine Functions Into Transform</text>
<polyline fill="none" stroke="#000000" points="796.1259,-161.7 1010.8167,-161.7 "/>
<text text-anchor="start" x="814.2479" y="-145.1" font-family="Times,serif" font-size="14.00" fill="#000000">Combine Variables Into Record</text>
<polyline fill="none" stroke="#000000" points="796.1259,-136.9 1010.8167,-136.9 "/>
<text text-anchor="start" x="870.2276" y="-120.3" font-family="Times,serif" font-size="14.00" fill="#000000">Inline Class</text>
<polyline fill="none" stroke="#000000" points="796.1259,-112.1 1010.8167,-112.1 "/>
<text text-anchor="start" x="860.5039" y="-95.5" font-family="Times,serif" font-size="14.00" fill="#000000">Inline Function</text>
<polyline fill="none" stroke="#000000" points="796.1259,-87.3 1010.8167,-87.3 "/>
<text text-anchor="start" x="826.1206" y="-70.7" font-family="Times,serif" font-size="14.00" fill="#000000">Introduce Parameter Object</text>
<polyline fill="none" stroke="#000000" points="796.1259,-62.5 1010.8167,-62.5 "/>
<text text-anchor="start" x="815.3952" y="-45.9" font-family="Times,serif" font-size="14.00" fill="#000000">Move Statements into Function</text>
<polyline fill="none" stroke="#000000" points="796.1259,-37.7 1010.8167,-37.7 "/>
<text text-anchor="start" x="838.5568" y="-21.1" font-family="Times,serif" font-size="14.00" fill="#000000">Preserve Whole Object</text>
</g>
<!-- 高内聚&#45;&gt;高内聚 重构方法 -->
<g id="edge35" class="edge">
<title>高内聚-&gt;高内聚 重构方法</title>
<path fill="none" stroke="#000000" d="M1066.7789,-285.2795C1052.1883,-275.2159 1034.2955,-262.122 1019.4713,-249 1017.2937,-247.0725 1015.1121,-245.1091 1012.93,-243.1155"/>
<polygon fill="#000000" stroke="#000000" points="1015.2234,-240.4688 1005.5139,-236.2289 1010.4601,-245.5983 1015.2234,-240.4688"/>
</g>
<!-- ETU -->
<g id="node5" class="node">
<title>ETU</title>
<polygon fill="none" stroke="#000000" points="1274.4713,-358.5 1274.4713,-394.5 1328.4713,-394.5 1328.4713,-358.5 1274.4713,-358.5"/>
<text text-anchor="middle" x="1301.0772" y="-372.3" font-family="Times,serif" font-size="14.00" fill="#000000">ETU</text>
</g>
<!-- ETU&#45;&gt;语义化 -->
<g id="edge3" class="edge">
<title>ETU-&gt;语义化</title>
<path fill="none" stroke="#000000" d="M1274.3863,-374.2937C1185.6154,-367.0459 895.3946,-343.2167 655.4713,-322 600.1919,-317.1116 536.3494,-311.1514 495.9544,-307.3413"/>
<polygon fill="#000000" stroke="#000000" points="496.2443,-303.8532 485.9595,-306.3973 495.586,-310.8221 496.2443,-303.8532"/>
</g>
<!-- ETU&#45;&gt;高内聚 -->
<g id="edge4" class="edge">
<title>ETU-&gt;高内聚</title>
<path fill="none" stroke="#000000" d="M1274.4097,-366.9565C1239.0016,-354.4696 1176.6262,-332.4725 1135.4194,-317.9406"/>
<polygon fill="#000000" stroke="#000000" points="1136.5366,-314.6234 1125.9418,-314.5983 1134.2085,-321.2249 1136.5366,-314.6234"/>
</g>
<!-- SRP -->
<g id="node6" class="node">
<title>SRP</title>
<polygon fill="none" stroke="#000000" points="1481.4713,-285.5 1481.4713,-321.5 1535.4713,-321.5 1535.4713,-285.5 1481.4713,-285.5"/>
<text text-anchor="middle" x="1508.4222" y="-299.3" font-family="Times,serif" font-size="14.00" fill="#000000">SRP</text>
</g>
<!-- ETU&#45;&gt;SRP -->
<g id="edge5" class="edge">
<title>ETU-&gt;SRP</title>
<path fill="none" stroke="#000000" d="M1328.5329,-366.9565C1365.1825,-354.0318 1430.7234,-330.9183 1471.7774,-316.4404"/>
<polygon fill="#000000" stroke="#000000" points="1473.1363,-319.6725 1481.403,-313.0458 1470.8082,-313.0709 1473.1363,-319.6725"/>
</g>
<!-- 意图与实现分离 -->
<g id="node7" class="node">
<title>意图与实现分离</title>
<polygon fill="none" stroke="#000000" points="2301.4997,-285.5 2301.4997,-321.5 2403.4429,-321.5 2403.4429,-285.5 2301.4997,-285.5"/>
<text text-anchor="middle" x="2352.4713" y="-299.3" font-family="Times,serif" font-size="14.00" fill="#000000">意图与实现分离</text>
</g>
<!-- ETU&#45;&gt;意图与实现分离 -->
<g id="edge6" class="edge">
<title>ETU-&gt;意图与实现分离</title>
<path fill="none" stroke="#000000" d="M1328.5074,-374.6221C1466.3581,-365.0473 2092.1993,-321.5779 2291.3912,-307.7425"/>
<polygon fill="#000000" stroke="#000000" points="2291.656,-311.2326 2301.3895,-307.048 2291.1709,-304.2494 2291.656,-311.2326"/>
</g>
<!-- 方便使用者 -->
<g id="node8" class="node">
<title>方便使用者</title>
<polygon fill="none" stroke="#000000" points="664.6231,-285.5 664.6231,-321.5 760.3195,-321.5 760.3195,-285.5 664.6231,-285.5"/>
<text text-anchor="middle" x="712.4713" y="-299.3" font-family="Times,serif" font-size="14.00" fill="#000000">方便使用者</text>
</g>
<!-- ETU&#45;&gt;方便使用者 -->
<g id="edge7" class="edge">
<title>ETU-&gt;方便使用者</title>
<path fill="none" stroke="#000000" d="M1274.2439,-373.1255C1184.3492,-361.984 895.6607,-326.2043 770.8577,-310.7363"/>
<polygon fill="#000000" stroke="#000000" points="771.0834,-307.2376 760.7288,-309.481 770.2223,-314.1845 771.0834,-307.2376"/>
</g>
<!-- 低耦合 -->
<g id="node9" class="node">
<title>低耦合</title>
<polygon fill="none" stroke="#000000" points="1946.195,-285.5 1946.195,-321.5 2012.7476,-321.5 2012.7476,-285.5 1946.195,-285.5"/>
<text text-anchor="middle" x="1979.4713" y="-299.3" font-family="Times,serif" font-size="14.00" fill="#000000">低耦合</text>
</g>
<!-- ETU&#45;&gt;低耦合 -->
<g id="edge8" class="edge">
<title>ETU-&gt;低耦合</title>
<path fill="none" stroke="#000000" d="M1328.8894,-373.5479C1433.3482,-362.3009 1806.9814,-322.0719 1935.5996,-308.2236"/>
<polygon fill="#000000" stroke="#000000" points="1936.2868,-311.67 1945.8546,-307.1195 1935.5374,-304.7102 1936.2868,-311.67"/>
</g>
<!-- SRP Bad codes -->
<g id="node15" class="node">
<title>SRP Bad codes</title>
<polygon fill="none" stroke="#000000" points="1178.1473,-62.5 1178.1473,-186.5 1380.7953,-186.5 1380.7953,-62.5 1178.1473,-62.5"/>
<text text-anchor="start" x="1250.5088" y="-170.9" font-family="Times,serif" font-weight="bold" font-size="14.00" fill="#000000">Bad codes</text>
<polyline fill="none" stroke="#000000" points="1178.1473,-161.7 1380.7953,-161.7 "/>
<text text-anchor="start" x="1228.3496" y="-145.1" font-family="Times,serif" font-size="14.00" fill="#000000">Divergent Change</text>
<polyline fill="none" stroke="#000000" points="1178.1473,-136.9 1380.7953,-136.9 "/>
<text text-anchor="start" x="1194.3429" y="-120.3" font-family="Times,serif" font-size="14.00" fill="#000000">Large Class and Large Record</text>
<polyline fill="none" stroke="#000000" points="1178.1473,-112.1 1380.7953,-112.1 "/>
<text text-anchor="start" x="1186.1473" y="-95.5" font-family="Times,serif" font-size="14.00" fill="#000000">Long Function and Long Module</text>
<polyline fill="none" stroke="#000000" points="1178.1473,-87.3 1380.7953,-87.3 "/>
<text text-anchor="start" x="1215.5235" y="-70.7" font-family="Times,serif" font-size="14.00" fill="#000000">Speculative Generality</text>
</g>
<!-- SRP&#45;&gt;SRP Bad codes -->
<g id="edge17" class="edge">
<title>SRP-&gt;SRP Bad codes</title>
<path fill="none" stroke="#000000" d="M1481.4695,-294.642C1456.3865,-285.6104 1418.7559,-269.9568 1390.4713,-249 1369.6226,-233.5527 1349.7697,-213.666 1332.7698,-194.3403"/>
<polygon fill="#000000" stroke="#000000" points="1335.3418,-191.9635 1326.1551,-186.6855 1330.0453,-196.5404 1335.3418,-191.9635"/>
</g>
<!-- SRP 重构方法 -->
<g id="node16" class="node">
<title>SRP 重构方法</title>
<polygon fill="none" stroke="#000000" points="1399,-25.3 1399,-223.7 1617.9426,-223.7 1617.9426,-25.3 1399,-25.3"/>
<text text-anchor="start" x="1481.0607" y="-208.1" font-family="Times,serif" font-weight="bold" font-size="14.00" fill="#000000">重构方法</text>
<polyline fill="none" stroke="#000000" points="1399,-198.9 1617.9426,-198.9 "/>
<text text-anchor="start" x="1471.344" y="-182.3" font-family="Times,serif" font-size="14.00" fill="#000000">Extract Class</text>
<polyline fill="none" stroke="#000000" points="1399,-174.1 1617.9426,-174.1 "/>
<text text-anchor="start" x="1461.6203" y="-157.5" font-family="Times,serif" font-size="14.00" fill="#000000">Extract Function</text>
<polyline fill="none" stroke="#000000" points="1399,-149.3 1617.9426,-149.3 "/>
<text text-anchor="start" x="1440.8177" y="-132.7" font-family="Times,serif" font-size="14.00" fill="#000000">Remove Flag Argument</text>
<polyline fill="none" stroke="#000000" points="1399,-124.5 1617.9426,-124.5 "/>
<text text-anchor="start" x="1407" y="-107.9" font-family="Times,serif" font-size="14.00" fill="#000000">Replace Type Code with Subclasses</text>
<polyline fill="none" stroke="#000000" points="1399,-99.7 1617.9426,-99.7 "/>
<text text-anchor="start" x="1423.1476" y="-83.1" font-family="Times,serif" font-size="14.00" fill="#000000">Separate Query from Modifier</text>
<polyline fill="none" stroke="#000000" points="1399,-74.9 1617.9426,-74.9 "/>
<text text-anchor="start" x="1478.7178" y="-58.3" font-family="Times,serif" font-size="14.00" fill="#000000">Split Loop</text>
<polyline fill="none" stroke="#000000" points="1399,-50.1 1617.9426,-50.1 "/>
<text text-anchor="start" x="1477.1659" y="-33.5" font-family="Times,serif" font-size="14.00" fill="#000000">Split Phase</text>
</g>
<!-- SRP&#45;&gt;SRP 重构方法 -->
<g id="edge18" class="edge">
<title>SRP-&gt;SRP 重构方法</title>
<path fill="none" stroke="#000000" d="M1508.4713,-285.3515C1508.4713,-272.4255 1508.4713,-253.8651 1508.4713,-233.914"/>
<polygon fill="#000000" stroke="#000000" points="1511.9714,-233.7031 1508.4713,-223.7031 1504.9714,-233.7031 1511.9714,-233.7031"/>
</g>
<!-- SRP 设计模式 -->
<g id="node17" class="node">
<title>SRP 设计模式</title>
<polygon fill="none" stroke="#000000" points="1635.5614,-99.7 1635.5614,-149.3 1741.3812,-149.3 1741.3812,-99.7 1635.5614,-99.7"/>
<text text-anchor="start" x="1649.9755" y="-133.7" font-family="Times,serif" font-weight="bold" font-size="14.00" fill="#000000">设计模式</text>
<polyline fill="none" stroke="#000000" points="1635.5614,-124.5 1741.3812,-124.5 "/>
<text text-anchor="start" x="1643.5614" y="-107.9" font-family="Times,serif" font-size="14.00" fill="#000000">责任链模式</text>
</g>
<!-- SRP&#45;&gt;SRP 设计模式 -->
<g id="edge19" class="edge">
<title>SRP-&gt;SRP 设计模式</title>
<path fill="none" stroke="#000000" d="M1535.8637,-296.5744C1561.9393,-288.7768 1600.8929,-273.8381 1626.4713,-249 1652.0822,-224.1303 1668.7902,-186.4622 1678.3366,-159.0728"/>
<polygon fill="#000000" stroke="#000000" points="1681.689,-160.0835 1681.5329,-149.4898 1675.0486,-157.8687 1681.689,-160.0835"/>
</g>
<!-- 意图与实现分离 Bad codes -->
<g id="node26" class="node">
<title>意图与实现分离 Bad codes</title>
<polygon fill="none" stroke="#000000" points="2203.9341,-37.7 2203.9341,-211.3 2335.0085,-211.3 2335.0085,-37.7 2203.9341,-37.7"/>
<text text-anchor="start" x="2240.5088" y="-195.7" font-family="Times,serif" font-weight="bold" font-size="14.00" fill="#000000">Bad codes</text>
<polyline fill="none" stroke="#000000" points="2203.9341,-186.5 2335.0085,-186.5 "/>
<text text-anchor="start" x="2232.9306" y="-169.9" font-family="Times,serif" font-size="14.00" fill="#000000">MutableData</text>
<polyline fill="none" stroke="#000000" points="2203.9341,-161.7 2335.0085,-161.7 "/>
<text text-anchor="start" x="2223.7893" y="-145.1" font-family="Times,serif" font-size="14.00" fill="#000000">Message Chains</text>
<polyline fill="none" stroke="#000000" points="2203.9341,-136.9 2335.0085,-136.9 "/>
<text text-anchor="start" x="2226.1266" y="-120.3" font-family="Times,serif" font-size="14.00" fill="#000000">Insider Trading</text>
<polyline fill="none" stroke="#000000" points="2203.9341,-112.1 2335.0085,-112.1 "/>
<text text-anchor="start" x="2235.4569" y="-95.5" font-family="Times,serif" font-size="14.00" fill="#000000">Global Data</text>
<polyline fill="none" stroke="#000000" points="2203.9341,-87.3 2335.0085,-87.3 "/>
<text text-anchor="start" x="2211.9341" y="-70.7" font-family="Times,serif" font-size="14.00" fill="#000000">Long Parameter List</text>
<polyline fill="none" stroke="#000000" points="2203.9341,-62.5 2335.0085,-62.5 "/>
<text text-anchor="start" x="2223.7893" y="-45.9" font-family="Times,serif" font-size="14.00" fill="#000000">Message Chains</text>
</g>
<!-- 意图与实现分离&#45;&gt;意图与实现分离 Bad codes -->
<g id="edge28" class="edge">
<title>意图与实现分离-&gt;意图与实现分离 Bad codes</title>
<path fill="none" stroke="#000000" d="M2344.0561,-285.3515C2336.7517,-269.5987 2325.567,-245.4775 2314.0637,-220.6692"/>
<polygon fill="#000000" stroke="#000000" points="2317.1998,-219.1122 2309.8178,-211.5124 2310.8493,-222.0569 2317.1998,-219.1122"/>
</g>
<!-- 意图与实现分离 重构方法 -->
<g id="node27" class="node">
<title>意图与实现分离 重构方法</title>
<polygon fill="none" stroke="#000000" points="2353.4148,-.5 2353.4148,-248.5 2517.5278,-248.5 2517.5278,-.5 2353.4148,-.5"/>
<text text-anchor="start" x="2408.0607" y="-232.9" font-family="Times,serif" font-weight="bold" font-size="14.00" fill="#000000">重构方法</text>
<polyline fill="none" stroke="#000000" points="2353.4148,-223.7 2517.5278,-223.7 "/>
<text text-anchor="start" x="2370.7388" y="-207.1" font-family="Times,serif" font-size="14.00" fill="#000000">Encapsulate Collection</text>
<polyline fill="none" stroke="#000000" points="2353.4148,-198.9 2517.5278,-198.9 "/>
<text text-anchor="start" x="2379.6897" y="-182.3" font-family="Times,serif" font-size="14.00" fill="#000000">Encapsulate Record</text>
<polyline fill="none" stroke="#000000" points="2353.4148,-174.1 2517.5278,-174.1 "/>
<text text-anchor="start" x="2375.8068" y="-157.5" font-family="Times,serif" font-size="14.00" fill="#000000">Encapsulate Variable</text>
<polyline fill="none" stroke="#000000" points="2353.4148,-149.3 2517.5278,-149.3 "/>
<text text-anchor="start" x="2388.6203" y="-132.7" font-family="Times,serif" font-size="14.00" fill="#000000">Extract Function</text>
<polyline fill="none" stroke="#000000" points="2353.4148,-124.5 2517.5278,-124.5 "/>
<text text-anchor="start" x="2389.4134" y="-107.9" font-family="Times,serif" font-size="14.00" fill="#000000">Extract Variable</text>
<polyline fill="none" stroke="#000000" points="2353.4148,-99.7 2517.5278,-99.7 "/>
<text text-anchor="start" x="2395.2423" y="-83.1" font-family="Times,serif" font-size="14.00" fill="#000000">Hide Delegate</text>
<polyline fill="none" stroke="#000000" points="2353.4148,-74.9 2517.5278,-74.9 "/>
<text text-anchor="start" x="2361.4148" y="-58.3" font-family="Times,serif" font-size="14.00" fill="#000000">Replace Temp with Query</text>
<polyline fill="none" stroke="#000000" points="2353.4148,-50.1 2517.5278,-50.1 "/>
<text text-anchor="start" x="2362.3612" y="-33.5" font-family="Times,serif" font-size="14.00" fill="#000000">封装读取和设置方法</text>
<polyline fill="none" stroke="#000000" points="2353.4148,-25.3 2517.5278,-25.3 "/>
<text text-anchor="start" x="2378.0615" y="-8.7" font-family="Times,serif" font-size="14.00" fill="#000000">封装条件表达式</text>
</g>
<!-- 意图与实现分离&#45;&gt;意图与实现分离 重构方法 -->
<g id="edge29" class="edge">
<title>意图与实现分离-&gt;意图与实现分离 重构方法</title>
<path fill="none" stroke="#000000" d="M2360.8865,-285.3515C2364.3961,-277.7827 2368.8014,-268.2821 2373.7075,-257.7015"/>
<polygon fill="#000000" stroke="#000000" points="2376.9062,-259.1231 2377.9377,-248.5786 2370.5557,-256.1784 2376.9062,-259.1231"/>
</g>
<!-- 意图与实现分离 设计模式 -->
<g id="node28" class="node">
<title>意图与实现分离 设计模式</title>
<polygon fill="none" stroke="#000000" points="2535.9755,-87.3 2535.9755,-161.7 2628.9671,-161.7 2628.9671,-87.3 2535.9755,-87.3"/>
<text text-anchor="start" x="2543.9755" y="-146.1" font-family="Times,serif" font-weight="bold" font-size="14.00" fill="#000000">设计模式</text>
<polyline fill="none" stroke="#000000" points="2535.9755,-136.9 2628.9671,-136.9 "/>
<text text-anchor="start" x="2550.391" y="-120.3" font-family="Times,serif" font-size="14.00" fill="#000000">代理模式</text>
<polyline fill="none" stroke="#000000" points="2535.9755,-112.1 2628.9671,-112.1 "/>
<text text-anchor="start" x="2544.5614" y="-95.5" font-family="Times,serif" font-size="14.00" fill="#000000">装饰模式</text>
</g>
<!-- 意图与实现分离&#45;&gt;意图与实现分离 设计模式 -->
<g id="edge30" class="edge">
<title>意图与实现分离-&gt;意图与实现分离 设计模式</title>
<path fill="none" stroke="#000000" d="M2403.666,-298.7066C2441.5839,-292.7185 2492.3767,-279.2564 2526.4713,-249 2549.1848,-228.8434 2563.1902,-197.6754 2571.5146,-171.568"/>
<polygon fill="#000000" stroke="#000000" points="2574.9108,-172.4275 2574.4331,-161.8434 2568.2062,-170.4153 2574.9108,-172.4275"/>
</g>
<!-- 方便使用者 Bad codes -->
<g id="node22" class="node">
<title>方便使用者 Bad codes</title>
<polygon fill="none" stroke="#000000" points="646.9341,-99.7 646.9341,-149.3 778.0085,-149.3 778.0085,-99.7 646.9341,-99.7"/>
<text text-anchor="start" x="683.5088" y="-133.7" font-family="Times,serif" font-weight="bold" font-size="14.00" fill="#000000">Bad codes</text>
<polyline fill="none" stroke="#000000" points="646.9341,-124.5 778.0085,-124.5 "/>
<text text-anchor="start" x="654.9341" y="-107.9" font-family="Times,serif" font-size="14.00" fill="#000000">Long Parameter List</text>
</g>
<!-- 方便使用者&#45;&gt;方便使用者 Bad codes -->
<g id="edge24" class="edge">
<title>方便使用者-&gt;方便使用者 Bad codes</title>
<path fill="none" stroke="#000000" d="M712.4713,-285.3515C712.4713,-255.9416 712.4713,-197.3631 712.4713,-159.601"/>
<polygon fill="#000000" stroke="#000000" points="715.9714,-159.5437 712.4713,-149.5438 708.9714,-159.5438 715.9714,-159.5437"/>
</g>
<!-- 方便使用者 重构方法 -->
<g id="node23" class="node">
<title>方便使用者 重构方法</title>
<polygon fill="none" stroke="#000000" points="370.1648,-74.9 370.1648,-174.1 628.7778,-174.1 628.7778,-74.9 370.1648,-74.9"/>
<text text-anchor="start" x="472.0607" y="-158.5" font-family="Times,serif" font-weight="bold" font-size="14.00" fill="#000000">重构方法</text>
<polyline fill="none" stroke="#000000" points="370.1648,-149.3 628.7778,-149.3 "/>
<text text-anchor="start" x="400.5109" y="-132.7" font-family="Times,serif" font-size="14.00" fill="#000000">Combine Functions into Transform</text>
<polyline fill="none" stroke="#000000" points="370.1648,-124.5 628.7778,-124.5 "/>
<text text-anchor="start" x="378.1648" y="-107.9" font-family="Times,serif" font-size="14.00" fill="#000000">Replace Constructor with Factory Function</text>
<polyline fill="none" stroke="#000000" points="370.1648,-99.7 628.7778,-99.7 "/>
<text text-anchor="start" x="413.372" y="-83.1" font-family="Times,serif" font-size="14.00" fill="#000000">Replace Parameter with Query</text>
</g>
<!-- 方便使用者&#45;&gt;方便使用者 重构方法 -->
<g id="edge25" class="edge">
<title>方便使用者-&gt;方便使用者 重构方法</title>
<path fill="none" stroke="#000000" d="M686.2802,-285.4915C671.6402,-275.1733 653.2254,-261.7712 637.4713,-249 611.2344,-227.7308 583.3821,-203.0408 559.6216,-181.283"/>
<polygon fill="#000000" stroke="#000000" points="561.7888,-178.5211 552.0582,-174.3299 557.0513,-183.6744 561.7888,-178.5211"/>
</g>
<!-- 低耦合 Bad codes -->
<g id="node29" class="node">
<title>低耦合 Bad codes</title>
<polygon fill="none" stroke="#000000" points="1759.7893,-87.3 1759.7893,-161.7 1867.1533,-161.7 1867.1533,-87.3 1759.7893,-87.3"/>
<text text-anchor="start" x="1784.5088" y="-146.1" font-family="Times,serif" font-weight="bold" font-size="14.00" fill="#000000">Bad codes</text>
<polyline fill="none" stroke="#000000" points="1759.7893,-136.9 1867.1533,-136.9 "/>
<text text-anchor="start" x="1775.9562" y="-120.3" font-family="Times,serif" font-size="14.00" fill="#000000">Feature Envy</text>
<polyline fill="none" stroke="#000000" points="1759.7893,-112.1 1867.1533,-112.1 "/>
<text text-anchor="start" x="1767.7893" y="-95.5" font-family="Times,serif" font-size="14.00" fill="#000000">Message Chains</text>
</g>
<!-- 低耦合&#45;&gt;低耦合 Bad codes -->
<g id="edge31" class="edge">
<title>低耦合-&gt;低耦合 Bad codes</title>
<path fill="none" stroke="#000000" d="M1945.9822,-291.939C1924.0234,-282.994 1895.8904,-268.7762 1876.4713,-249 1855.1006,-227.2363 1839.5115,-196.7628 1829.1866,-171.4124"/>
<polygon fill="#000000" stroke="#000000" points="1832.3955,-170.0082 1825.4861,-161.9763 1825.8787,-172.5639 1832.3955,-170.0082"/>
</g>
<!-- 低耦合 重构方法 -->
<g id="node30" class="node">
<title>低耦合 重构方法</title>
<polygon fill="none" stroke="#000000" points="1885.372,-87.3 1885.372,-161.7 2073.5706,-161.7 2073.5706,-87.3 1885.372,-87.3"/>
<text text-anchor="start" x="1952.0607" y="-146.1" font-family="Times,serif" font-weight="bold" font-size="14.00" fill="#000000">重构方法</text>
<polyline fill="none" stroke="#000000" points="1885.372,-136.9 2073.5706,-136.9 "/>
<text text-anchor="start" x="1893.372" y="-120.3" font-family="Times,serif" font-size="14.00" fill="#000000">Replace Query with Parameter</text>
<polyline fill="none" stroke="#000000" points="1885.372,-112.1 2073.5706,-112.1 "/>
<text text-anchor="start" x="1915.7139" y="-95.5" font-family="Times,serif" font-size="14.00" fill="#000000">Split Parameter Object</text>
</g>
<!-- 低耦合&#45;&gt;低耦合 重构方法 -->
<g id="edge32" class="edge">
<title>低耦合-&gt;低耦合 重构方法</title>
<path fill="none" stroke="#000000" d="M1979.4713,-285.3515C1979.4713,-259.0288 1979.4713,-209.3399 1979.4713,-172.1233"/>
<polygon fill="#000000" stroke="#000000" points="1982.9714,-171.9868 1979.4713,-161.9868 1975.9714,-171.9868 1982.9714,-171.9868"/>
</g>
<!-- 低耦合 设计模式 -->
<g id="node31" class="node">
<title>低耦合 设计模式</title>
<polygon fill="none" stroke="#000000" points="2091.2041,-99.7 2091.2041,-149.3 2185.7385,-149.3 2185.7385,-99.7 2091.2041,-99.7"/>
<text text-anchor="start" x="2099.9755" y="-133.7" font-family="Times,serif" font-weight="bold" font-size="14.00" fill="#000000">设计模式</text>
<polyline fill="none" stroke="#000000" points="2091.2041,-124.5 2185.7385,-124.5 "/>
<text text-anchor="start" x="2099.2041" y="-107.9" font-family="Times,serif" font-size="14.00" fill="#000000">中介者模式</text>
</g>
<!-- 低耦合&#45;&gt;低耦合 设计模式 -->
<g id="edge33" class="edge">
<title>低耦合-&gt;低耦合 设计模式</title>
<path fill="none" stroke="#000000" d="M2012.7744,-292.416C2034.933,-283.6091 2063.3714,-269.3629 2082.4713,-249 2106.1939,-223.7087 2121.0921,-186.6605 2129.504,-159.5549"/>
<polygon fill="#000000" stroke="#000000" points="2132.9392,-160.2803 2132.4152,-149.6985 2126.2259,-158.2974 2132.9392,-160.2803"/>
</g>
<!-- ETM -->
<g id="node10" class="node">
<title>ETM</title>
<polygon fill="none" stroke="#000000" points="2059.2504,-358.5 2059.2504,-394.5 2115.6922,-394.5 2115.6922,-358.5 2059.2504,-358.5"/>
<text text-anchor="middle" x="2087.4713" y="-372.3" font-family="Times,serif" font-size="14.00" fill="#000000">ETM</text>
</g>
<!-- ETM&#45;&gt;高内聚 -->
<g id="edge9" class="edge">
<title>ETM-&gt;高内聚</title>
<path fill="none" stroke="#000000" d="M2059.0885,-374.4135C1919.2774,-364.1353 1303.838,-318.8915 1136.5614,-306.5942"/>
<polygon fill="#000000" stroke="#000000" points="1136.4308,-303.0753 1126.2011,-305.8326 1135.9175,-310.0564 1136.4308,-303.0753"/>
</g>
<!-- ETM&#45;&gt;SRP -->
<g id="edge10" class="edge">
<title>ETM-&gt;SRP</title>
<path fill="none" stroke="#000000" d="M2059.153,-372.9296C1963.6823,-360.8928 1653.5896,-321.7964 1545.802,-308.2066"/>
<polygon fill="#000000" stroke="#000000" points="1546.0818,-304.7143 1535.7225,-306.9358 1545.2061,-311.6593 1546.0818,-304.7143"/>
</g>
<!-- ETM&#45;&gt;意图与实现分离 -->
<g id="edge11" class="edge">
<title>ETM-&gt;意图与实现分离</title>
<path fill="none" stroke="#000000" d="M2115.8309,-368.6877C2157.5861,-357.1854 2236.6158,-335.4149 2291.809,-320.2108"/>
<polygon fill="#000000" stroke="#000000" points="2292.7683,-323.577 2301.4796,-317.5468 2290.9091,-316.8283 2292.7683,-323.577"/>
</g>
<!-- ETM&#45;&gt;低耦合 -->
<g id="edge12" class="edge">
<title>ETM-&gt;低耦合</title>
<path fill="none" stroke="#000000" d="M2060.7747,-358.4551C2046.8851,-349.0667 2029.725,-337.4678 2014.7549,-327.3491"/>
<polygon fill="#000000" stroke="#000000" points="2016.4801,-324.2907 2006.2351,-321.5904 2012.5601,-330.0901 2016.4801,-324.2907"/>
</g>
<!-- OCP -->
<g id="node11" class="node">
<title>OCP</title>
<polygon fill="none" stroke="#000000" points="2789.4713,-285.5 2789.4713,-321.5 2843.4713,-321.5 2843.4713,-285.5 2789.4713,-285.5"/>
<text text-anchor="middle" x="2816.0842" y="-299.3" font-family="Times,serif" font-size="14.00" fill="#000000">OCP</text>
</g>
<!-- ETM&#45;&gt;OCP -->
<g id="edge13" class="edge">
<title>ETM-&gt;OCP</title>
<path fill="none" stroke="#000000" d="M2116.049,-373.6383C2229.8619,-362.2414 2650.9007,-320.0798 2779.1521,-307.237"/>
<polygon fill="#000000" stroke="#000000" points="2779.6595,-310.7038 2789.261,-306.2248 2778.962,-303.7387 2779.6595,-310.7038"/>
</g>
<!-- DRY -->
<g id="node12" class="node">
<title>DRY</title>
<polygon fill="none" stroke="#000000" points="3017.4713,-285.5 3017.4713,-321.5 3071.4713,-321.5 3071.4713,-285.5 3017.4713,-285.5"/>
<text text-anchor="middle" x="3044.2462" y="-299.3" font-family="Times,serif" font-size="14.00" fill="#000000">DRY</text>
</g>
<!-- ETM&#45;&gt;DRY -->
<g id="edge14" class="edge">
<title>ETM-&gt;DRY</title>
<path fill="none" stroke="#000000" d="M2115.9723,-374.7269C2216.6857,-368.4064 2565.21,-346.0682 2852.4713,-322 2906.3091,-317.4892 2968.5433,-311.3165 3007.2091,-307.368"/>
<polygon fill="#000000" stroke="#000000" points="3007.8725,-310.8184 3017.4633,-306.3165 3007.1584,-303.8549 3007.8725,-310.8184"/>
</g>
<!-- OCP Bad codes -->
<g id="node18" class="node">
<title>OCP Bad codes</title>
<polygon fill="none" stroke="#000000" points="2647.2346,-99.7 2647.2346,-149.3 2757.708,-149.3 2757.708,-99.7 2647.2346,-99.7"/>
<text text-anchor="start" x="2673.5088" y="-133.7" font-family="Times,serif" font-weight="bold" font-size="14.00" fill="#000000">Bad codes</text>
<polyline fill="none" stroke="#000000" points="2647.2346,-124.5 2757.708,-124.5 "/>
<text text-anchor="start" x="2655.2346" y="-107.9" font-family="Times,serif" font-size="14.00" fill="#000000">Duplicated Code</text>
</g>
<!-- OCP&#45;&gt;OCP Bad codes -->
<g id="edge20" class="edge">
<title>OCP-&gt;OCP Bad codes</title>
<path fill="none" stroke="#000000" d="M2797.9986,-285.3112C2788.2449,-275.1532 2776.4674,-261.9614 2767.4713,-249 2747.4999,-220.2257 2729.4754,-184.543 2717.5011,-158.7648"/>
<polygon fill="#000000" stroke="#000000" points="2720.5613,-157.0409 2713.2166,-149.4051 2714.1965,-159.9545 2720.5613,-157.0409"/>
</g>
<!-- OCP 重构方法 -->
<g id="node19" class="node">
<title>OCP 重构方法</title>
<polygon fill="none" stroke="#000000" points="2776.1297,-74.9 2776.1297,-174.1 3086.8129,-174.1 3086.8129,-74.9 2776.1297,-74.9"/>
<text text-anchor="start" x="2904.0607" y="-158.5" font-family="Times,serif" font-weight="bold" font-size="14.00" fill="#000000">重构方法</text>
<polyline fill="none" stroke="#000000" points="2776.1297,-149.3 3086.8129,-149.3 "/>
<text text-anchor="start" x="2884.6203" y="-132.7" font-family="Times,serif" font-size="14.00" fill="#000000">Extract Function</text>
<polyline fill="none" stroke="#000000" points="2776.1297,-124.5 3086.8129,-124.5 "/>
<text text-anchor="start" x="2900.1659" y="-107.9" font-family="Times,serif" font-size="14.00" fill="#000000">Split Phase</text>
<polyline fill="none" stroke="#000000" points="2776.1297,-99.7 3086.8129,-99.7 "/>
<text text-anchor="start" x="2784.1297" y="-83.1" font-family="Times,serif" font-size="14.00" fill="#000000">Use decision table to replace complicated conditions</text>
</g>
<!-- OCP&#45;&gt;OCP 重构方法 -->
<g id="edge21" class="edge">
<title>OCP-&gt;OCP 重构方法</title>
<path fill="none" stroke="#000000" d="M2828.131,-285.3515C2843.3969,-261.5897 2870.8958,-218.787 2893.6905,-183.3066"/>
<polygon fill="#000000" stroke="#000000" points="2896.9135,-184.7652 2899.3741,-174.46 2891.0242,-180.9815 2896.9135,-184.7652"/>
</g>
<!-- OCP 设计模式 -->
<g id="node20" class="node">
<title>OCP 设计模式</title>
<polygon fill="none" stroke="#000000" points="3104.5614,-74.9 3104.5614,-174.1 3210.3812,-174.1 3210.3812,-74.9 3104.5614,-74.9"/>
<text text-anchor="start" x="3118.9755" y="-158.5" font-family="Times,serif" font-weight="bold" font-size="14.00" fill="#000000">设计模式</text>
<polyline fill="none" stroke="#000000" points="3104.5614,-149.3 3210.3812,-149.3 "/>
<text text-anchor="start" x="3112.5614" y="-132.7" font-family="Times,serif" font-size="14.00" fill="#000000">责任链模式</text>
<polyline fill="none" stroke="#000000" points="3104.5614,-124.5 3210.3812,-124.5 "/>
<text text-anchor="start" x="3127.4707" y="-107.9" font-family="Times,serif" font-size="14.00" fill="#000000">状态模式</text>
<polyline fill="none" stroke="#000000" points="3104.5614,-99.7 3210.3812,-99.7 "/>
<text text-anchor="start" x="3126.5607" y="-83.1" font-family="Times,serif" font-size="14.00" fill="#000000">策略模式</text>
</g>
<!-- OCP&#45;&gt;OCP 设计模式 -->
<g id="edge22" class="edge">
<title>OCP-&gt;OCP 设计模式</title>
<path fill="none" stroke="#000000" d="M2843.6435,-301.2375C2905.776,-295.5916 3055.9126,-279.1248 3095.4713,-249 3116.6609,-232.8637 3131.1008,-207.5194 3140.6737,-183.8976"/>
<polygon fill="#000000" stroke="#000000" points="3144.0561,-184.8512 3144.3582,-174.2607 3137.5177,-182.3513 3144.0561,-184.8512"/>
</g>
<!-- DRY Bad codes -->
<g id="node21" class="node">
<title>DRY Bad codes</title>
<polygon fill="none" stroke="#000000" points="3228.3145,-87.3 3228.3145,-161.7 3398.6281,-161.7 3398.6281,-87.3 3228.3145,-87.3"/>
<text text-anchor="start" x="3284.5088" y="-146.1" font-family="Times,serif" font-weight="bold" font-size="14.00" fill="#000000">Bad codes</text>
<polyline fill="none" stroke="#000000" points="3228.3145,-136.9 3398.6281,-136.9 "/>
<text text-anchor="start" x="3236.3145" y="-120.3" font-family="Times,serif" font-size="14.00" fill="#000000">Change Value to Reference</text>
<polyline fill="none" stroke="#000000" points="3228.3145,-112.1 3398.6281,-112.1 "/>
<text text-anchor="start" x="3266.2346" y="-95.5" font-family="Times,serif" font-size="14.00" fill="#000000">Duplicated Code</text>
</g>
<!-- DRY&#45;&gt;DRY Bad codes -->
<g id="edge23" class="edge">
<title>DRY-&gt;DRY Bad codes</title>
<path fill="none" stroke="#000000" d="M3071.6393,-300.2994C3108.1263,-294.898 3173.6631,-281.2212 3219.4713,-249 3248.2303,-228.7711 3271.9951,-197.0409 3288.4348,-170.677"/>
<polygon fill="#000000" stroke="#000000" points="3291.5257,-172.3302 3293.7259,-161.9663 3285.5429,-168.6961 3291.5257,-172.3302"/>
</g>
<!-- ETC -->
<g id="node13" class="node">
<title>ETC</title>
<polygon fill="none" stroke="#000000" points="2913.2504,-358.5 2913.2504,-394.5 2969.6922,-394.5 2969.6922,-358.5 2913.2504,-358.5"/>
<text text-anchor="middle" x="2941.4713" y="-372.3" font-family="Times,serif" font-size="14.00" fill="#000000">ETC</text>
</g>
<!-- ETC&#45;&gt;意图与实现分离 -->
<g id="edge15" class="edge">
<title>ETC-&gt;意图与实现分离</title>
<path fill="none" stroke="#000000" d="M2913.0626,-372.9791C2822.5405,-361.7598 2539.4663,-326.676 2413.719,-311.091"/>
<polygon fill="#000000" stroke="#000000" points="2413.8492,-307.5804 2403.4946,-309.8238 2412.9881,-314.5273 2413.8492,-307.5804"/>
</g>
<!-- 消除非必要的可变性 -->
<g id="node14" class="node">
<title>消除非必要的可变性</title>
<polygon fill="none" stroke="#000000" points="3458.2512,-285.5 3458.2512,-321.5 3602.6914,-321.5 3602.6914,-285.5 3458.2512,-285.5"/>
<text text-anchor="middle" x="3530.4713" y="-299.3" font-family="Times,serif" font-size="14.00" fill="#000000">消除非必要的可变性</text>
</g>
<!-- ETC&#45;&gt;消除非必要的可变性 -->
<g id="edge16" class="edge">
<title>ETC-&gt;消除非必要的可变性</title>
<path fill="none" stroke="#000000" d="M2969.88,-372.9791C3055.6008,-362.3549 3313.9891,-330.3306 3447.9389,-313.729"/>
<polygon fill="#000000" stroke="#000000" points="3448.6557,-317.167 3458.1492,-312.4635 3447.7947,-310.2202 3448.6557,-317.167"/>
</g>
<!-- 消除非必要的可变性 Bad codes -->
<g id="node24" class="node">
<title>消除非必要的可变性 Bad codes</title>
<polygon fill="none" stroke="#000000" points="3662.1806,-87.3 3662.1806,-161.7 3754.762,-161.7 3754.762,-87.3 3662.1806,-87.3"/>
<text text-anchor="start" x="3679.5088" y="-146.1" font-family="Times,serif" font-weight="bold" font-size="14.00" fill="#000000">Bad codes</text>
<polyline fill="none" stroke="#000000" points="3662.1806,-136.9 3754.762,-136.9 "/>
<text text-anchor="start" x="3674.4569" y="-120.3" font-family="Times,serif" font-size="14.00" fill="#000000">Global Data</text>
<polyline fill="none" stroke="#000000" points="3662.1806,-112.1 3754.762,-112.1 "/>
<text text-anchor="start" x="3670.1806" y="-95.5" font-family="Times,serif" font-size="14.00" fill="#000000">Mutable Data</text>
</g>
<!-- 消除非必要的可变性&#45;&gt;消除非必要的可变性 Bad codes -->
<g id="edge26" class="edge">
<title>消除非必要的可变性-&gt;消除非必要的可变性 Bad codes</title>
<path fill="none" stroke="#000000" d="M3594.3931,-285.4793C3615.2559,-277.0965 3637.2125,-265.2768 3653.4713,-249 3674.5532,-227.8948 3688.2176,-197.329 3696.6535,-171.7656"/>
<polygon fill="#000000" stroke="#000000" points="3700.0994,-172.4726 3699.7416,-161.8838 3693.4181,-170.3845 3700.0994,-172.4726"/>
</g>
<!-- 消除非必要的可变性 重构方法 -->
<g id="node25" class="node">
<title>消除非必要的可变性 重构方法</title>
<polygon fill="none" stroke="#000000" points="3416.3541,-50.1 3416.3541,-198.9 3644.5885,-198.9 3644.5885,-50.1 3416.3541,-50.1"/>
<text text-anchor="start" x="3503.0607" y="-183.3" font-family="Times,serif" font-weight="bold" font-size="14.00" fill="#000000">重构方法</text>
<polyline fill="none" stroke="#000000" points="3416.3541,-174.1 3644.5885,-174.1 "/>
<text text-anchor="start" x="3453.3145" y="-157.5" font-family="Times,serif" font-size="14.00" fill="#000000">Change Reference to Value</text>
<polyline fill="none" stroke="#000000" points="3416.3541,-149.3 3644.5885,-149.3 "/>
<text text-anchor="start" x="3465.7388" y="-132.7" font-family="Times,serif" font-size="14.00" fill="#000000">Encapsulate Collection</text>
<polyline fill="none" stroke="#000000" points="3416.3541,-124.5 3644.5885,-124.5 "/>
<text text-anchor="start" x="3462.0337" y="-107.9" font-family="Times,serif" font-size="14.00" fill="#000000">Remove Setting Method</text>
<polyline fill="none" stroke="#000000" points="3416.3541,-99.7 3644.5885,-99.7 "/>
<text text-anchor="start" x="3424.3541" y="-83.1" font-family="Times,serif" font-size="14.00" fill="#000000">Replace Derived Variable with Query</text>
<polyline fill="none" stroke="#000000" points="3416.3541,-74.9 3644.5885,-74.9 "/>
<text text-anchor="start" x="3456.2125" y="-58.3" font-family="Times,serif" font-size="14.00" fill="#000000">用常量代替基础类型值</text>
</g>
<!-- 消除非必要的可变性&#45;&gt;消除非必要的可变性 重构方法 -->
<g id="edge27" class="edge">
<title>消除非必要的可变性-&gt;消除非必要的可变性 重构方法</title>
<path fill="none" stroke="#000000" d="M3530.4713,-285.3515C3530.4713,-267.1444 3530.4713,-237.7582 3530.4713,-209.0527"/>
<polygon fill="#000000" stroke="#000000" points="3533.9714,-208.947 3530.4713,-198.947 3526.9714,-208.9471 3533.9714,-208.947"/>
</g>
</g>
</svg>