<?xml version="1.0" encoding="UTF-8" standalone="no"?><!DOCTYPE svg PUBLIC "-//W3C//DTD SVG 1.1//EN" "http://www.w3.org/Graphics/SVG/1.1/DTD/svg11.dtd"><!-- Generated by graphviz version 2.40.1 (20161225.0304)
 --><!-- Title: G Pages: 1 --><svg xmlns="http://www.w3.org/2000/svg" xmlns:xlink="http://www.w3.org/1999/xlink" width="3867pt" height="453pt" viewBox="0.00 0.00 3866.70 452.60">
<g id="graph0" class="graph" transform="scale(1 1) rotate(0) translate(4 448.6)">
<title>G</title>
<polygon fill="#ffffff" stroke="transparent" points="-4,4 -4,-448.6 3862.6954,-448.6 3862.6954,4 -4,4"/>
<!-- YAGNI -->
<g id="node1" class="node">
<title>YAGNI</title>
<polygon fill="none" stroke="#000000" points="596.0347,-408.1 596.0347,-444.1 657.1217,-444.1 657.1217,-408.1 596.0347,-408.1"/>
<text text-anchor="middle" x="626.5782" y="-421.9" font-family="Times,serif" font-size="14.00" fill="#000000">YAGNI</text>
</g>
<!-- ETR -->
<g id="node2" class="node">
<title>ETR</title>
<polygon fill="none" stroke="#000000" points="675.5782,-408.1 675.5782,-444.1 729.5782,-444.1 729.5782,-408.1 675.5782,-408.1"/>
<text text-anchor="middle" x="702.2991" y="-421.9" font-family="Times,serif" font-size="14.00" fill="#000000">ETR</text>
</g>
<!-- 语义化 -->
<g id="node3" class="node">
<title>语义化</title>
<polygon fill="none" stroke="#000000" points="381.223,-335.1 381.223,-371.1 441.9334,-371.1 441.9334,-335.1 381.223,-335.1"/>
<text text-anchor="middle" x="411.5782" y="-348.9" font-family="Times,serif" font-size="14.00" fill="#000000">语义化</text>
</g>
<!-- ETR&#45;&gt;语义化 -->
<g id="edge1" class="edge">
<title>ETR-&gt;语义化</title>
<path fill="none" stroke="#000000" d="M675.3944,-411.1888C672.4649,-409.8669 669.4903,-408.6388 666.5782,-407.6 593.1786,-381.4187 503.191,-365.8049 452.1117,-358.3848"/>
<polygon fill="#000000" stroke="#000000" points="452.5194,-354.9077 442.1267,-356.9672 451.5354,-361.8382 452.5194,-354.9077"/>
</g>
<!-- 高内聚 -->
<g id="node4" class="node">
<title>高内聚</title>
<polygon fill="none" stroke="#000000" points="1035.2486,-335.1 1035.2486,-371.1 1097.9078,-371.1 1097.9078,-335.1 1035.2486,-335.1"/>
<text text-anchor="middle" x="1066.5782" y="-348.9" font-family="Times,serif" font-size="14.00" fill="#000000">高内聚</text>
</g>
<!-- ETR&#45;&gt;高内聚 -->
<g id="edge2" class="edge">
<title>ETR-&gt;高内聚</title>
<path fill="none" stroke="#000000" d="M729.64,-420.6728C792.6627,-408.0336 949.577,-376.5645 1024.917,-361.4551"/>
<polygon fill="#000000" stroke="#000000" points="1025.8716,-364.8335 1034.9882,-359.4354 1024.4951,-357.9701 1025.8716,-364.8335"/>
</g>
<!-- 语义化 Bad codes -->
<g id="node35" class="node">
<title>语义化 Bad codes</title>
<polygon fill="none" stroke="#000000" points="0,-74.9 0,-223.7 129.1564,-223.7 129.1564,-74.9 0,-74.9"/>
<text text-anchor="start" x="35.6157" y="-208.1" font-family="Times,serif" font-weight="bold" font-size="14.00" fill="#000000">Bad codes</text>
<polyline fill="none" stroke="#000000" points="0,-198.9 129.1564,-198.9 "/>
<text text-anchor="start" x="27.8338" y="-182.3" font-family="Times,serif" font-size="14.00" fill="#000000">Data Clumps</text>
<polyline fill="none" stroke="#000000" points="0,-174.1 129.1564,-174.1 "/>
<text text-anchor="start" x="14.6199" y="-157.5" font-family="Times,serif" font-size="14.00" fill="#000000">Mysterious Name</text>
<polyline fill="none" stroke="#000000" points="0,-149.3 129.1564,-149.3 "/>
<text text-anchor="start" x="8" y="-132.7" font-family="Times,serif" font-size="14.00" fill="#000000">Primitive Obsession</text>
<polyline fill="none" stroke="#000000" points="0,-124.5 129.1564,-124.5 "/>
<text text-anchor="start" x="17.3422" y="-107.9" font-family="Times,serif" font-size="14.00" fill="#000000">Refused Bequest</text>
<polyline fill="none" stroke="#000000" points="0,-99.7 129.1564,-99.7 "/>
<text text-anchor="start" x="37.9369" y="-83.1" font-family="Times,serif" font-size="14.00" fill="#000000">极简代码</text>
</g>
<!-- 语义化&#45;&gt;语义化 Bad codes -->
<g id="edge37" class="edge">
<title>语义化-&gt;语义化 Bad codes</title>
<path fill="none" stroke="#000000" d="M380.7816,-350.3639C317.6606,-344.2206 176.3657,-327.5559 138.5782,-298.6 116.995,-282.0612 101.2851,-257.5408 90.0452,-233.1293"/>
<polygon fill="#000000" stroke="#000000" points="93.174,-231.5488 85.9534,-223.7955 86.763,-234.3594 93.174,-231.5488"/>
</g>
<!-- 语义化 重构方法 -->
<g id="node36" class="node">
<title>语义化 重构方法</title>
<polygon fill="none" stroke="#000000" points="147.1069,-.5 147.1069,-298.1 366.0495,-298.1 366.0495,-.5 147.1069,-.5"/>
<text text-anchor="start" x="229.1676" y="-282.5" font-family="Times,serif" font-weight="bold" font-size="14.00" fill="#000000">重构方法</text>
<polyline fill="none" stroke="#000000" points="147.1069,-273.3 366.0495,-273.3 "/>
<text text-anchor="start" x="174.1574" y="-256.7" font-family="Times,serif" font-size="14.00" fill="#000000">Change Function Declaration</text>
<polyline fill="none" stroke="#000000" points="147.1069,-248.5 366.0495,-248.5 "/>
<text text-anchor="start" x="167.3548" y="-231.9" font-family="Times,serif" font-size="14.00" fill="#000000">Combine Variables Into Record</text>
<polyline fill="none" stroke="#000000" points="147.1069,-223.7 366.0495,-223.7 "/>
<text text-anchor="start" x="179.2275" y="-207.1" font-family="Times,serif" font-size="14.00" fill="#000000">Introduce Parameter Object</text>
<polyline fill="none" stroke="#000000" points="147.1069,-198.9 366.0495,-198.9 "/>
<text text-anchor="start" x="191.6637" y="-182.3" font-family="Times,serif" font-size="14.00" fill="#000000">Preserve Whole Object</text>
<polyline fill="none" stroke="#000000" points="147.1069,-174.1 366.0495,-174.1 "/>
<text text-anchor="start" x="207.7966" y="-157.5" font-family="Times,serif" font-size="14.00" fill="#000000">Rename Variable</text>
<polyline fill="none" stroke="#000000" points="147.1069,-149.3 366.0495,-149.3 "/>
<text text-anchor="start" x="171.6276" y="-132.7" font-family="Times,serif" font-size="14.00" fill="#000000">Replace Primitive with Object</text>
<polyline fill="none" stroke="#000000" points="147.1069,-124.5 366.0495,-124.5 "/>
<text text-anchor="start" x="166.9726" y="-107.9" font-family="Times,serif" font-size="14.00" fill="#000000">Replace Subclass with Delegate</text>
<polyline fill="none" stroke="#000000" points="147.1069,-99.7 366.0495,-99.7 "/>
<text text-anchor="start" x="161.535" y="-83.1" font-family="Times,serif" font-size="14.00" fill="#000000">Replace Superclass with Delegate</text>
<polyline fill="none" stroke="#000000" points="147.1069,-74.9 366.0495,-74.9 "/>
<text text-anchor="start" x="155.1069" y="-58.3" font-family="Times,serif" font-size="14.00" fill="#000000">Replace Type Code with Subclasses</text>
<polyline fill="none" stroke="#000000" points="147.1069,-50.1 366.0495,-50.1 "/>
<text text-anchor="start" x="185.7998" y="-33.5" font-family="Times,serif" font-size="14.00" fill="#000000">严格设置默认值</text>
<polyline fill="none" stroke="#000000" points="147.1069,-25.3 366.0495,-25.3 "/>
<text text-anchor="start" x="182.3194" y="-8.7" font-family="Times,serif" font-size="14.00" fill="#000000">用常量代替基础类型值</text>
</g>
<!-- 语义化&#45;&gt;语义化 重构方法 -->
<g id="edge38" class="edge">
<title>语义化-&gt;语义化 重构方法</title>
<path fill="none" stroke="#000000" d="M397.823,-335.0141C391.1352,-326.2207 382.4153,-314.7555 372.5879,-301.834"/>
<polygon fill="#000000" stroke="#000000" points="375.1735,-299.4519 366.334,-293.6112 369.6018,-303.6895 375.1735,-299.4519"/>
</g>
<!-- 高内聚 Bad codes -->
<g id="node33" class="node">
<title>高内聚 Bad codes</title>
<polygon fill="none" stroke="#000000" points="810.041,-74.9 810.041,-223.7 941.1154,-223.7 941.1154,-74.9 810.041,-74.9"/>
<text text-anchor="start" x="846.6157" y="-208.1" font-family="Times,serif" font-weight="bold" font-size="14.00" fill="#000000">Bad codes</text>
<polyline fill="none" stroke="#000000" points="810.041,-198.9 941.1154,-198.9 "/>
<text text-anchor="start" x="845.4495" y="-182.3" font-family="Times,serif" font-size="14.00" fill="#000000">Data Class</text>
<polyline fill="none" stroke="#000000" points="810.041,-174.1 941.1154,-174.1 "/>
<text text-anchor="start" x="838.8338" y="-157.5" font-family="Times,serif" font-size="14.00" fill="#000000">Data Clumps</text>
<polyline fill="none" stroke="#000000" points="810.041,-149.3 941.1154,-149.3 "/>
<text text-anchor="start" x="838.0631" y="-132.7" font-family="Times,serif" font-size="14.00" fill="#000000">Feature Envy</text>
<polyline fill="none" stroke="#000000" points="810.041,-124.5 941.1154,-124.5 "/>
<text text-anchor="start" x="818.041" y="-107.9" font-family="Times,serif" font-size="14.00" fill="#000000">Long Parameter List</text>
<polyline fill="none" stroke="#000000" points="810.041,-99.7 941.1154,-99.7 "/>
<text text-anchor="start" x="828.3324" y="-83.1" font-family="Times,serif" font-size="14.00" fill="#000000">Shotgun Surgery</text>
</g>
<!-- 高内聚&#45;&gt;高内聚 Bad codes -->
<g id="edge35" class="edge">
<title>高内聚-&gt;高内聚 Bad codes</title>
<path fill="none" stroke="#000000" d="M1035.1705,-344.6197C1009.7275,-336.4001 974.3277,-321.7329 950.5782,-298.6 931.8675,-280.375 917.0402,-256.499 905.6794,-233.2023"/>
<polygon fill="#000000" stroke="#000000" points="908.7606,-231.5297 901.3375,-223.9701 902.4261,-234.5088 908.7606,-231.5297"/>
</g>
<!-- 高内聚 重构方法 -->
<g id="node34" class="node">
<title>高内聚 重构方法</title>
<polygon fill="none" stroke="#000000" points="959.2328,-25.3 959.2328,-273.3 1173.9236,-273.3 1173.9236,-25.3 959.2328,-25.3"/>
<text text-anchor="start" x="1039.1676" y="-257.7" font-family="Times,serif" font-weight="bold" font-size="14.00" fill="#000000">重构方法</text>
<polyline fill="none" stroke="#000000" points="959.2328,-248.5 1173.9236,-248.5 "/>
<text text-anchor="start" x="981.6094" y="-231.9" font-family="Times,serif" font-size="14.00" fill="#000000">Combine Functions Into Class</text>
<polyline fill="none" stroke="#000000" points="959.2328,-223.7 1173.9236,-223.7 "/>
<text text-anchor="start" x="967.2328" y="-207.1" font-family="Times,serif" font-size="14.00" fill="#000000">Combine Functions Into Transform</text>
<polyline fill="none" stroke="#000000" points="959.2328,-198.9 1173.9236,-198.9 "/>
<text text-anchor="start" x="977.3548" y="-182.3" font-family="Times,serif" font-size="14.00" fill="#000000">Combine Variables Into Record</text>
<polyline fill="none" stroke="#000000" points="959.2328,-174.1 1173.9236,-174.1 "/>
<text text-anchor="start" x="1033.3345" y="-157.5" font-family="Times,serif" font-size="14.00" fill="#000000">Inline Class</text>
<polyline fill="none" stroke="#000000" points="959.2328,-149.3 1173.9236,-149.3 "/>
<text text-anchor="start" x="1023.6108" y="-132.7" font-family="Times,serif" font-size="14.00" fill="#000000">Inline Function</text>
<polyline fill="none" stroke="#000000" points="959.2328,-124.5 1173.9236,-124.5 "/>
<text text-anchor="start" x="989.2275" y="-107.9" font-family="Times,serif" font-size="14.00" fill="#000000">Introduce Parameter Object</text>
<polyline fill="none" stroke="#000000" points="959.2328,-99.7 1173.9236,-99.7 "/>
<text text-anchor="start" x="978.5021" y="-83.1" font-family="Times,serif" font-size="14.00" fill="#000000">Move Statements into Function</text>
<polyline fill="none" stroke="#000000" points="959.2328,-74.9 1173.9236,-74.9 "/>
<text text-anchor="start" x="1001.6637" y="-58.3" font-family="Times,serif" font-size="14.00" fill="#000000">Preserve Whole Object</text>
<polyline fill="none" stroke="#000000" points="959.2328,-50.1 1173.9236,-50.1 "/>
<text text-anchor="start" x="981.6276" y="-33.5" font-family="Times,serif" font-size="14.00" fill="#000000">Replace Primitive with Object</text>
</g>
<!-- 高内聚&#45;&gt;高内聚 重构方法 -->
<g id="edge36" class="edge">
<title>高内聚-&gt;高内聚 重构方法</title>
<path fill="none" stroke="#000000" d="M1066.5782,-335.0141C1066.5782,-322.289 1066.5782,-303.9689 1066.5782,-283.7368"/>
<polygon fill="#000000" stroke="#000000" points="1070.0783,-283.6673 1066.5782,-273.6673 1063.0783,-283.6673 1070.0783,-283.6673"/>
</g>
<!-- ETU -->
<g id="node5" class="node">
<title>ETU</title>
<polygon fill="none" stroke="#000000" points="1267.5782,-408.1 1267.5782,-444.1 1321.5782,-444.1 1321.5782,-408.1 1267.5782,-408.1"/>
<text text-anchor="middle" x="1294.1841" y="-421.9" font-family="Times,serif" font-size="14.00" fill="#000000">ETU</text>
</g>
<!-- ETU&#45;&gt;语义化 -->
<g id="edge3" class="edge">
<title>ETU-&gt;语义化</title>
<path fill="none" stroke="#000000" d="M1267.321,-424.1029C1174.6021,-417.2754 862.8834,-394.0434 605.5782,-371.6 552.5153,-366.9716 491.3484,-361.0394 452.1125,-357.1574"/>
<polygon fill="#000000" stroke="#000000" points="452.4375,-353.6725 442.1408,-356.1682 451.7464,-360.6384 452.4375,-353.6725"/>
</g>
<!-- ETU&#45;&gt;高内聚 -->
<g id="edge4" class="edge">
<title>ETU-&gt;高内聚</title>
<path fill="none" stroke="#000000" d="M1267.5283,-417.4393C1227.966,-404.7724 1154.0067,-381.0925 1107.6909,-366.2633"/>
<polygon fill="#000000" stroke="#000000" points="1108.5576,-362.8658 1097.9666,-363.1498 1106.4231,-369.5324 1108.5576,-362.8658"/>
</g>
<!-- SRP -->
<g id="node6" class="node">
<title>SRP</title>
<polygon fill="none" stroke="#000000" points="1495.5782,-335.1 1495.5782,-371.1 1549.5782,-371.1 1549.5782,-335.1 1495.5782,-335.1"/>
<text text-anchor="middle" x="1522.5291" y="-348.9" font-family="Times,serif" font-size="14.00" fill="#000000">SRP</text>
</g>
<!-- ETU&#45;&gt;SRP -->
<g id="edge5" class="edge">
<title>ETU-&gt;SRP</title>
<path fill="none" stroke="#000000" d="M1321.6281,-417.4393C1362.5091,-404.3502 1440.1185,-379.5016 1486.0027,-364.8106"/>
<polygon fill="#000000" stroke="#000000" points="1487.107,-368.1321 1495.5635,-361.7495 1484.9724,-361.4655 1487.107,-368.1321"/>
</g>
<!-- 意图与实现分离 -->
<g id="node7" class="node">
<title>意图与实现分离</title>
<polygon fill="none" stroke="#000000" points="2315.6066,-335.1 2315.6066,-371.1 2417.5498,-371.1 2417.5498,-335.1 2315.6066,-335.1"/>
<text text-anchor="middle" x="2366.5782" y="-348.9" font-family="Times,serif" font-size="14.00" fill="#000000">意图与实现分离</text>
</g>
<!-- ETU&#45;&gt;意图与实现分离 -->
<g id="edge6" class="edge">
<title>ETU-&gt;意图与实现分离</title>
<path fill="none" stroke="#000000" d="M1321.6134,-424.259C1461.3241,-414.7451 2102.7761,-371.0641 2305.1958,-357.28"/>
<polygon fill="#000000" stroke="#000000" points="2305.612,-360.7598 2315.3511,-356.5884 2305.1363,-353.776 2305.612,-360.7598"/>
</g>
<!-- 方便使用者 -->
<g id="node8" class="node">
<title>方便使用者</title>
<polygon fill="none" stroke="#000000" points="614.73,-335.1 614.73,-371.1 710.4264,-371.1 710.4264,-335.1 614.73,-335.1"/>
<text text-anchor="middle" x="662.5782" y="-348.9" font-family="Times,serif" font-size="14.00" fill="#000000">方便使用者</text>
</g>
<!-- ETU&#45;&gt;方便使用者 -->
<g id="edge7" class="edge">
<title>ETU-&gt;方便使用者</title>
<path fill="none" stroke="#000000" d="M1267.422,-422.9633C1172.3212,-411.9785 852.9274,-375.0865 720.6775,-359.8108"/>
<polygon fill="#000000" stroke="#000000" points="721.0653,-356.3324 710.7297,-358.6618 720.262,-363.2862 721.0653,-356.3324"/>
</g>
<!-- 低耦合 -->
<g id="node9" class="node">
<title>低耦合</title>
<polygon fill="none" stroke="#000000" points="1960.3019,-335.1 1960.3019,-371.1 2026.8545,-371.1 2026.8545,-335.1 1960.3019,-335.1"/>
<text text-anchor="middle" x="1993.5782" y="-348.9" font-family="Times,serif" font-size="14.00" fill="#000000">低耦合</text>
</g>
<!-- ETU&#45;&gt;低耦合 -->
<g id="edge8" class="edge">
<title>ETU-&gt;低耦合</title>
<path fill="none" stroke="#000000" d="M1321.9798,-423.2383C1428.884,-412.0738 1818.4805,-371.3863 1949.9273,-357.6587"/>
<polygon fill="#000000" stroke="#000000" points="1950.4455,-361.1237 1960.0278,-356.6038 1949.7183,-354.1616 1950.4455,-361.1237"/>
</g>
<!-- SRP Bad codes -->
<g id="node15" class="node">
<title>SRP Bad codes</title>
<polygon fill="none" stroke="#000000" points="1192.2542,-87.3 1192.2542,-211.3 1394.9022,-211.3 1394.9022,-87.3 1192.2542,-87.3"/>
<text text-anchor="start" x="1264.6157" y="-195.7" font-family="Times,serif" font-weight="bold" font-size="14.00" fill="#000000">Bad codes</text>
<polyline fill="none" stroke="#000000" points="1192.2542,-186.5 1394.9022,-186.5 "/>
<text text-anchor="start" x="1242.4565" y="-169.9" font-family="Times,serif" font-size="14.00" fill="#000000">Divergent Change</text>
<polyline fill="none" stroke="#000000" points="1192.2542,-161.7 1394.9022,-161.7 "/>
<text text-anchor="start" x="1208.4498" y="-145.1" font-family="Times,serif" font-size="14.00" fill="#000000">Large Class and Large Record</text>
<polyline fill="none" stroke="#000000" points="1192.2542,-136.9 1394.9022,-136.9 "/>
<text text-anchor="start" x="1200.2542" y="-120.3" font-family="Times,serif" font-size="14.00" fill="#000000">Long Function and Long Module</text>
<polyline fill="none" stroke="#000000" points="1192.2542,-112.1 1394.9022,-112.1 "/>
<text text-anchor="start" x="1229.6304" y="-95.5" font-family="Times,serif" font-size="14.00" fill="#000000">Speculative Generality</text>
</g>
<!-- SRP&#45;&gt;SRP Bad codes -->
<g id="edge17" class="edge">
<title>SRP-&gt;SRP Bad codes</title>
<path fill="none" stroke="#000000" d="M1495.1377,-344.8074C1469.7447,-336.1754 1431.9044,-320.7919 1404.5782,-298.6 1377.6528,-276.7336 1353.7842,-246.9397 1335.146,-219.7173"/>
<polygon fill="#000000" stroke="#000000" points="1338.0147,-217.7111 1329.5321,-211.3632 1332.2047,-221.6154 1338.0147,-217.7111"/>
</g>
<!-- SRP 重构方法 -->
<g id="node16" class="node">
<title>SRP 重构方法</title>
<polygon fill="none" stroke="#000000" points="1413.1069,-50.1 1413.1069,-248.5 1632.0495,-248.5 1632.0495,-50.1 1413.1069,-50.1"/>
<text text-anchor="start" x="1495.1676" y="-232.9" font-family="Times,serif" font-weight="bold" font-size="14.00" fill="#000000">重构方法</text>
<polyline fill="none" stroke="#000000" points="1413.1069,-223.7 1632.0495,-223.7 "/>
<text text-anchor="start" x="1485.4509" y="-207.1" font-family="Times,serif" font-size="14.00" fill="#000000">Extract Class</text>
<polyline fill="none" stroke="#000000" points="1413.1069,-198.9 1632.0495,-198.9 "/>
<text text-anchor="start" x="1475.7272" y="-182.3" font-family="Times,serif" font-size="14.00" fill="#000000">Extract Function</text>
<polyline fill="none" stroke="#000000" points="1413.1069,-174.1 1632.0495,-174.1 "/>
<text text-anchor="start" x="1454.9246" y="-157.5" font-family="Times,serif" font-size="14.00" fill="#000000">Remove Flag Argument</text>
<polyline fill="none" stroke="#000000" points="1413.1069,-149.3 1632.0495,-149.3 "/>
<text text-anchor="start" x="1421.1069" y="-132.7" font-family="Times,serif" font-size="14.00" fill="#000000">Replace Type Code with Subclasses</text>
<polyline fill="none" stroke="#000000" points="1413.1069,-124.5 1632.0495,-124.5 "/>
<text text-anchor="start" x="1437.2545" y="-107.9" font-family="Times,serif" font-size="14.00" fill="#000000">Separate Query from Modifier</text>
<polyline fill="none" stroke="#000000" points="1413.1069,-99.7 1632.0495,-99.7 "/>
<text text-anchor="start" x="1492.8247" y="-83.1" font-family="Times,serif" font-size="14.00" fill="#000000">Split Loop</text>
<polyline fill="none" stroke="#000000" points="1413.1069,-74.9 1632.0495,-74.9 "/>
<text text-anchor="start" x="1491.2728" y="-58.3" font-family="Times,serif" font-size="14.00" fill="#000000">Split Phase</text>
</g>
<!-- SRP&#45;&gt;SRP 重构方法 -->
<g id="edge18" class="edge">
<title>SRP-&gt;SRP 重构方法</title>
<path fill="none" stroke="#000000" d="M1522.5782,-335.0141C1522.5782,-317.2469 1522.5782,-288.5724 1522.5782,-259.0157"/>
<polygon fill="#000000" stroke="#000000" points="1526.0783,-258.9728 1522.5782,-248.9728 1519.0783,-258.9728 1526.0783,-258.9728"/>
</g>
<!-- SRP 设计模式 -->
<g id="node17" class="node">
<title>SRP 设计模式</title>
<polygon fill="none" stroke="#000000" points="1649.6683,-124.5 1649.6683,-174.1 1755.4881,-174.1 1755.4881,-124.5 1649.6683,-124.5"/>
<text text-anchor="start" x="1664.0824" y="-158.5" font-family="Times,serif" font-weight="bold" font-size="14.00" fill="#000000">设计模式</text>
<polyline fill="none" stroke="#000000" points="1649.6683,-149.3 1755.4881,-149.3 "/>
<text text-anchor="start" x="1657.6683" y="-132.7" font-family="Times,serif" font-size="14.00" fill="#000000">责任链模式</text>
</g>
<!-- SRP&#45;&gt;SRP 设计模式 -->
<g id="edge19" class="edge">
<title>SRP-&gt;SRP 设计模式</title>
<path fill="none" stroke="#000000" d="M1549.8519,-346.6946C1576.212,-339.2218 1615.7082,-324.4613 1640.5782,-298.6 1671.2108,-266.7464 1687.6164,-217.5949 1695.7075,-184.4751"/>
<polygon fill="#000000" stroke="#000000" points="1699.2109,-184.8585 1698.0498,-174.3275 1692.3903,-183.2841 1699.2109,-184.8585"/>
</g>
<!-- 意图与实现分离 Bad codes -->
<g id="node27" class="node">
<title>意图与实现分离 Bad codes</title>
<polygon fill="none" stroke="#000000" points="2218.041,-62.5 2218.041,-236.1 2349.1154,-236.1 2349.1154,-62.5 2218.041,-62.5"/>
<text text-anchor="start" x="2254.6157" y="-220.5" font-family="Times,serif" font-weight="bold" font-size="14.00" fill="#000000">Bad codes</text>
<polyline fill="none" stroke="#000000" points="2218.041,-211.3 2349.1154,-211.3 "/>
<text text-anchor="start" x="2247.0375" y="-194.7" font-family="Times,serif" font-size="14.00" fill="#000000">MutableData</text>
<polyline fill="none" stroke="#000000" points="2218.041,-186.5 2349.1154,-186.5 "/>
<text text-anchor="start" x="2237.8962" y="-169.9" font-family="Times,serif" font-size="14.00" fill="#000000">Message Chains</text>
<polyline fill="none" stroke="#000000" points="2218.041,-161.7 2349.1154,-161.7 "/>
<text text-anchor="start" x="2240.2335" y="-145.1" font-family="Times,serif" font-size="14.00" fill="#000000">Insider Trading</text>
<polyline fill="none" stroke="#000000" points="2218.041,-136.9 2349.1154,-136.9 "/>
<text text-anchor="start" x="2249.5638" y="-120.3" font-family="Times,serif" font-size="14.00" fill="#000000">Global Data</text>
<polyline fill="none" stroke="#000000" points="2218.041,-112.1 2349.1154,-112.1 "/>
<text text-anchor="start" x="2226.041" y="-95.5" font-family="Times,serif" font-size="14.00" fill="#000000">Long Parameter List</text>
<polyline fill="none" stroke="#000000" points="2218.041,-87.3 2349.1154,-87.3 "/>
<text text-anchor="start" x="2237.8962" y="-70.7" font-family="Times,serif" font-size="14.00" fill="#000000">Message Chains</text>
</g>
<!-- 意图与实现分离&#45;&gt;意图与实现分离 Bad codes -->
<g id="edge29" class="edge">
<title>意图与实现分离-&gt;意图与实现分离 Bad codes</title>
<path fill="none" stroke="#000000" d="M2359.2125,-335.0141C2350.9079,-314.6228 2336.752,-279.8641 2322.9172,-245.8939"/>
<polygon fill="#000000" stroke="#000000" points="2326.0421,-244.2873 2319.0288,-236.3461 2319.5592,-246.9277 2326.0421,-244.2873"/>
</g>
<!-- 意图与实现分离 重构方法 -->
<g id="node28" class="node">
<title>意图与实现分离 重构方法</title>
<polygon fill="none" stroke="#000000" points="2367.5217,-25.3 2367.5217,-273.3 2531.6347,-273.3 2531.6347,-25.3 2367.5217,-25.3"/>
<text text-anchor="start" x="2422.1676" y="-257.7" font-family="Times,serif" font-weight="bold" font-size="14.00" fill="#000000">重构方法</text>
<polyline fill="none" stroke="#000000" points="2367.5217,-248.5 2531.6347,-248.5 "/>
<text text-anchor="start" x="2384.8457" y="-231.9" font-family="Times,serif" font-size="14.00" fill="#000000">Encapsulate Collection</text>
<polyline fill="none" stroke="#000000" points="2367.5217,-223.7 2531.6347,-223.7 "/>
<text text-anchor="start" x="2393.7966" y="-207.1" font-family="Times,serif" font-size="14.00" fill="#000000">Encapsulate Record</text>
<polyline fill="none" stroke="#000000" points="2367.5217,-198.9 2531.6347,-198.9 "/>
<text text-anchor="start" x="2389.9137" y="-182.3" font-family="Times,serif" font-size="14.00" fill="#000000">Encapsulate Variable</text>
<polyline fill="none" stroke="#000000" points="2367.5217,-174.1 2531.6347,-174.1 "/>
<text text-anchor="start" x="2402.7272" y="-157.5" font-family="Times,serif" font-size="14.00" fill="#000000">Extract Function</text>
<polyline fill="none" stroke="#000000" points="2367.5217,-149.3 2531.6347,-149.3 "/>
<text text-anchor="start" x="2403.5203" y="-132.7" font-family="Times,serif" font-size="14.00" fill="#000000">Extract Variable</text>
<polyline fill="none" stroke="#000000" points="2367.5217,-124.5 2531.6347,-124.5 "/>
<text text-anchor="start" x="2409.3492" y="-107.9" font-family="Times,serif" font-size="14.00" fill="#000000">Hide Delegate</text>
<polyline fill="none" stroke="#000000" points="2367.5217,-99.7 2531.6347,-99.7 "/>
<text text-anchor="start" x="2375.5217" y="-83.1" font-family="Times,serif" font-size="14.00" fill="#000000">Replace Temp with Query</text>
<polyline fill="none" stroke="#000000" points="2367.5217,-74.9 2531.6347,-74.9 "/>
<text text-anchor="start" x="2376.4681" y="-58.3" font-family="Times,serif" font-size="14.00" fill="#000000">封装读取和设置方法</text>
<polyline fill="none" stroke="#000000" points="2367.5217,-50.1 2531.6347,-50.1 "/>
<text text-anchor="start" x="2392.1684" y="-33.5" font-family="Times,serif" font-size="14.00" fill="#000000">封装条件表达式</text>
</g>
<!-- 意图与实现分离&#45;&gt;意图与实现分离 重构方法 -->
<g id="edge30" class="edge">
<title>意图与实现分离-&gt;意图与实现分离 重构方法</title>
<path fill="none" stroke="#000000" d="M2373.9439,-335.0141C2379.1735,-322.1733 2386.7233,-303.6353 2395.0521,-283.1846"/>
<polygon fill="#000000" stroke="#000000" points="2398.3977,-284.2488 2398.9281,-273.6673 2391.9148,-281.6085 2398.3977,-284.2488"/>
</g>
<!-- 意图与实现分离 设计模式 -->
<g id="node29" class="node">
<title>意图与实现分离 设计模式</title>
<polygon fill="none" stroke="#000000" points="2550.0824,-112.1 2550.0824,-186.5 2643.074,-186.5 2643.074,-112.1 2550.0824,-112.1"/>
<text text-anchor="start" x="2558.0824" y="-170.9" font-family="Times,serif" font-weight="bold" font-size="14.00" fill="#000000">设计模式</text>
<polyline fill="none" stroke="#000000" points="2550.0824,-161.7 2643.074,-161.7 "/>
<text text-anchor="start" x="2564.4979" y="-145.1" font-family="Times,serif" font-size="14.00" fill="#000000">代理模式</text>
<polyline fill="none" stroke="#000000" points="2550.0824,-136.9 2643.074,-136.9 "/>
<text text-anchor="start" x="2558.6683" y="-120.3" font-family="Times,serif" font-size="14.00" fill="#000000">装饰模式</text>
</g>
<!-- 意图与实现分离&#45;&gt;意图与实现分离 设计模式 -->
<g id="edge31" class="edge">
<title>意图与实现分离-&gt;意图与实现分离 设计模式</title>
<path fill="none" stroke="#000000" d="M2417.7066,-342.3176C2462.342,-331.9898 2522.7003,-315.5156 2540.5782,-298.6 2568.9161,-271.7876 2583.0246,-229.2529 2589.9826,-196.4302"/>
<polygon fill="#000000" stroke="#000000" points="2593.4235,-197.0714 2591.9203,-186.5838 2586.5552,-195.7198 2593.4235,-197.0714"/>
</g>
<!-- 方便使用者 Bad codes -->
<g id="node23" class="node">
<title>方便使用者 Bad codes</title>
<polygon fill="none" stroke="#000000" points="384.041,-124.5 384.041,-174.1 515.1154,-174.1 515.1154,-124.5 384.041,-124.5"/>
<text text-anchor="start" x="420.6157" y="-158.5" font-family="Times,serif" font-weight="bold" font-size="14.00" fill="#000000">Bad codes</text>
<polyline fill="none" stroke="#000000" points="384.041,-149.3 515.1154,-149.3 "/>
<text text-anchor="start" x="392.041" y="-132.7" font-family="Times,serif" font-size="14.00" fill="#000000">Long Parameter List</text>
</g>
<!-- 方便使用者&#45;&gt;方便使用者 Bad codes -->
<g id="edge25" class="edge">
<title>方便使用者-&gt;方便使用者 Bad codes</title>
<path fill="none" stroke="#000000" d="M614.4736,-343.2767C585.5773,-335.3175 549.6715,-321.5447 524.5782,-298.6 490.5312,-267.4682 469.8405,-217.3918 459.0519,-183.9269"/>
<polygon fill="#000000" stroke="#000000" points="462.3156,-182.6337 456.0178,-174.1139 455.628,-184.7015 462.3156,-182.6337"/>
</g>
<!-- 方便使用者 重构方法 -->
<g id="node24" class="node">
<title>方便使用者 重构方法</title>
<polygon fill="none" stroke="#000000" points="533.2717,-99.7 533.2717,-198.9 791.8847,-198.9 791.8847,-99.7 533.2717,-99.7"/>
<text text-anchor="start" x="635.1676" y="-183.3" font-family="Times,serif" font-weight="bold" font-size="14.00" fill="#000000">重构方法</text>
<polyline fill="none" stroke="#000000" points="533.2717,-174.1 791.8847,-174.1 "/>
<text text-anchor="start" x="563.6178" y="-157.5" font-family="Times,serif" font-size="14.00" fill="#000000">Combine Functions into Transform</text>
<polyline fill="none" stroke="#000000" points="533.2717,-149.3 791.8847,-149.3 "/>
<text text-anchor="start" x="541.2717" y="-132.7" font-family="Times,serif" font-size="14.00" fill="#000000">Replace Constructor with Factory Function</text>
<polyline fill="none" stroke="#000000" points="533.2717,-124.5 791.8847,-124.5 "/>
<text text-anchor="start" x="576.4789" y="-107.9" font-family="Times,serif" font-size="14.00" fill="#000000">Replace Parameter with Query</text>
</g>
<!-- 方便使用者&#45;&gt;方便使用者 重构方法 -->
<g id="edge26" class="edge">
<title>方便使用者-&gt;方便使用者 重构方法</title>
<path fill="none" stroke="#000000" d="M662.5782,-335.0141C662.5782,-307.0562 662.5782,-252.0903 662.5782,-209.1783"/>
<polygon fill="#000000" stroke="#000000" points="666.0783,-209.1102 662.5782,-199.1103 659.0783,-209.1103 666.0783,-209.1102"/>
</g>
<!-- 低耦合 Bad codes -->
<g id="node30" class="node">
<title>低耦合 Bad codes</title>
<polygon fill="none" stroke="#000000" points="1773.8962,-112.1 1773.8962,-186.5 1881.2602,-186.5 1881.2602,-112.1 1773.8962,-112.1"/>
<text text-anchor="start" x="1798.6157" y="-170.9" font-family="Times,serif" font-weight="bold" font-size="14.00" fill="#000000">Bad codes</text>
<polyline fill="none" stroke="#000000" points="1773.8962,-161.7 1881.2602,-161.7 "/>
<text text-anchor="start" x="1790.0631" y="-145.1" font-family="Times,serif" font-size="14.00" fill="#000000">Feature Envy</text>
<polyline fill="none" stroke="#000000" points="1773.8962,-136.9 1881.2602,-136.9 "/>
<text text-anchor="start" x="1781.8962" y="-120.3" font-family="Times,serif" font-size="14.00" fill="#000000">Message Chains</text>
</g>
<!-- 低耦合&#45;&gt;低耦合 Bad codes -->
<g id="edge32" class="edge">
<title>低耦合-&gt;低耦合 Bad codes</title>
<path fill="none" stroke="#000000" d="M1960.1225,-342.1574C1937.8958,-333.4137 1909.4386,-319.1848 1890.5782,-298.6 1864.2538,-269.8688 1847.9727,-228.5219 1838.5731,-196.6216"/>
<polygon fill="#000000" stroke="#000000" points="1841.8377,-195.3018 1835.7591,-186.6242 1835.0995,-197.1985 1841.8377,-195.3018"/>
</g>
<!-- 低耦合 重构方法 -->
<g id="node31" class="node">
<title>低耦合 重构方法</title>
<polygon fill="none" stroke="#000000" points="1899.4789,-112.1 1899.4789,-186.5 2087.6775,-186.5 2087.6775,-112.1 1899.4789,-112.1"/>
<text text-anchor="start" x="1966.1676" y="-170.9" font-family="Times,serif" font-weight="bold" font-size="14.00" fill="#000000">重构方法</text>
<polyline fill="none" stroke="#000000" points="1899.4789,-161.7 2087.6775,-161.7 "/>
<text text-anchor="start" x="1907.4789" y="-145.1" font-family="Times,serif" font-size="14.00" fill="#000000">Replace Query with Parameter</text>
<polyline fill="none" stroke="#000000" points="1899.4789,-136.9 2087.6775,-136.9 "/>
<text text-anchor="start" x="1929.8208" y="-120.3" font-family="Times,serif" font-size="14.00" fill="#000000">Split Parameter Object</text>
</g>
<!-- 低耦合&#45;&gt;低耦合 重构方法 -->
<g id="edge33" class="edge">
<title>低耦合-&gt;低耦合 重构方法</title>
<path fill="none" stroke="#000000" d="M1993.5782,-335.0141C1993.5782,-304.3506 1993.5782,-241.1988 1993.5782,-197.0941"/>
<polygon fill="#000000" stroke="#000000" points="1997.0783,-196.8804 1993.5782,-186.8804 1990.0783,-196.8805 1997.0783,-196.8804"/>
</g>
<!-- 低耦合 设计模式 -->
<g id="node32" class="node">
<title>低耦合 设计模式</title>
<polygon fill="none" stroke="#000000" points="2105.311,-124.5 2105.311,-174.1 2199.8454,-174.1 2199.8454,-124.5 2105.311,-124.5"/>
<text text-anchor="start" x="2114.0824" y="-158.5" font-family="Times,serif" font-weight="bold" font-size="14.00" fill="#000000">设计模式</text>
<polyline fill="none" stroke="#000000" points="2105.311,-149.3 2199.8454,-149.3 "/>
<text text-anchor="start" x="2113.311" y="-132.7" font-family="Times,serif" font-size="14.00" fill="#000000">中介者模式</text>
</g>
<!-- 低耦合&#45;&gt;低耦合 设计模式 -->
<g id="edge34" class="edge">
<title>低耦合-&gt;低耦合 设计模式</title>
<path fill="none" stroke="#000000" d="M2027.3017,-342.3979C2049.648,-333.7615 2078.138,-319.5621 2096.5782,-298.6 2125.2869,-265.9651 2139.8453,-217.2015 2146.8117,-184.3688"/>
<polygon fill="#000000" stroke="#000000" points="2150.2944,-184.8002 2148.815,-174.3092 2143.4292,-183.433 2150.2944,-184.8002"/>
</g>
<!-- ETM -->
<g id="node10" class="node">
<title>ETM</title>
<polygon fill="none" stroke="#000000" points="2075.5782,-408.1 2075.5782,-444.1 2129.5782,-444.1 2129.5782,-408.1 2075.5782,-408.1"/>
<text text-anchor="middle" x="2102.3531" y="-421.9" font-family="Times,serif" font-size="14.00" fill="#000000">ETM</text>
</g>
<!-- ETM&#45;&gt;高内聚 -->
<g id="edge9" class="edge">
<title>ETM-&gt;高内聚</title>
<path fill="none" stroke="#000000" d="M2075.4002,-424.1849C1933.7433,-414.2033 1279.9545,-368.1352 1108.0712,-356.0237"/>
<polygon fill="#000000" stroke="#000000" points="1108.1391,-352.5199 1097.9178,-355.3083 1107.647,-359.5026 1108.1391,-352.5199"/>
</g>
<!-- ETM&#45;&gt;SRP -->
<g id="edge10" class="edge">
<title>ETM-&gt;SRP</title>
<path fill="none" stroke="#000000" d="M2075.3815,-422.677C1981.098,-410.8102 1668.131,-371.4196 1559.8379,-357.7896"/>
<polygon fill="#000000" stroke="#000000" points="1560.0748,-354.2919 1549.716,-356.5156 1559.2006,-361.2371 1560.0748,-354.2919"/>
</g>
<!-- ETM&#45;&gt;意图与实现分离 -->
<g id="edge11" class="edge">
<title>ETM-&gt;意图与实现分离</title>
<path fill="none" stroke="#000000" d="M2129.8365,-418.5627C2171.0972,-407.1534 2250.4649,-385.2071 2305.8794,-369.8841"/>
<polygon fill="#000000" stroke="#000000" points="2306.8829,-373.2381 2315.5884,-367.1995 2305.0172,-366.4913 2306.8829,-373.2381"/>
</g>
<!-- ETM&#45;&gt;低耦合 -->
<g id="edge12" class="edge">
<title>ETM-&gt;低耦合</title>
<path fill="none" stroke="#000000" d="M2075.6344,-408.0551C2061.6162,-398.6667 2044.2972,-387.0678 2029.1885,-376.9491"/>
<polygon fill="#000000" stroke="#000000" points="2030.8462,-373.8469 2020.5898,-371.1904 2026.951,-379.6631 2030.8462,-373.8469"/>
</g>
<!-- OCP -->
<g id="node11" class="node">
<title>OCP</title>
<polygon fill="none" stroke="#000000" points="2775.5782,-335.1 2775.5782,-371.1 2829.5782,-371.1 2829.5782,-335.1 2775.5782,-335.1"/>
<text text-anchor="middle" x="2802.1911" y="-348.9" font-family="Times,serif" font-size="14.00" fill="#000000">OCP</text>
</g>
<!-- ETM&#45;&gt;OCP -->
<g id="edge13" class="edge">
<title>ETM-&gt;OCP</title>
<path fill="none" stroke="#000000" d="M2129.5901,-423.283C2237.7449,-412.004 2639.7285,-370.0829 2765.0322,-357.0155"/>
<polygon fill="#000000" stroke="#000000" points="2765.6862,-360.4664 2775.2692,-355.9479 2764.9601,-353.5041 2765.6862,-360.4664"/>
</g>
<!-- DRY -->
<g id="node12" class="node">
<title>DRY</title>
<polygon fill="none" stroke="#000000" points="3232.5782,-335.1 3232.5782,-371.1 3286.5782,-371.1 3286.5782,-335.1 3232.5782,-335.1"/>
<text text-anchor="middle" x="3259.3531" y="-348.9" font-family="Times,serif" font-size="14.00" fill="#000000">DRY</text>
</g>
<!-- ETM&#45;&gt;DRY -->
<g id="edge14" class="edge">
<title>ETM-&gt;DRY</title>
<path fill="none" stroke="#000000" d="M2129.7553,-424.3853C2283.53,-414.683 3043.9654,-366.7039 3222.1655,-355.4605"/>
<polygon fill="#000000" stroke="#000000" points="3222.5878,-358.9409 3232.3476,-354.8181 3222.147,-351.9548 3222.5878,-358.9409"/>
</g>
<!-- OCP Bad codes -->
<g id="node18" class="node">
<title>OCP Bad codes</title>
<polygon fill="none" stroke="#000000" points="2660.6157,-131.3 2660.6157,-167.3 2734.5407,-167.3 2734.5407,-131.3 2660.6157,-131.3"/>
<text text-anchor="start" x="2668.6157" y="-146.2" font-family="Times,serif" font-weight="bold" font-size="14.00" fill="#000000">Bad codes</text>
</g>
<!-- OCP&#45;&gt;OCP Bad codes -->
<g id="edge20" class="edge">
<title>OCP-&gt;OCP Bad codes</title>
<path fill="none" stroke="#000000" d="M2777.5687,-335.0453C2765.7904,-325.4057 2752.42,-312.642 2743.5782,-298.6 2719.662,-260.6179 2707.4439,-209.352 2701.7939,-177.8488"/>
<polygon fill="#000000" stroke="#000000" points="2705.1768,-176.8619 2700.0609,-167.5841 2698.2745,-178.0272 2705.1768,-176.8619"/>
</g>
<!-- OCP 重构方法 -->
<g id="node19" class="node">
<title>OCP 重构方法</title>
<polygon fill="none" stroke="#000000" points="2752.2366,-124.5 2752.2366,-174.1 3062.9198,-174.1 3062.9198,-124.5 2752.2366,-124.5"/>
<text text-anchor="start" x="2880.1676" y="-158.5" font-family="Times,serif" font-weight="bold" font-size="14.00" fill="#000000">重构方法</text>
<polyline fill="none" stroke="#000000" points="2752.2366,-149.3 3062.9198,-149.3 "/>
<text text-anchor="start" x="2760.2366" y="-132.7" font-family="Times,serif" font-size="14.00" fill="#000000">Use decision table to replace complicated conditions</text>
</g>
<!-- OCP&#45;&gt;OCP 重构方法 -->
<g id="edge21" class="edge">
<title>OCP-&gt;OCP 重构方法</title>
<path fill="none" stroke="#000000" d="M2811.8962,-335.0141C2829.431,-300.98 2867.5861,-226.9227 2890.0565,-183.3087"/>
<polygon fill="#000000" stroke="#000000" points="2893.2665,-184.7203 2894.7352,-174.2277 2887.0438,-181.5143 2893.2665,-184.7203"/>
</g>
<!-- OCP 设计模式 -->
<g id="node20" class="node">
<title>OCP 设计模式</title>
<polygon fill="none" stroke="#000000" points="3080.6683,-99.7 3080.6683,-198.9 3186.4881,-198.9 3186.4881,-99.7 3080.6683,-99.7"/>
<text text-anchor="start" x="3095.0824" y="-183.3" font-family="Times,serif" font-weight="bold" font-size="14.00" fill="#000000">设计模式</text>
<polyline fill="none" stroke="#000000" points="3080.6683,-174.1 3186.4881,-174.1 "/>
<text text-anchor="start" x="3088.6683" y="-157.5" font-family="Times,serif" font-size="14.00" fill="#000000">责任链模式</text>
<polyline fill="none" stroke="#000000" points="3080.6683,-149.3 3186.4881,-149.3 "/>
<text text-anchor="start" x="3103.5776" y="-132.7" font-family="Times,serif" font-size="14.00" fill="#000000">状态模式</text>
<polyline fill="none" stroke="#000000" points="3080.6683,-124.5 3186.4881,-124.5 "/>
<text text-anchor="start" x="3102.6676" y="-107.9" font-family="Times,serif" font-size="14.00" fill="#000000">策略模式</text>
</g>
<!-- OCP&#45;&gt;OCP 设计模式 -->
<g id="edge22" class="edge">
<title>OCP-&gt;OCP 设计模式</title>
<path fill="none" stroke="#000000" d="M2829.8248,-350.8059C2890.5781,-345.1917 3034.6921,-328.9534 3071.5782,-298.6 3098.6626,-276.3124 3114.0787,-240.2042 3122.7643,-209.0809"/>
<polygon fill="#000000" stroke="#000000" points="3126.2108,-209.7351 3125.354,-199.1749 3119.4384,-207.9645 3126.2108,-209.7351"/>
</g>
<!-- DRY Bad codes -->
<g id="node21" class="node">
<title>DRY Bad codes</title>
<polygon fill="none" stroke="#000000" points="3204.3415,-124.5 3204.3415,-174.1 3314.8149,-174.1 3314.8149,-124.5 3204.3415,-124.5"/>
<text text-anchor="start" x="3230.6157" y="-158.5" font-family="Times,serif" font-weight="bold" font-size="14.00" fill="#000000">Bad codes</text>
<polyline fill="none" stroke="#000000" points="3204.3415,-149.3 3314.8149,-149.3 "/>
<text text-anchor="start" x="3212.3415" y="-132.7" font-family="Times,serif" font-size="14.00" fill="#000000">Duplicated Code</text>
</g>
<!-- DRY&#45;&gt;DRY Bad codes -->
<g id="edge23" class="edge">
<title>DRY-&gt;DRY Bad codes</title>
<path fill="none" stroke="#000000" d="M3259.5782,-335.0141C3259.5782,-301.2654 3259.5782,-228.162 3259.5782,-184.4123"/>
<polygon fill="#000000" stroke="#000000" points="3263.0783,-184.2277 3259.5782,-174.2277 3256.0783,-184.2278 3263.0783,-184.2277"/>
</g>
<!-- DRY 重构方法 -->
<g id="node22" class="node">
<title>DRY 重构方法</title>
<polygon fill="none" stroke="#000000" points="3332.4214,-124.5 3332.4214,-174.1 3502.735,-174.1 3502.735,-124.5 3332.4214,-124.5"/>
<text text-anchor="start" x="3390.1676" y="-158.5" font-family="Times,serif" font-weight="bold" font-size="14.00" fill="#000000">重构方法</text>
<polyline fill="none" stroke="#000000" points="3332.4214,-149.3 3502.735,-149.3 "/>
<text text-anchor="start" x="3340.4214" y="-132.7" font-family="Times,serif" font-size="14.00" fill="#000000">Change Value to Reference</text>
</g>
<!-- DRY&#45;&gt;DRY 重构方法 -->
<g id="edge24" class="edge">
<title>DRY-&gt;DRY 重构方法</title>
<path fill="none" stroke="#000000" d="M3284.2467,-334.9989C3296.8419,-325.0684 3311.9234,-312.0599 3323.5782,-298.6 3354.966,-262.351 3383.1168,-214.6052 3400.2521,-182.9786"/>
<polygon fill="#000000" stroke="#000000" points="3403.3653,-184.579 3404.997,-174.1106 3397.1932,-181.2766 3403.3653,-184.579"/>
</g>
<!-- ETC -->
<g id="node13" class="node">
<title>ETC</title>
<polygon fill="none" stroke="#000000" points="2939.5782,-408.1 2939.5782,-444.1 2993.5782,-444.1 2993.5782,-408.1 2939.5782,-408.1"/>
<text text-anchor="middle" x="2966.2991" y="-421.9" font-family="Times,serif" font-size="14.00" fill="#000000">ETC</text>
</g>
<!-- ETC&#45;&gt;意图与实现分离 -->
<g id="edge15" class="edge">
<title>ETC-&gt;意图与实现分离</title>
<path fill="none" stroke="#000000" d="M2939.2383,-422.7736C2848.5042,-411.7343 2555.8561,-376.1288 2427.6754,-360.5335"/>
<polygon fill="#000000" stroke="#000000" points="2427.9802,-357.0449 2417.6307,-359.3114 2427.1347,-363.9936 2427.9802,-357.0449"/>
</g>
<!-- 消除非必要的可变性 -->
<g id="node14" class="node">
<title>消除非必要的可变性</title>
<polygon fill="none" stroke="#000000" points="3494.3581,-335.1 3494.3581,-371.1 3638.7983,-371.1 3638.7983,-335.1 3494.3581,-335.1"/>
<text text-anchor="middle" x="3566.5782" y="-348.9" font-family="Times,serif" font-size="14.00" fill="#000000">消除非必要的可变性</text>
</g>
<!-- ETC&#45;&gt;消除非必要的可变性 -->
<g id="edge16" class="edge">
<title>ETC-&gt;消除非必要的可变性</title>
<path fill="none" stroke="#000000" d="M2993.9181,-422.7736C3079.9138,-412.3108 3347.285,-379.7807 3484.1056,-363.1342"/>
<polygon fill="#000000" stroke="#000000" points="3484.6232,-366.5971 3494.1272,-361.9149 3483.7777,-359.6483 3484.6232,-366.5971"/>
</g>
<!-- 消除非必要的可变性 Bad codes -->
<g id="node25" class="node">
<title>消除非必要的可变性 Bad codes</title>
<polygon fill="none" stroke="#000000" points="3520.2875,-112.1 3520.2875,-186.5 3612.8689,-186.5 3612.8689,-112.1 3520.2875,-112.1"/>
<text text-anchor="start" x="3537.6157" y="-170.9" font-family="Times,serif" font-weight="bold" font-size="14.00" fill="#000000">Bad codes</text>
<polyline fill="none" stroke="#000000" points="3520.2875,-161.7 3612.8689,-161.7 "/>
<text text-anchor="start" x="3532.5638" y="-145.1" font-family="Times,serif" font-size="14.00" fill="#000000">Global Data</text>
<polyline fill="none" stroke="#000000" points="3520.2875,-136.9 3612.8689,-136.9 "/>
<text text-anchor="start" x="3528.2875" y="-120.3" font-family="Times,serif" font-size="14.00" fill="#000000">Mutable Data</text>
</g>
<!-- 消除非必要的可变性&#45;&gt;消除非必要的可变性 Bad codes -->
<g id="edge27" class="edge">
<title>消除非必要的可变性-&gt;消除非必要的可变性 Bad codes</title>
<path fill="none" stroke="#000000" d="M3566.5782,-335.0141C3566.5782,-304.3506 3566.5782,-241.1988 3566.5782,-197.0941"/>
<polygon fill="#000000" stroke="#000000" points="3570.0783,-196.8804 3566.5782,-186.8804 3563.0783,-196.8805 3570.0783,-196.8804"/>
</g>
<!-- 消除非必要的可变性 重构方法 -->
<g id="node26" class="node">
<title>消除非必要的可变性 重构方法</title>
<polygon fill="none" stroke="#000000" points="3630.461,-87.3 3630.461,-211.3 3858.6954,-211.3 3858.6954,-87.3 3630.461,-87.3"/>
<text text-anchor="start" x="3717.1676" y="-195.7" font-family="Times,serif" font-weight="bold" font-size="14.00" fill="#000000">重构方法</text>
<polyline fill="none" stroke="#000000" points="3630.461,-186.5 3858.6954,-186.5 "/>
<text text-anchor="start" x="3667.4214" y="-169.9" font-family="Times,serif" font-size="14.00" fill="#000000">Change Reference to Value</text>
<polyline fill="none" stroke="#000000" points="3630.461,-161.7 3858.6954,-161.7 "/>
<text text-anchor="start" x="3676.1406" y="-145.1" font-family="Times,serif" font-size="14.00" fill="#000000">Remove Setting Method</text>
<polyline fill="none" stroke="#000000" points="3630.461,-136.9 3858.6954,-136.9 "/>
<text text-anchor="start" x="3638.461" y="-120.3" font-family="Times,serif" font-size="14.00" fill="#000000">Replace Derived Variable with Query</text>
<polyline fill="none" stroke="#000000" points="3630.461,-112.1 3858.6954,-112.1 "/>
<text text-anchor="start" x="3670.3194" y="-95.5" font-family="Times,serif" font-size="14.00" fill="#000000">用常量代替基础类型值</text>
</g>
<!-- 消除非必要的可变性&#45;&gt;消除非必要的可变性 重构方法 -->
<g id="edge28" class="edge">
<title>消除非必要的可变性-&gt;消除非必要的可变性 重构方法</title>
<path fill="none" stroke="#000000" d="M3585.8918,-334.8918C3596.6611,-324.5112 3610.1632,-311.1132 3621.5782,-298.6 3644.5512,-273.417 3668.6429,-244.7334 3689.3549,-219.2838"/>
<polygon fill="#000000" stroke="#000000" points="3692.0893,-221.4687 3695.6693,-211.4969 3686.6523,-217.0597 3692.0893,-221.4687"/>
</g>
</g>
</svg>