<?xml version="1.0" encoding="UTF-8" standalone="no"?><!DOCTYPE svg PUBLIC "-//W3C//DTD SVG 1.1//EN" "http://www.w3.org/Graphics/SVG/1.1/DTD/svg11.dtd"><!-- Generated by graphviz version 2.40.1 (20161225.0304)
 --><!-- Title: G Pages: 1 --><svg xmlns="http://www.w3.org/2000/svg" xmlns:xlink="http://www.w3.org/1999/xlink" width="3847pt" height="453pt" viewBox="0.00 0.00 3846.70 452.60">
<g id="graph0" class="graph" transform="scale(1 1) rotate(0) translate(4 448.6)">
<title>G</title>
<polygon fill="#ffffff" stroke="transparent" points="-4,4 -4,-448.6 3842.6954,-448.6 3842.6954,4 -4,4"/>
<!-- YAGNI -->
<g id="node1" class="node">
<title>YAGNI</title>
<polygon fill="none" stroke="#000000" points="591.0347,-408.1 591.0347,-444.1 652.1217,-444.1 652.1217,-408.1 591.0347,-408.1"/>
<text text-anchor="middle" x="621.5782" y="-421.9" font-family="Times,serif" font-size="14.00" fill="#000000">YAGNI</text>
</g>
<!-- ETR -->
<g id="node2" class="node">
<title>ETR</title>
<polygon fill="none" stroke="#000000" points="670.5782,-408.1 670.5782,-444.1 724.5782,-444.1 724.5782,-408.1 670.5782,-408.1"/>
<text text-anchor="middle" x="697.2991" y="-421.9" font-family="Times,serif" font-size="14.00" fill="#000000">ETR</text>
</g>
<!-- 语义化 -->
<g id="node3" class="node">
<title>语义化</title>
<polygon fill="none" stroke="#000000" points="381.223,-335.1 381.223,-371.1 441.9334,-371.1 441.9334,-335.1 381.223,-335.1"/>
<text text-anchor="middle" x="411.5782" y="-348.9" font-family="Times,serif" font-size="14.00" fill="#000000">语义化</text>
</g>
<!-- ETR&#45;&gt;语义化 -->
<g id="edge1" class="edge">
<title>ETR-&gt;语义化</title>
<path fill="none" stroke="#000000" d="M670.3901,-411.201C667.4614,-409.8768 664.4882,-408.6447 661.5782,-407.6 590.1476,-381.9565 502.7119,-366.2669 452.4482,-358.6667"/>
<polygon fill="#000000" stroke="#000000" points="452.7102,-355.1674 442.3058,-357.1669 451.6862,-362.0921 452.7102,-355.1674"/>
</g>
<!-- 高内聚 -->
<g id="node4" class="node">
<title>高内聚</title>
<polygon fill="none" stroke="#000000" points="1025.2486,-335.1 1025.2486,-371.1 1087.9078,-371.1 1087.9078,-335.1 1025.2486,-335.1"/>
<text text-anchor="middle" x="1056.5782" y="-348.9" font-family="Times,serif" font-size="14.00" fill="#000000">高内聚</text>
</g>
<!-- ETR&#45;&gt;高内聚 -->
<g id="edge2" class="edge">
<title>ETR-&gt;高内聚</title>
<path fill="none" stroke="#000000" d="M724.8562,-420.5532C787.2894,-407.8579 940.8932,-376.6237 1015.1102,-361.5322"/>
<polygon fill="#000000" stroke="#000000" points="1015.936,-364.936 1025.038,-359.5135 1014.5411,-358.0764 1015.936,-364.936"/>
</g>
<!-- 语义化 Bad codes -->
<g id="node35" class="node">
<title>语义化 Bad codes</title>
<polygon fill="none" stroke="#000000" points="0,-74.9 0,-223.7 129.1564,-223.7 129.1564,-74.9 0,-74.9"/>
<text text-anchor="start" x="35.6157" y="-208.1" font-family="Times,serif" font-weight="bold" font-size="14.00" fill="#000000">Bad codes</text>
<polyline fill="none" stroke="#000000" points="0,-198.9 129.1564,-198.9 "/>
<text text-anchor="start" x="27.8338" y="-182.3" font-family="Times,serif" font-size="14.00" fill="#000000">Data Clumps</text>
<polyline fill="none" stroke="#000000" points="0,-174.1 129.1564,-174.1 "/>
<text text-anchor="start" x="14.6199" y="-157.5" font-family="Times,serif" font-size="14.00" fill="#000000">Mysterious Name</text>
<polyline fill="none" stroke="#000000" points="0,-149.3 129.1564,-149.3 "/>
<text text-anchor="start" x="8" y="-132.7" font-family="Times,serif" font-size="14.00" fill="#000000">Primitive Obsession</text>
<polyline fill="none" stroke="#000000" points="0,-124.5 129.1564,-124.5 "/>
<text text-anchor="start" x="17.3422" y="-107.9" font-family="Times,serif" font-size="14.00" fill="#000000">Refused Bequest</text>
<polyline fill="none" stroke="#000000" points="0,-99.7 129.1564,-99.7 "/>
<text text-anchor="start" x="37.9369" y="-83.1" font-family="Times,serif" font-size="14.00" fill="#000000">极简代码</text>
</g>
<!-- 语义化&#45;&gt;语义化 Bad codes -->
<g id="edge37" class="edge">
<title>语义化-&gt;语义化 Bad codes</title>
<path fill="none" stroke="#000000" d="M380.7816,-350.3639C317.6606,-344.2206 176.3657,-327.5559 138.5782,-298.6 116.995,-282.0612 101.2851,-257.5408 90.0452,-233.1293"/>
<polygon fill="#000000" stroke="#000000" points="93.174,-231.5488 85.9534,-223.7955 86.763,-234.3594 93.174,-231.5488"/>
</g>
<!-- 语义化 重构方法 -->
<g id="node36" class="node">
<title>语义化 重构方法</title>
<polygon fill="none" stroke="#000000" points="147.1069,-.5 147.1069,-298.1 366.0495,-298.1 366.0495,-.5 147.1069,-.5"/>
<text text-anchor="start" x="229.1676" y="-282.5" font-family="Times,serif" font-weight="bold" font-size="14.00" fill="#000000">重构方法</text>
<polyline fill="none" stroke="#000000" points="147.1069,-273.3 366.0495,-273.3 "/>
<text text-anchor="start" x="174.1574" y="-256.7" font-family="Times,serif" font-size="14.00" fill="#000000">Change Function Declaration</text>
<polyline fill="none" stroke="#000000" points="147.1069,-248.5 366.0495,-248.5 "/>
<text text-anchor="start" x="167.3548" y="-231.9" font-family="Times,serif" font-size="14.00" fill="#000000">Combine Variables Into Record</text>
<polyline fill="none" stroke="#000000" points="147.1069,-223.7 366.0495,-223.7 "/>
<text text-anchor="start" x="179.2275" y="-207.1" font-family="Times,serif" font-size="14.00" fill="#000000">Introduce Parameter Object</text>
<polyline fill="none" stroke="#000000" points="147.1069,-198.9 366.0495,-198.9 "/>
<text text-anchor="start" x="191.6637" y="-182.3" font-family="Times,serif" font-size="14.00" fill="#000000">Preserve Whole Object</text>
<polyline fill="none" stroke="#000000" points="147.1069,-174.1 366.0495,-174.1 "/>
<text text-anchor="start" x="207.7966" y="-157.5" font-family="Times,serif" font-size="14.00" fill="#000000">Rename Variable</text>
<polyline fill="none" stroke="#000000" points="147.1069,-149.3 366.0495,-149.3 "/>
<text text-anchor="start" x="171.6276" y="-132.7" font-family="Times,serif" font-size="14.00" fill="#000000">Replace Primitive with Object</text>
<polyline fill="none" stroke="#000000" points="147.1069,-124.5 366.0495,-124.5 "/>
<text text-anchor="start" x="166.9726" y="-107.9" font-family="Times,serif" font-size="14.00" fill="#000000">Replace Subclass with Delegate</text>
<polyline fill="none" stroke="#000000" points="147.1069,-99.7 366.0495,-99.7 "/>
<text text-anchor="start" x="161.535" y="-83.1" font-family="Times,serif" font-size="14.00" fill="#000000">Replace Superclass with Delegate</text>
<polyline fill="none" stroke="#000000" points="147.1069,-74.9 366.0495,-74.9 "/>
<text text-anchor="start" x="155.1069" y="-58.3" font-family="Times,serif" font-size="14.00" fill="#000000">Replace Type Code with Subclasses</text>
<polyline fill="none" stroke="#000000" points="147.1069,-50.1 366.0495,-50.1 "/>
<text text-anchor="start" x="185.7998" y="-33.5" font-family="Times,serif" font-size="14.00" fill="#000000">严格设置默认值</text>
<polyline fill="none" stroke="#000000" points="147.1069,-25.3 366.0495,-25.3 "/>
<text text-anchor="start" x="182.3194" y="-8.7" font-family="Times,serif" font-size="14.00" fill="#000000">用常量代替基础类型值</text>
</g>
<!-- 语义化&#45;&gt;语义化 重构方法 -->
<g id="edge38" class="edge">
<title>语义化-&gt;语义化 重构方法</title>
<path fill="none" stroke="#000000" d="M397.823,-335.0141C391.1352,-326.2207 382.4153,-314.7555 372.5879,-301.834"/>
<polygon fill="#000000" stroke="#000000" points="375.1735,-299.4519 366.334,-293.6112 369.6018,-303.6895 375.1735,-299.4519"/>
</g>
<!-- 高内聚 Bad codes -->
<g id="node33" class="node">
<title>高内聚 Bad codes</title>
<polygon fill="none" stroke="#000000" points="810.041,-74.9 810.041,-223.7 941.1154,-223.7 941.1154,-74.9 810.041,-74.9"/>
<text text-anchor="start" x="846.6157" y="-208.1" font-family="Times,serif" font-weight="bold" font-size="14.00" fill="#000000">Bad codes</text>
<polyline fill="none" stroke="#000000" points="810.041,-198.9 941.1154,-198.9 "/>
<text text-anchor="start" x="845.4495" y="-182.3" font-family="Times,serif" font-size="14.00" fill="#000000">Data Class</text>
<polyline fill="none" stroke="#000000" points="810.041,-174.1 941.1154,-174.1 "/>
<text text-anchor="start" x="838.8338" y="-157.5" font-family="Times,serif" font-size="14.00" fill="#000000">Data Clumps</text>
<polyline fill="none" stroke="#000000" points="810.041,-149.3 941.1154,-149.3 "/>
<text text-anchor="start" x="838.0631" y="-132.7" font-family="Times,serif" font-size="14.00" fill="#000000">Feature Envy</text>
<polyline fill="none" stroke="#000000" points="810.041,-124.5 941.1154,-124.5 "/>
<text text-anchor="start" x="818.041" y="-107.9" font-family="Times,serif" font-size="14.00" fill="#000000">Long Parameter List</text>
<polyline fill="none" stroke="#000000" points="810.041,-99.7 941.1154,-99.7 "/>
<text text-anchor="start" x="828.3324" y="-83.1" font-family="Times,serif" font-size="14.00" fill="#000000">Shotgun Surgery</text>
</g>
<!-- 高内聚&#45;&gt;高内聚 Bad codes -->
<g id="edge35" class="edge">
<title>高内聚-&gt;高内聚 Bad codes</title>
<path fill="none" stroke="#000000" d="M1025.0247,-342.9056C1002.0379,-334.1636 971.4035,-319.6216 950.5782,-298.6 932.2857,-280.1351 917.6101,-256.3049 906.2606,-233.1276"/>
<polygon fill="#000000" stroke="#000000" points="909.357,-231.4883 901.916,-223.9463 903.0296,-234.4825 909.357,-231.4883"/>
</g>
<!-- 高内聚 重构方法 -->
<g id="node34" class="node">
<title>高内聚 重构方法</title>
<polygon fill="none" stroke="#000000" points="959.3548,-50.1 959.3548,-248.5 1153.8016,-248.5 1153.8016,-50.1 959.3548,-50.1"/>
<text text-anchor="start" x="1029.1676" y="-232.9" font-family="Times,serif" font-weight="bold" font-size="14.00" fill="#000000">重构方法</text>
<polyline fill="none" stroke="#000000" points="959.3548,-223.7 1153.8016,-223.7 "/>
<text text-anchor="start" x="971.6094" y="-207.1" font-family="Times,serif" font-size="14.00" fill="#000000">Combine Functions Into Class</text>
<polyline fill="none" stroke="#000000" points="959.3548,-198.9 1153.8016,-198.9 "/>
<text text-anchor="start" x="967.3548" y="-182.3" font-family="Times,serif" font-size="14.00" fill="#000000">Combine Variables Into Record</text>
<polyline fill="none" stroke="#000000" points="959.3548,-174.1 1153.8016,-174.1 "/>
<text text-anchor="start" x="1023.3345" y="-157.5" font-family="Times,serif" font-size="14.00" fill="#000000">Inline Class</text>
<polyline fill="none" stroke="#000000" points="959.3548,-149.3 1153.8016,-149.3 "/>
<text text-anchor="start" x="1013.6108" y="-132.7" font-family="Times,serif" font-size="14.00" fill="#000000">Inline Function</text>
<polyline fill="none" stroke="#000000" points="959.3548,-124.5 1153.8016,-124.5 "/>
<text text-anchor="start" x="979.2275" y="-107.9" font-family="Times,serif" font-size="14.00" fill="#000000">Introduce Parameter Object</text>
<polyline fill="none" stroke="#000000" points="959.3548,-99.7 1153.8016,-99.7 "/>
<text text-anchor="start" x="968.5021" y="-83.1" font-family="Times,serif" font-size="14.00" fill="#000000">Move Statements into Function</text>
<polyline fill="none" stroke="#000000" points="959.3548,-74.9 1153.8016,-74.9 "/>
<text text-anchor="start" x="971.6276" y="-58.3" font-family="Times,serif" font-size="14.00" fill="#000000">Replace Primitive with Object</text>
</g>
<!-- 高内聚&#45;&gt;高内聚 重构方法 -->
<g id="edge36" class="edge">
<title>高内聚-&gt;高内聚 重构方法</title>
<path fill="none" stroke="#000000" d="M1056.5782,-335.0141C1056.5782,-317.2469 1056.5782,-288.5724 1056.5782,-259.0157"/>
<polygon fill="#000000" stroke="#000000" points="1060.0783,-258.9728 1056.5782,-248.9728 1053.0783,-258.9728 1060.0783,-258.9728"/>
</g>
<!-- ETU -->
<g id="node5" class="node">
<title>ETU</title>
<polygon fill="none" stroke="#000000" points="1252.5782,-408.1 1252.5782,-444.1 1306.5782,-444.1 1306.5782,-408.1 1252.5782,-408.1"/>
<text text-anchor="middle" x="1279.1841" y="-421.9" font-family="Times,serif" font-size="14.00" fill="#000000">ETU</text>
</g>
<!-- ETU&#45;&gt;语义化 -->
<g id="edge3" class="edge">
<title>ETU-&gt;语义化</title>
<path fill="none" stroke="#000000" d="M1252.2802,-424.0344C1160.8028,-417.0822 856.7128,-393.7265 605.5782,-371.6 552.5193,-366.9252 491.3516,-361.0037 452.1144,-357.1368"/>
<polygon fill="#000000" stroke="#000000" points="452.4379,-353.6518 442.1423,-356.1517 451.7497,-360.6179 452.4379,-353.6518"/>
</g>
<!-- ETU&#45;&gt;高内聚 -->
<g id="edge4" class="edge">
<title>ETU-&gt;高内聚</title>
<path fill="none" stroke="#000000" d="M1252.234,-417.1488C1213.6331,-404.5126 1142.8601,-381.3447 1097.8461,-366.6092"/>
<polygon fill="#000000" stroke="#000000" points="1098.6926,-363.2036 1088.0999,-363.4188 1096.5148,-369.8562 1098.6926,-363.2036"/>
</g>
<!-- SRP -->
<g id="node6" class="node">
<title>SRP</title>
<polygon fill="none" stroke="#000000" points="1475.5782,-335.1 1475.5782,-371.1 1529.5782,-371.1 1529.5782,-335.1 1475.5782,-335.1"/>
<text text-anchor="middle" x="1502.5291" y="-348.9" font-family="Times,serif" font-size="14.00" fill="#000000">SRP</text>
</g>
<!-- ETU&#45;&gt;SRP -->
<g id="edge5" class="edge">
<title>ETU-&gt;SRP</title>
<path fill="none" stroke="#000000" d="M1306.9224,-417.1488C1346.8209,-404.0878 1421.0905,-379.7753 1465.76,-365.1526"/>
<polygon fill="#000000" stroke="#000000" points="1466.9447,-368.4476 1475.3595,-362.0102 1464.7669,-361.795 1466.9447,-368.4476"/>
</g>
<!-- 意图与实现分离 -->
<g id="node7" class="node">
<title>意图与实现分离</title>
<polygon fill="none" stroke="#000000" points="2295.6066,-335.1 2295.6066,-371.1 2397.5498,-371.1 2397.5498,-335.1 2295.6066,-335.1"/>
<text text-anchor="middle" x="2346.5782" y="-348.9" font-family="Times,serif" font-size="14.00" fill="#000000">意图与实现分离</text>
</g>
<!-- ETU&#45;&gt;意图与实现分离 -->
<g id="edge6" class="edge">
<title>ETU-&gt;意图与实现分离</title>
<path fill="none" stroke="#000000" d="M1306.756,-424.2406C1446.3013,-414.6935 2083.5385,-371.0962 2285.1988,-357.2993"/>
<polygon fill="#000000" stroke="#000000" points="2285.5799,-360.7815 2295.3176,-356.6071 2285.102,-353.7979 2285.5799,-360.7815"/>
</g>
<!-- 方便使用者 -->
<g id="node8" class="node">
<title>方便使用者</title>
<polygon fill="none" stroke="#000000" points="614.73,-335.1 614.73,-371.1 710.4264,-371.1 710.4264,-335.1 614.73,-335.1"/>
<text text-anchor="middle" x="662.5782" y="-348.9" font-family="Times,serif" font-size="14.00" fill="#000000">方便使用者</text>
</g>
<!-- ETU&#45;&gt;方便使用者 -->
<g id="edge7" class="edge">
<title>ETU-&gt;方便使用者</title>
<path fill="none" stroke="#000000" d="M1252.2704,-422.8691C1158.8312,-411.8139 850.5379,-375.3383 720.8617,-359.9958"/>
<polygon fill="#000000" stroke="#000000" points="721.0691,-356.496 710.7271,-358.7967 720.2466,-363.4475 721.0691,-356.496"/>
</g>
<!-- 低耦合 -->
<g id="node9" class="node">
<title>低耦合</title>
<polygon fill="none" stroke="#000000" points="1940.3019,-335.1 1940.3019,-371.1 2006.8545,-371.1 2006.8545,-335.1 1940.3019,-335.1"/>
<text text-anchor="middle" x="1973.5782" y="-348.9" font-family="Times,serif" font-size="14.00" fill="#000000">低耦合</text>
</g>
<!-- ETU&#45;&gt;低耦合 -->
<g id="edge8" class="edge">
<title>ETU-&gt;低耦合</title>
<path fill="none" stroke="#000000" d="M1306.7838,-423.2383C1412.9233,-412.0738 1799.733,-371.3863 1930.2395,-357.6587"/>
<polygon fill="#000000" stroke="#000000" points="1930.6888,-361.1308 1940.2678,-356.6038 1929.9565,-354.1692 1930.6888,-361.1308"/>
</g>
<!-- SRP Bad codes -->
<g id="node15" class="node">
<title>SRP Bad codes</title>
<polygon fill="none" stroke="#000000" points="1172.2542,-87.3 1172.2542,-211.3 1374.9022,-211.3 1374.9022,-87.3 1172.2542,-87.3"/>
<text text-anchor="start" x="1244.6157" y="-195.7" font-family="Times,serif" font-weight="bold" font-size="14.00" fill="#000000">Bad codes</text>
<polyline fill="none" stroke="#000000" points="1172.2542,-186.5 1374.9022,-186.5 "/>
<text text-anchor="start" x="1222.4565" y="-169.9" font-family="Times,serif" font-size="14.00" fill="#000000">Divergent Change</text>
<polyline fill="none" stroke="#000000" points="1172.2542,-161.7 1374.9022,-161.7 "/>
<text text-anchor="start" x="1188.4498" y="-145.1" font-family="Times,serif" font-size="14.00" fill="#000000">Large Class and Large Record</text>
<polyline fill="none" stroke="#000000" points="1172.2542,-136.9 1374.9022,-136.9 "/>
<text text-anchor="start" x="1180.2542" y="-120.3" font-family="Times,serif" font-size="14.00" fill="#000000">Long Function and Long Module</text>
<polyline fill="none" stroke="#000000" points="1172.2542,-112.1 1374.9022,-112.1 "/>
<text text-anchor="start" x="1209.6304" y="-95.5" font-family="Times,serif" font-size="14.00" fill="#000000">Speculative Generality</text>
</g>
<!-- SRP&#45;&gt;SRP Bad codes -->
<g id="edge17" class="edge">
<title>SRP-&gt;SRP Bad codes</title>
<path fill="none" stroke="#000000" d="M1475.1377,-344.8074C1449.7447,-336.1754 1411.9044,-320.7919 1384.5782,-298.6 1357.6528,-276.7336 1333.7842,-246.9397 1315.146,-219.7173"/>
<polygon fill="#000000" stroke="#000000" points="1318.0147,-217.7111 1309.5321,-211.3632 1312.2047,-221.6154 1318.0147,-217.7111"/>
</g>
<!-- SRP 重构方法 -->
<g id="node16" class="node">
<title>SRP 重构方法</title>
<polygon fill="none" stroke="#000000" points="1393.1069,-50.1 1393.1069,-248.5 1612.0495,-248.5 1612.0495,-50.1 1393.1069,-50.1"/>
<text text-anchor="start" x="1475.1676" y="-232.9" font-family="Times,serif" font-weight="bold" font-size="14.00" fill="#000000">重构方法</text>
<polyline fill="none" stroke="#000000" points="1393.1069,-223.7 1612.0495,-223.7 "/>
<text text-anchor="start" x="1465.4509" y="-207.1" font-family="Times,serif" font-size="14.00" fill="#000000">Extract Class</text>
<polyline fill="none" stroke="#000000" points="1393.1069,-198.9 1612.0495,-198.9 "/>
<text text-anchor="start" x="1455.7272" y="-182.3" font-family="Times,serif" font-size="14.00" fill="#000000">Extract Function</text>
<polyline fill="none" stroke="#000000" points="1393.1069,-174.1 1612.0495,-174.1 "/>
<text text-anchor="start" x="1434.9246" y="-157.5" font-family="Times,serif" font-size="14.00" fill="#000000">Remove Flag Argument</text>
<polyline fill="none" stroke="#000000" points="1393.1069,-149.3 1612.0495,-149.3 "/>
<text text-anchor="start" x="1401.1069" y="-132.7" font-family="Times,serif" font-size="14.00" fill="#000000">Replace Type Code with Subclasses</text>
<polyline fill="none" stroke="#000000" points="1393.1069,-124.5 1612.0495,-124.5 "/>
<text text-anchor="start" x="1417.2545" y="-107.9" font-family="Times,serif" font-size="14.00" fill="#000000">Separate Query from Modifier</text>
<polyline fill="none" stroke="#000000" points="1393.1069,-99.7 1612.0495,-99.7 "/>
<text text-anchor="start" x="1472.8247" y="-83.1" font-family="Times,serif" font-size="14.00" fill="#000000">Split Loop</text>
<polyline fill="none" stroke="#000000" points="1393.1069,-74.9 1612.0495,-74.9 "/>
<text text-anchor="start" x="1471.2728" y="-58.3" font-family="Times,serif" font-size="14.00" fill="#000000">Split Phase</text>
</g>
<!-- SRP&#45;&gt;SRP 重构方法 -->
<g id="edge18" class="edge">
<title>SRP-&gt;SRP 重构方法</title>
<path fill="none" stroke="#000000" d="M1502.5782,-335.0141C1502.5782,-317.2469 1502.5782,-288.5724 1502.5782,-259.0157"/>
<polygon fill="#000000" stroke="#000000" points="1506.0783,-258.9728 1502.5782,-248.9728 1499.0783,-258.9728 1506.0783,-258.9728"/>
</g>
<!-- SRP 设计模式 -->
<g id="node17" class="node">
<title>SRP 设计模式</title>
<polygon fill="none" stroke="#000000" points="1629.6683,-124.5 1629.6683,-174.1 1735.4881,-174.1 1735.4881,-124.5 1629.6683,-124.5"/>
<text text-anchor="start" x="1644.0824" y="-158.5" font-family="Times,serif" font-weight="bold" font-size="14.00" fill="#000000">设计模式</text>
<polyline fill="none" stroke="#000000" points="1629.6683,-149.3 1735.4881,-149.3 "/>
<text text-anchor="start" x="1637.6683" y="-132.7" font-family="Times,serif" font-size="14.00" fill="#000000">责任链模式</text>
</g>
<!-- SRP&#45;&gt;SRP 设计模式 -->
<g id="edge19" class="edge">
<title>SRP-&gt;SRP 设计模式</title>
<path fill="none" stroke="#000000" d="M1529.8519,-346.6946C1556.212,-339.2218 1595.7082,-324.4613 1620.5782,-298.6 1651.2108,-266.7464 1667.6164,-217.5949 1675.7075,-184.4751"/>
<polygon fill="#000000" stroke="#000000" points="1679.2109,-184.8585 1678.0498,-174.3275 1672.3903,-183.2841 1679.2109,-184.8585"/>
</g>
<!-- 意图与实现分离 Bad codes -->
<g id="node27" class="node">
<title>意图与实现分离 Bad codes</title>
<polygon fill="none" stroke="#000000" points="2198.041,-62.5 2198.041,-236.1 2329.1154,-236.1 2329.1154,-62.5 2198.041,-62.5"/>
<text text-anchor="start" x="2234.6157" y="-220.5" font-family="Times,serif" font-weight="bold" font-size="14.00" fill="#000000">Bad codes</text>
<polyline fill="none" stroke="#000000" points="2198.041,-211.3 2329.1154,-211.3 "/>
<text text-anchor="start" x="2227.0375" y="-194.7" font-family="Times,serif" font-size="14.00" fill="#000000">MutableData</text>
<polyline fill="none" stroke="#000000" points="2198.041,-186.5 2329.1154,-186.5 "/>
<text text-anchor="start" x="2217.8962" y="-169.9" font-family="Times,serif" font-size="14.00" fill="#000000">Message Chains</text>
<polyline fill="none" stroke="#000000" points="2198.041,-161.7 2329.1154,-161.7 "/>
<text text-anchor="start" x="2220.2335" y="-145.1" font-family="Times,serif" font-size="14.00" fill="#000000">Insider Trading</text>
<polyline fill="none" stroke="#000000" points="2198.041,-136.9 2329.1154,-136.9 "/>
<text text-anchor="start" x="2229.5638" y="-120.3" font-family="Times,serif" font-size="14.00" fill="#000000">Global Data</text>
<polyline fill="none" stroke="#000000" points="2198.041,-112.1 2329.1154,-112.1 "/>
<text text-anchor="start" x="2206.041" y="-95.5" font-family="Times,serif" font-size="14.00" fill="#000000">Long Parameter List</text>
<polyline fill="none" stroke="#000000" points="2198.041,-87.3 2329.1154,-87.3 "/>
<text text-anchor="start" x="2217.8962" y="-70.7" font-family="Times,serif" font-size="14.00" fill="#000000">Message Chains</text>
</g>
<!-- 意图与实现分离&#45;&gt;意图与实现分离 Bad codes -->
<g id="edge29" class="edge">
<title>意图与实现分离-&gt;意图与实现分离 Bad codes</title>
<path fill="none" stroke="#000000" d="M2339.2125,-335.0141C2330.9079,-314.6228 2316.752,-279.8641 2302.9172,-245.8939"/>
<polygon fill="#000000" stroke="#000000" points="2306.0421,-244.2873 2299.0288,-236.3461 2299.5592,-246.9277 2306.0421,-244.2873"/>
</g>
<!-- 意图与实现分离 重构方法 -->
<g id="node28" class="node">
<title>意图与实现分离 重构方法</title>
<polygon fill="none" stroke="#000000" points="2347.5217,-25.3 2347.5217,-273.3 2511.6347,-273.3 2511.6347,-25.3 2347.5217,-25.3"/>
<text text-anchor="start" x="2402.1676" y="-257.7" font-family="Times,serif" font-weight="bold" font-size="14.00" fill="#000000">重构方法</text>
<polyline fill="none" stroke="#000000" points="2347.5217,-248.5 2511.6347,-248.5 "/>
<text text-anchor="start" x="2364.8457" y="-231.9" font-family="Times,serif" font-size="14.00" fill="#000000">Encapsulate Collection</text>
<polyline fill="none" stroke="#000000" points="2347.5217,-223.7 2511.6347,-223.7 "/>
<text text-anchor="start" x="2373.7966" y="-207.1" font-family="Times,serif" font-size="14.00" fill="#000000">Encapsulate Record</text>
<polyline fill="none" stroke="#000000" points="2347.5217,-198.9 2511.6347,-198.9 "/>
<text text-anchor="start" x="2369.9137" y="-182.3" font-family="Times,serif" font-size="14.00" fill="#000000">Encapsulate Variable</text>
<polyline fill="none" stroke="#000000" points="2347.5217,-174.1 2511.6347,-174.1 "/>
<text text-anchor="start" x="2382.7272" y="-157.5" font-family="Times,serif" font-size="14.00" fill="#000000">Extract Function</text>
<polyline fill="none" stroke="#000000" points="2347.5217,-149.3 2511.6347,-149.3 "/>
<text text-anchor="start" x="2383.5203" y="-132.7" font-family="Times,serif" font-size="14.00" fill="#000000">Extract Variable</text>
<polyline fill="none" stroke="#000000" points="2347.5217,-124.5 2511.6347,-124.5 "/>
<text text-anchor="start" x="2389.3492" y="-107.9" font-family="Times,serif" font-size="14.00" fill="#000000">Hide Delegate</text>
<polyline fill="none" stroke="#000000" points="2347.5217,-99.7 2511.6347,-99.7 "/>
<text text-anchor="start" x="2355.5217" y="-83.1" font-family="Times,serif" font-size="14.00" fill="#000000">Replace Temp with Query</text>
<polyline fill="none" stroke="#000000" points="2347.5217,-74.9 2511.6347,-74.9 "/>
<text text-anchor="start" x="2356.4681" y="-58.3" font-family="Times,serif" font-size="14.00" fill="#000000">封装读取和设置方法</text>
<polyline fill="none" stroke="#000000" points="2347.5217,-50.1 2511.6347,-50.1 "/>
<text text-anchor="start" x="2372.1684" y="-33.5" font-family="Times,serif" font-size="14.00" fill="#000000">封装条件表达式</text>
</g>
<!-- 意图与实现分离&#45;&gt;意图与实现分离 重构方法 -->
<g id="edge30" class="edge">
<title>意图与实现分离-&gt;意图与实现分离 重构方法</title>
<path fill="none" stroke="#000000" d="M2353.9439,-335.0141C2359.1735,-322.1733 2366.7233,-303.6353 2375.0521,-283.1846"/>
<polygon fill="#000000" stroke="#000000" points="2378.3977,-284.2488 2378.9281,-273.6673 2371.9148,-281.6085 2378.3977,-284.2488"/>
</g>
<!-- 意图与实现分离 设计模式 -->
<g id="node29" class="node">
<title>意图与实现分离 设计模式</title>
<polygon fill="none" stroke="#000000" points="2530.0824,-112.1 2530.0824,-186.5 2623.074,-186.5 2623.074,-112.1 2530.0824,-112.1"/>
<text text-anchor="start" x="2538.0824" y="-170.9" font-family="Times,serif" font-weight="bold" font-size="14.00" fill="#000000">设计模式</text>
<polyline fill="none" stroke="#000000" points="2530.0824,-161.7 2623.074,-161.7 "/>
<text text-anchor="start" x="2544.4979" y="-145.1" font-family="Times,serif" font-size="14.00" fill="#000000">代理模式</text>
<polyline fill="none" stroke="#000000" points="2530.0824,-136.9 2623.074,-136.9 "/>
<text text-anchor="start" x="2538.6683" y="-120.3" font-family="Times,serif" font-size="14.00" fill="#000000">装饰模式</text>
</g>
<!-- 意图与实现分离&#45;&gt;意图与实现分离 设计模式 -->
<g id="edge31" class="edge">
<title>意图与实现分离-&gt;意图与实现分离 设计模式</title>
<path fill="none" stroke="#000000" d="M2397.7066,-342.3176C2442.342,-331.9898 2502.7003,-315.5156 2520.5782,-298.6 2548.9161,-271.7876 2563.0246,-229.2529 2569.9826,-196.4302"/>
<polygon fill="#000000" stroke="#000000" points="2573.4235,-197.0714 2571.9203,-186.5838 2566.5552,-195.7198 2573.4235,-197.0714"/>
</g>
<!-- 方便使用者 Bad codes -->
<g id="node23" class="node">
<title>方便使用者 Bad codes</title>
<polygon fill="none" stroke="#000000" points="384.041,-124.5 384.041,-174.1 515.1154,-174.1 515.1154,-124.5 384.041,-124.5"/>
<text text-anchor="start" x="420.6157" y="-158.5" font-family="Times,serif" font-weight="bold" font-size="14.00" fill="#000000">Bad codes</text>
<polyline fill="none" stroke="#000000" points="384.041,-149.3 515.1154,-149.3 "/>
<text text-anchor="start" x="392.041" y="-132.7" font-family="Times,serif" font-size="14.00" fill="#000000">Long Parameter List</text>
</g>
<!-- 方便使用者&#45;&gt;方便使用者 Bad codes -->
<g id="edge25" class="edge">
<title>方便使用者-&gt;方便使用者 Bad codes</title>
<path fill="none" stroke="#000000" d="M614.4736,-343.2767C585.5773,-335.3175 549.6715,-321.5447 524.5782,-298.6 490.5312,-267.4682 469.8405,-217.3918 459.0519,-183.9269"/>
<polygon fill="#000000" stroke="#000000" points="462.3156,-182.6337 456.0178,-174.1139 455.628,-184.7015 462.3156,-182.6337"/>
</g>
<!-- 方便使用者 重构方法 -->
<g id="node24" class="node">
<title>方便使用者 重构方法</title>
<polygon fill="none" stroke="#000000" points="533.2717,-87.3 533.2717,-211.3 791.8847,-211.3 791.8847,-87.3 533.2717,-87.3"/>
<text text-anchor="start" x="635.1676" y="-195.7" font-family="Times,serif" font-weight="bold" font-size="14.00" fill="#000000">重构方法</text>
<polyline fill="none" stroke="#000000" points="533.2717,-186.5 791.8847,-186.5 "/>
<text text-anchor="start" x="563.6178" y="-169.9" font-family="Times,serif" font-size="14.00" fill="#000000">Combine Functions into Transform</text>
<polyline fill="none" stroke="#000000" points="533.2717,-161.7 791.8847,-161.7 "/>
<text text-anchor="start" x="597.6637" y="-145.1" font-family="Times,serif" font-size="14.00" fill="#000000">Preserve Whole Object</text>
<polyline fill="none" stroke="#000000" points="533.2717,-136.9 791.8847,-136.9 "/>
<text text-anchor="start" x="541.2717" y="-120.3" font-family="Times,serif" font-size="14.00" fill="#000000">Replace Constructor with Factory Function</text>
<polyline fill="none" stroke="#000000" points="533.2717,-112.1 791.8847,-112.1 "/>
<text text-anchor="start" x="576.4789" y="-95.5" font-family="Times,serif" font-size="14.00" fill="#000000">Replace Parameter with Query</text>
</g>
<!-- 方便使用者&#45;&gt;方便使用者 重构方法 -->
<g id="edge26" class="edge">
<title>方便使用者-&gt;方便使用者 重构方法</title>
<path fill="none" stroke="#000000" d="M662.5782,-335.0141C662.5782,-309.6887 662.5782,-262.2021 662.5782,-221.5882"/>
<polygon fill="#000000" stroke="#000000" points="666.0783,-221.4284 662.5782,-211.4284 659.0783,-221.4284 666.0783,-221.4284"/>
</g>
<!-- 低耦合 Bad codes -->
<g id="node30" class="node">
<title>低耦合 Bad codes</title>
<polygon fill="none" stroke="#000000" points="1753.8962,-112.1 1753.8962,-186.5 1861.2602,-186.5 1861.2602,-112.1 1753.8962,-112.1"/>
<text text-anchor="start" x="1778.6157" y="-170.9" font-family="Times,serif" font-weight="bold" font-size="14.00" fill="#000000">Bad codes</text>
<polyline fill="none" stroke="#000000" points="1753.8962,-161.7 1861.2602,-161.7 "/>
<text text-anchor="start" x="1770.0631" y="-145.1" font-family="Times,serif" font-size="14.00" fill="#000000">Feature Envy</text>
<polyline fill="none" stroke="#000000" points="1753.8962,-136.9 1861.2602,-136.9 "/>
<text text-anchor="start" x="1761.8962" y="-120.3" font-family="Times,serif" font-size="14.00" fill="#000000">Message Chains</text>
</g>
<!-- 低耦合&#45;&gt;低耦合 Bad codes -->
<g id="edge32" class="edge">
<title>低耦合-&gt;低耦合 Bad codes</title>
<path fill="none" stroke="#000000" d="M1940.1225,-342.1574C1917.8958,-333.4137 1889.4386,-319.1848 1870.5782,-298.6 1844.2538,-269.8688 1827.9727,-228.5219 1818.5731,-196.6216"/>
<polygon fill="#000000" stroke="#000000" points="1821.8377,-195.3018 1815.7591,-186.6242 1815.0995,-197.1985 1821.8377,-195.3018"/>
</g>
<!-- 低耦合 重构方法 -->
<g id="node31" class="node">
<title>低耦合 重构方法</title>
<polygon fill="none" stroke="#000000" points="1879.4789,-112.1 1879.4789,-186.5 2067.6775,-186.5 2067.6775,-112.1 1879.4789,-112.1"/>
<text text-anchor="start" x="1946.1676" y="-170.9" font-family="Times,serif" font-weight="bold" font-size="14.00" fill="#000000">重构方法</text>
<polyline fill="none" stroke="#000000" points="1879.4789,-161.7 2067.6775,-161.7 "/>
<text text-anchor="start" x="1887.4789" y="-145.1" font-family="Times,serif" font-size="14.00" fill="#000000">Replace Query with Parameter</text>
<polyline fill="none" stroke="#000000" points="1879.4789,-136.9 2067.6775,-136.9 "/>
<text text-anchor="start" x="1909.8208" y="-120.3" font-family="Times,serif" font-size="14.00" fill="#000000">Split Parameter Object</text>
</g>
<!-- 低耦合&#45;&gt;低耦合 重构方法 -->
<g id="edge33" class="edge">
<title>低耦合-&gt;低耦合 重构方法</title>
<path fill="none" stroke="#000000" d="M1973.5782,-335.0141C1973.5782,-304.3506 1973.5782,-241.1988 1973.5782,-197.0941"/>
<polygon fill="#000000" stroke="#000000" points="1977.0783,-196.8804 1973.5782,-186.8804 1970.0783,-196.8805 1977.0783,-196.8804"/>
</g>
<!-- 低耦合 设计模式 -->
<g id="node32" class="node">
<title>低耦合 设计模式</title>
<polygon fill="none" stroke="#000000" points="2085.311,-124.5 2085.311,-174.1 2179.8454,-174.1 2179.8454,-124.5 2085.311,-124.5"/>
<text text-anchor="start" x="2094.0824" y="-158.5" font-family="Times,serif" font-weight="bold" font-size="14.00" fill="#000000">设计模式</text>
<polyline fill="none" stroke="#000000" points="2085.311,-149.3 2179.8454,-149.3 "/>
<text text-anchor="start" x="2093.311" y="-132.7" font-family="Times,serif" font-size="14.00" fill="#000000">中介者模式</text>
</g>
<!-- 低耦合&#45;&gt;低耦合 设计模式 -->
<g id="edge34" class="edge">
<title>低耦合-&gt;低耦合 设计模式</title>
<path fill="none" stroke="#000000" d="M2007.3017,-342.3979C2029.648,-333.7615 2058.138,-319.5621 2076.5782,-298.6 2105.2869,-265.9651 2119.8453,-217.2015 2126.8117,-184.3688"/>
<polygon fill="#000000" stroke="#000000" points="2130.2944,-184.8002 2128.815,-174.3092 2123.4292,-183.433 2130.2944,-184.8002"/>
</g>
<!-- ETM -->
<g id="node10" class="node">
<title>ETM</title>
<polygon fill="none" stroke="#000000" points="2055.5782,-408.1 2055.5782,-444.1 2109.5782,-444.1 2109.5782,-408.1 2055.5782,-408.1"/>
<text text-anchor="middle" x="2082.3531" y="-421.9" font-family="Times,serif" font-size="14.00" fill="#000000">ETM</text>
</g>
<!-- ETM&#45;&gt;高内聚 -->
<g id="edge9" class="edge">
<title>ETM-&gt;高内聚</title>
<path fill="none" stroke="#000000" d="M2055.3995,-424.1662C1914.7092,-414.1561 1269.1084,-368.2215 1098.193,-356.0609"/>
<polygon fill="#000000" stroke="#000000" points="1098.314,-352.5608 1088.0908,-355.3421 1097.8172,-359.5431 1098.314,-352.5608"/>
</g>
<!-- ETM&#45;&gt;SRP -->
<g id="edge10" class="edge">
<title>ETM-&gt;SRP</title>
<path fill="none" stroke="#000000" d="M2055.3815,-422.677C1961.098,-410.8102 1648.131,-371.4196 1539.8379,-357.7896"/>
<polygon fill="#000000" stroke="#000000" points="1540.0748,-354.2919 1529.716,-356.5156 1539.2006,-361.2371 1540.0748,-354.2919"/>
</g>
<!-- ETM&#45;&gt;意图与实现分离 -->
<g id="edge11" class="edge">
<title>ETM-&gt;意图与实现分离</title>
<path fill="none" stroke="#000000" d="M2109.8365,-418.5627C2151.0972,-407.1534 2230.4649,-385.2071 2285.8794,-369.8841"/>
<polygon fill="#000000" stroke="#000000" points="2286.8829,-373.2381 2295.5884,-367.1995 2285.0172,-366.4913 2286.8829,-373.2381"/>
</g>
<!-- ETM&#45;&gt;低耦合 -->
<g id="edge12" class="edge">
<title>ETM-&gt;低耦合</title>
<path fill="none" stroke="#000000" d="M2055.6344,-408.0551C2041.6162,-398.6667 2024.2972,-387.0678 2009.1885,-376.9491"/>
<polygon fill="#000000" stroke="#000000" points="2010.8462,-373.8469 2000.5898,-371.1904 2006.951,-379.6631 2010.8462,-373.8469"/>
</g>
<!-- OCP -->
<g id="node11" class="node">
<title>OCP</title>
<polygon fill="none" stroke="#000000" points="2755.5782,-335.1 2755.5782,-371.1 2809.5782,-371.1 2809.5782,-335.1 2755.5782,-335.1"/>
<text text-anchor="middle" x="2782.1911" y="-348.9" font-family="Times,serif" font-size="14.00" fill="#000000">OCP</text>
</g>
<!-- ETM&#45;&gt;OCP -->
<g id="edge13" class="edge">
<title>ETM-&gt;OCP</title>
<path fill="none" stroke="#000000" d="M2109.5901,-423.283C2217.7449,-412.004 2619.7285,-370.0829 2745.0322,-357.0155"/>
<polygon fill="#000000" stroke="#000000" points="2745.6862,-360.4664 2755.2692,-355.9479 2744.9601,-353.5041 2745.6862,-360.4664"/>
</g>
<!-- DRY -->
<g id="node12" class="node">
<title>DRY</title>
<polygon fill="none" stroke="#000000" points="3212.5782,-335.1 3212.5782,-371.1 3266.5782,-371.1 3266.5782,-335.1 3212.5782,-335.1"/>
<text text-anchor="middle" x="3239.3531" y="-348.9" font-family="Times,serif" font-size="14.00" fill="#000000">DRY</text>
</g>
<!-- ETM&#45;&gt;DRY -->
<g id="edge14" class="edge">
<title>ETM-&gt;DRY</title>
<path fill="none" stroke="#000000" d="M2109.7553,-424.3853C2263.53,-414.683 3023.9654,-366.7039 3202.1655,-355.4605"/>
<polygon fill="#000000" stroke="#000000" points="3202.5878,-358.9409 3212.3476,-354.8181 3202.147,-351.9548 3202.5878,-358.9409"/>
</g>
<!-- OCP Bad codes -->
<g id="node18" class="node">
<title>OCP Bad codes</title>
<polygon fill="none" stroke="#000000" points="2640.6157,-131.3 2640.6157,-167.3 2714.5407,-167.3 2714.5407,-131.3 2640.6157,-131.3"/>
<text text-anchor="start" x="2648.6157" y="-146.2" font-family="Times,serif" font-weight="bold" font-size="14.00" fill="#000000">Bad codes</text>
</g>
<!-- OCP&#45;&gt;OCP Bad codes -->
<g id="edge20" class="edge">
<title>OCP-&gt;OCP Bad codes</title>
<path fill="none" stroke="#000000" d="M2757.5687,-335.0453C2745.7904,-325.4057 2732.42,-312.642 2723.5782,-298.6 2699.662,-260.6179 2687.4439,-209.352 2681.7939,-177.8488"/>
<polygon fill="#000000" stroke="#000000" points="2685.1768,-176.8619 2680.0609,-167.5841 2678.2745,-178.0272 2685.1768,-176.8619"/>
</g>
<!-- OCP 重构方法 -->
<g id="node19" class="node">
<title>OCP 重构方法</title>
<polygon fill="none" stroke="#000000" points="2732.2366,-99.7 2732.2366,-198.9 3042.9198,-198.9 3042.9198,-99.7 2732.2366,-99.7"/>
<text text-anchor="start" x="2860.1676" y="-183.3" font-family="Times,serif" font-weight="bold" font-size="14.00" fill="#000000">重构方法</text>
<polyline fill="none" stroke="#000000" points="2732.2366,-174.1 3042.9198,-174.1 "/>
<text text-anchor="start" x="2824.4074" y="-157.5" font-family="Times,serif" font-size="14.00" fill="#000000">Parameterize Function</text>
<polyline fill="none" stroke="#000000" points="2732.2366,-149.3 3042.9198,-149.3 "/>
<text text-anchor="start" x="2818.5771" y="-132.7" font-family="Times,serif" font-size="14.00" fill="#000000">Parameterize Subroutine</text>
<polyline fill="none" stroke="#000000" points="2732.2366,-124.5 3042.9198,-124.5 "/>
<text text-anchor="start" x="2740.2366" y="-107.9" font-family="Times,serif" font-size="14.00" fill="#000000">Use decision table to replace complicated conditions</text>
</g>
<!-- OCP&#45;&gt;OCP 重构方法 -->
<g id="edge21" class="edge">
<title>OCP-&gt;OCP 重构方法</title>
<path fill="none" stroke="#000000" d="M2791.8962,-335.0141C2806.422,-306.8203 2835.0985,-251.1607 2857.2866,-208.0945"/>
<polygon fill="#000000" stroke="#000000" points="2860.4467,-209.6028 2861.9154,-199.1103 2854.224,-206.3968 2860.4467,-209.6028"/>
</g>
<!-- OCP 设计模式 -->
<g id="node20" class="node">
<title>OCP 设计模式</title>
<polygon fill="none" stroke="#000000" points="3060.6683,-99.7 3060.6683,-198.9 3166.4881,-198.9 3166.4881,-99.7 3060.6683,-99.7"/>
<text text-anchor="start" x="3075.0824" y="-183.3" font-family="Times,serif" font-weight="bold" font-size="14.00" fill="#000000">设计模式</text>
<polyline fill="none" stroke="#000000" points="3060.6683,-174.1 3166.4881,-174.1 "/>
<text text-anchor="start" x="3068.6683" y="-157.5" font-family="Times,serif" font-size="14.00" fill="#000000">责任链模式</text>
<polyline fill="none" stroke="#000000" points="3060.6683,-149.3 3166.4881,-149.3 "/>
<text text-anchor="start" x="3083.5776" y="-132.7" font-family="Times,serif" font-size="14.00" fill="#000000">状态模式</text>
<polyline fill="none" stroke="#000000" points="3060.6683,-124.5 3166.4881,-124.5 "/>
<text text-anchor="start" x="3082.6676" y="-107.9" font-family="Times,serif" font-size="14.00" fill="#000000">策略模式</text>
</g>
<!-- OCP&#45;&gt;OCP 设计模式 -->
<g id="edge22" class="edge">
<title>OCP-&gt;OCP 设计模式</title>
<path fill="none" stroke="#000000" d="M2809.8248,-350.8059C2870.5781,-345.1917 3014.6921,-328.9534 3051.5782,-298.6 3078.6626,-276.3124 3094.0787,-240.2042 3102.7643,-209.0809"/>
<polygon fill="#000000" stroke="#000000" points="3106.2108,-209.7351 3105.354,-199.1749 3099.4384,-207.9645 3106.2108,-209.7351"/>
</g>
<!-- DRY Bad codes -->
<g id="node21" class="node">
<title>DRY Bad codes</title>
<polygon fill="none" stroke="#000000" points="3184.3415,-124.5 3184.3415,-174.1 3294.8149,-174.1 3294.8149,-124.5 3184.3415,-124.5"/>
<text text-anchor="start" x="3210.6157" y="-158.5" font-family="Times,serif" font-weight="bold" font-size="14.00" fill="#000000">Bad codes</text>
<polyline fill="none" stroke="#000000" points="3184.3415,-149.3 3294.8149,-149.3 "/>
<text text-anchor="start" x="3192.3415" y="-132.7" font-family="Times,serif" font-size="14.00" fill="#000000">Duplicated Code</text>
</g>
<!-- DRY&#45;&gt;DRY Bad codes -->
<g id="edge23" class="edge">
<title>DRY-&gt;DRY Bad codes</title>
<path fill="none" stroke="#000000" d="M3239.5782,-335.0141C3239.5782,-301.2654 3239.5782,-228.162 3239.5782,-184.4123"/>
<polygon fill="#000000" stroke="#000000" points="3243.0783,-184.2277 3239.5782,-174.2277 3236.0783,-184.2278 3243.0783,-184.2277"/>
</g>
<!-- DRY 重构方法 -->
<g id="node22" class="node">
<title>DRY 重构方法</title>
<polygon fill="none" stroke="#000000" points="3312.4214,-99.7 3312.4214,-198.9 3482.735,-198.9 3482.735,-99.7 3312.4214,-99.7"/>
<text text-anchor="start" x="3370.1676" y="-183.3" font-family="Times,serif" font-weight="bold" font-size="14.00" fill="#000000">重构方法</text>
<polyline fill="none" stroke="#000000" points="3312.4214,-174.1 3482.735,-174.1 "/>
<text text-anchor="start" x="3320.4214" y="-157.5" font-family="Times,serif" font-size="14.00" fill="#000000">Change Value to Reference</text>
<polyline fill="none" stroke="#000000" points="3312.4214,-149.3 3482.735,-149.3 "/>
<text text-anchor="start" x="3334.4074" y="-132.7" font-family="Times,serif" font-size="14.00" fill="#000000">Parameterize Function</text>
<polyline fill="none" stroke="#000000" points="3312.4214,-124.5 3482.735,-124.5 "/>
<text text-anchor="start" x="3328.5771" y="-107.9" font-family="Times,serif" font-size="14.00" fill="#000000">Parameterize Subroutine</text>
</g>
<!-- DRY&#45;&gt;DRY 重构方法 -->
<g id="edge24" class="edge">
<title>DRY-&gt;DRY 重构方法</title>
<path fill="none" stroke="#000000" d="M3264.2467,-334.9989C3276.8419,-325.0684 3291.9234,-312.0599 3303.5782,-298.6 3327.5631,-270.9004 3349.6579,-236.4876 3366.3917,-207.6838"/>
<polygon fill="#000000" stroke="#000000" points="3369.4685,-209.3541 3371.409,-198.9385 3363.3968,-205.8706 3369.4685,-209.3541"/>
</g>
<!-- ETC -->
<g id="node13" class="node">
<title>ETC</title>
<polygon fill="none" stroke="#000000" points="2919.5782,-408.1 2919.5782,-444.1 2973.5782,-444.1 2973.5782,-408.1 2919.5782,-408.1"/>
<text text-anchor="middle" x="2946.2991" y="-421.9" font-family="Times,serif" font-size="14.00" fill="#000000">ETC</text>
</g>
<!-- ETC&#45;&gt;意图与实现分离 -->
<g id="edge15" class="edge">
<title>ETC-&gt;意图与实现分离</title>
<path fill="none" stroke="#000000" d="M2919.2383,-422.7736C2828.5042,-411.7343 2535.8561,-376.1288 2407.6754,-360.5335"/>
<polygon fill="#000000" stroke="#000000" points="2407.9802,-357.0449 2397.6307,-359.3114 2407.1347,-363.9936 2407.9802,-357.0449"/>
</g>
<!-- 消除非必要的可变性 -->
<g id="node14" class="node">
<title>消除非必要的可变性</title>
<polygon fill="none" stroke="#000000" points="3474.3581,-335.1 3474.3581,-371.1 3618.7983,-371.1 3618.7983,-335.1 3474.3581,-335.1"/>
<text text-anchor="middle" x="3546.5782" y="-348.9" font-family="Times,serif" font-size="14.00" fill="#000000">消除非必要的可变性</text>
</g>
<!-- ETC&#45;&gt;消除非必要的可变性 -->
<g id="edge16" class="edge">
<title>ETC-&gt;消除非必要的可变性</title>
<path fill="none" stroke="#000000" d="M2973.9181,-422.7736C3059.9138,-412.3108 3327.285,-379.7807 3464.1056,-363.1342"/>
<polygon fill="#000000" stroke="#000000" points="3464.6232,-366.5971 3474.1272,-361.9149 3463.7777,-359.6483 3464.6232,-366.5971"/>
</g>
<!-- 消除非必要的可变性 Bad codes -->
<g id="node25" class="node">
<title>消除非必要的可变性 Bad codes</title>
<polygon fill="none" stroke="#000000" points="3500.2875,-112.1 3500.2875,-186.5 3592.8689,-186.5 3592.8689,-112.1 3500.2875,-112.1"/>
<text text-anchor="start" x="3517.6157" y="-170.9" font-family="Times,serif" font-weight="bold" font-size="14.00" fill="#000000">Bad codes</text>
<polyline fill="none" stroke="#000000" points="3500.2875,-161.7 3592.8689,-161.7 "/>
<text text-anchor="start" x="3512.5638" y="-145.1" font-family="Times,serif" font-size="14.00" fill="#000000">Global Data</text>
<polyline fill="none" stroke="#000000" points="3500.2875,-136.9 3592.8689,-136.9 "/>
<text text-anchor="start" x="3508.2875" y="-120.3" font-family="Times,serif" font-size="14.00" fill="#000000">Mutable Data</text>
</g>
<!-- 消除非必要的可变性&#45;&gt;消除非必要的可变性 Bad codes -->
<g id="edge27" class="edge">
<title>消除非必要的可变性-&gt;消除非必要的可变性 Bad codes</title>
<path fill="none" stroke="#000000" d="M3546.5782,-335.0141C3546.5782,-304.3506 3546.5782,-241.1988 3546.5782,-197.0941"/>
<polygon fill="#000000" stroke="#000000" points="3550.0783,-196.8804 3546.5782,-186.8804 3543.0783,-196.8805 3550.0783,-196.8804"/>
</g>
<!-- 消除非必要的可变性 重构方法 -->
<g id="node26" class="node">
<title>消除非必要的可变性 重构方法</title>
<polygon fill="none" stroke="#000000" points="3610.461,-62.5 3610.461,-236.1 3838.6954,-236.1 3838.6954,-62.5 3610.461,-62.5"/>
<text text-anchor="start" x="3697.1676" y="-220.5" font-family="Times,serif" font-weight="bold" font-size="14.00" fill="#000000">重构方法</text>
<polyline fill="none" stroke="#000000" points="3610.461,-211.3 3838.6954,-211.3 "/>
<text text-anchor="start" x="3647.4214" y="-194.7" font-family="Times,serif" font-size="14.00" fill="#000000">Change Reference to Value</text>
<polyline fill="none" stroke="#000000" points="3610.461,-186.5 3838.6954,-186.5 "/>
<text text-anchor="start" x="3679.2798" y="-169.9" font-family="Times,serif" font-size="14.00" fill="#000000">Pure Subroutine</text>
<polyline fill="none" stroke="#000000" points="3610.461,-161.7 3838.6954,-161.7 "/>
<text text-anchor="start" x="3656.1406" y="-145.1" font-family="Times,serif" font-size="14.00" fill="#000000">Remove Setting Method</text>
<polyline fill="none" stroke="#000000" points="3610.461,-136.9 3838.6954,-136.9 "/>
<text text-anchor="start" x="3618.461" y="-120.3" font-family="Times,serif" font-size="14.00" fill="#000000">Replace Derived Variable with Query</text>
<polyline fill="none" stroke="#000000" points="3610.461,-112.1 3838.6954,-112.1 "/>
<text text-anchor="start" x="3682.4893" y="-95.5" font-family="Times,serif" font-size="14.00" fill="#000000">缩小变量范围</text>
<polyline fill="none" stroke="#000000" points="3610.461,-87.3 3838.6954,-87.3 "/>
<text text-anchor="start" x="3650.3194" y="-70.7" font-family="Times,serif" font-size="14.00" fill="#000000">用常量代替基础类型值</text>
</g>
<!-- 消除非必要的可变性&#45;&gt;消除非必要的可变性 重构方法 -->
<g id="edge28" class="edge">
<title>消除非必要的可变性-&gt;消除非必要的可变性 重构方法</title>
<path fill="none" stroke="#000000" d="M3565.8918,-334.8918C3576.6611,-324.5112 3590.1632,-311.1132 3601.5782,-298.6 3617.3226,-281.341 3633.5925,-262.4377 3648.9398,-244.0581"/>
<polygon fill="#000000" stroke="#000000" points="3651.755,-246.1467 3655.4565,-236.2195 3646.3722,-241.6717 3651.755,-246.1467"/>
</g>
</g>
</svg>