<?xml version="1.0" encoding="UTF-8" standalone="no"?>
<!DOCTYPE svg PUBLIC "-//W3C//DTD SVG 1.1//EN"
 "http://www.w3.org/Graphics/SVG/1.1/DTD/svg11.dtd">
<!-- Generated by graphviz version 2.40.1 (20161225.0304)
 -->
<!-- Title: G Pages: 1 -->
<svg width="3777pt" height="453pt"
 viewBox="0.00 0.00 3776.76 452.60" xmlns="http://www.w3.org/2000/svg" xmlns:xlink="http://www.w3.org/1999/xlink">
<g id="graph0" class="graph" transform="scale(1 1) rotate(0) translate(4 448.6)">
<title>G</title>
<polygon fill="#ffffff" stroke="transparent" points="-4,4 -4,-448.6 3772.762,-448.6 3772.762,4 -4,4"/>
<!-- YAGNI -->
<g id="node1" class="node">
<title>YAGNI</title>
<polygon fill="none" stroke="#000000" points="644.9278,-408.1 644.9278,-444.1 706.0148,-444.1 706.0148,-408.1 644.9278,-408.1"/>
<text text-anchor="middle" x="675.4713" y="-421.9" font-family="Times,serif" font-size="14.00" fill="#000000">YAGNI</text>
</g>
<!-- ETR -->
<g id="node2" class="node">
<title>ETR</title>
<polygon fill="none" stroke="#000000" points="724.4713,-408.1 724.4713,-444.1 778.4713,-444.1 778.4713,-408.1 724.4713,-408.1"/>
<text text-anchor="middle" x="751.1922" y="-421.9" font-family="Times,serif" font-size="14.00" fill="#000000">ETR</text>
</g>
<!-- 语义化 -->
<g id="node3" class="node">
<title>语义化</title>
<polygon fill="none" stroke="#000000" points="436.1161,-335.1 436.1161,-371.1 496.8265,-371.1 496.8265,-335.1 436.1161,-335.1"/>
<text text-anchor="middle" x="466.4713" y="-348.9" font-family="Times,serif" font-size="14.00" fill="#000000">语义化</text>
</g>
<!-- ETR&#45;&gt;语义化 -->
<g id="edge1" class="edge">
<title>ETR&#45;&gt;语义化</title>
<path fill="none" stroke="#000000" d="M724.2823,-411.2035C721.3538,-409.8788 718.3809,-408.6459 715.4713,-407.6 644.3241,-382.0246 557.2389,-366.3123 507.177,-358.6893"/>
<polygon fill="#000000" stroke="#000000" points="507.4819,-355.1962 497.0754,-357.1848 506.4506,-362.1198 507.4819,-355.1962"/>
</g>
<!-- 高内聚 -->
<g id="node4" class="node">
<title>高内聚</title>
<polygon fill="none" stroke="#000000" points="1077.1417,-335.1 1077.1417,-371.1 1139.8009,-371.1 1139.8009,-335.1 1077.1417,-335.1"/>
<text text-anchor="middle" x="1108.4713" y="-348.9" font-family="Times,serif" font-size="14.00" fill="#000000">高内聚</text>
</g>
<!-- ETR&#45;&gt;高内聚 -->
<g id="edge2" class="edge">
<title>ETR&#45;&gt;高内聚</title>
<path fill="none" stroke="#000000" d="M778.5973,-420.5532C840.6827,-407.8579 993.4308,-376.6237 1067.2344,-361.5322"/>
<polygon fill="#000000" stroke="#000000" points="1068.0107,-364.946 1077.1068,-359.5135 1066.6083,-358.0879 1068.0107,-364.946"/>
</g>
<!-- 语义化 Bad codes -->
<g id="node34" class="node">
<title>语义化 Bad codes</title>
<polygon fill="none" stroke="#000000" points="236.8931,-74.9 236.8931,-223.7 366.0495,-223.7 366.0495,-74.9 236.8931,-74.9"/>
<text text-anchor="start" x="272.5088" y="-208.1" font-family="Times,serif" font-weight="bold" font-size="14.00" fill="#000000">Bad codes</text>
<polyline fill="none" stroke="#000000" points="236.8931,-198.9 366.0495,-198.9 "/>
<text text-anchor="start" x="264.7269" y="-182.3" font-family="Times,serif" font-size="14.00" fill="#000000">Data Clumps</text>
<polyline fill="none" stroke="#000000" points="236.8931,-174.1 366.0495,-174.1 "/>
<text text-anchor="start" x="251.513" y="-157.5" font-family="Times,serif" font-size="14.00" fill="#000000">Mysterious Name</text>
<polyline fill="none" stroke="#000000" points="236.8931,-149.3 366.0495,-149.3 "/>
<text text-anchor="start" x="244.8931" y="-132.7" font-family="Times,serif" font-size="14.00" fill="#000000">Primitive Obsession</text>
<polyline fill="none" stroke="#000000" points="236.8931,-124.5 366.0495,-124.5 "/>
<text text-anchor="start" x="254.2353" y="-107.9" font-family="Times,serif" font-size="14.00" fill="#000000">Refused Bequest</text>
<polyline fill="none" stroke="#000000" points="236.8931,-99.7 366.0495,-99.7 "/>
<text text-anchor="start" x="274.83" y="-83.1" font-family="Times,serif" font-size="14.00" fill="#000000">极简代码</text>
</g>
<!-- 语义化&#45;&gt;语义化 Bad codes -->
<g id="edge36" class="edge">
<title>语义化&#45;&gt;语义化 Bad codes</title>
<path fill="none" stroke="#000000" d="M436.0045,-340.3235C416.7223,-331.0206 392.3384,-316.8634 375.4713,-298.6 358.0572,-279.7443 343.8253,-256.0255 332.6615,-233.0793"/>
<polygon fill="#000000" stroke="#000000" points="335.8087,-231.5472 328.3776,-223.9954 329.4774,-234.533 335.8087,-231.5472"/>
</g>
<!-- 语义化 重构方法 -->
<g id="node35" class="node">
<title>语义化 重构方法</title>
<polygon fill="none" stroke="#000000" points="0,-.5 0,-298.1 218.9426,-298.1 218.9426,-.5 0,-.5"/>
<text text-anchor="start" x="82.0607" y="-282.5" font-family="Times,serif" font-weight="bold" font-size="14.00" fill="#000000">重构方法</text>
<polyline fill="none" stroke="#000000" points="0,-273.3 218.9426,-273.3 "/>
<text text-anchor="start" x="27.0505" y="-256.7" font-family="Times,serif" font-size="14.00" fill="#000000">Change Function Declaration</text>
<polyline fill="none" stroke="#000000" points="0,-248.5 218.9426,-248.5 "/>
<text text-anchor="start" x="20.2479" y="-231.9" font-family="Times,serif" font-size="14.00" fill="#000000">Combine Variables Into Record</text>
<polyline fill="none" stroke="#000000" points="0,-223.7 218.9426,-223.7 "/>
<text text-anchor="start" x="32.1206" y="-207.1" font-family="Times,serif" font-size="14.00" fill="#000000">Introduce Parameter Object</text>
<polyline fill="none" stroke="#000000" points="0,-198.9 218.9426,-198.9 "/>
<text text-anchor="start" x="44.5568" y="-182.3" font-family="Times,serif" font-size="14.00" fill="#000000">Preserve Whole Object</text>
<polyline fill="none" stroke="#000000" points="0,-174.1 218.9426,-174.1 "/>
<text text-anchor="start" x="60.6897" y="-157.5" font-family="Times,serif" font-size="14.00" fill="#000000">Rename Variable</text>
<polyline fill="none" stroke="#000000" points="0,-149.3 218.9426,-149.3 "/>
<text text-anchor="start" x="24.5207" y="-132.7" font-family="Times,serif" font-size="14.00" fill="#000000">Replace Primitive with Object</text>
<polyline fill="none" stroke="#000000" points="0,-124.5 218.9426,-124.5 "/>
<text text-anchor="start" x="19.8657" y="-107.9" font-family="Times,serif" font-size="14.00" fill="#000000">Replace Subclass with Delegate</text>
<polyline fill="none" stroke="#000000" points="0,-99.7 218.9426,-99.7 "/>
<text text-anchor="start" x="14.4281" y="-83.1" font-family="Times,serif" font-size="14.00" fill="#000000">Replace Superclass with Delegate</text>
<polyline fill="none" stroke="#000000" points="0,-74.9 218.9426,-74.9 "/>
<text text-anchor="start" x="8" y="-58.3" font-family="Times,serif" font-size="14.00" fill="#000000">Replace Type Code with Subclasses</text>
<polyline fill="none" stroke="#000000" points="0,-50.1 218.9426,-50.1 "/>
<text text-anchor="start" x="38.6929" y="-33.5" font-family="Times,serif" font-size="14.00" fill="#000000">严格设置默认值</text>
<polyline fill="none" stroke="#000000" points="0,-25.3 218.9426,-25.3 "/>
<text text-anchor="start" x="35.2125" y="-8.7" font-family="Times,serif" font-size="14.00" fill="#000000">用常量代替基础类型值</text>
</g>
<!-- 语义化&#45;&gt;语义化 重构方法 -->
<g id="edge37" class="edge">
<title>语义化&#45;&gt;语义化 重构方法</title>
<path fill="none" stroke="#000000" d="M436.0449,-348.7398C383.3094,-340.7932 276.5801,-322.896 228.0934,-298.0993"/>
<polygon fill="#000000" stroke="#000000" points="229.6294,-294.9466 219.2059,-293.0489 226.171,-301.0326 229.6294,-294.9466"/>
</g>
<!-- 高内聚 Bad codes -->
<g id="node32" class="node">
<title>高内聚 Bad codes</title>
<polygon fill="none" stroke="#000000" points="1042.9341,-74.9 1042.9341,-223.7 1174.0085,-223.7 1174.0085,-74.9 1042.9341,-74.9"/>
<text text-anchor="start" x="1079.5088" y="-208.1" font-family="Times,serif" font-weight="bold" font-size="14.00" fill="#000000">Bad codes</text>
<polyline fill="none" stroke="#000000" points="1042.9341,-198.9 1174.0085,-198.9 "/>
<text text-anchor="start" x="1078.3426" y="-182.3" font-family="Times,serif" font-size="14.00" fill="#000000">Data Class</text>
<polyline fill="none" stroke="#000000" points="1042.9341,-174.1 1174.0085,-174.1 "/>
<text text-anchor="start" x="1071.7269" y="-157.5" font-family="Times,serif" font-size="14.00" fill="#000000">Data Clumps</text>
<polyline fill="none" stroke="#000000" points="1042.9341,-149.3 1174.0085,-149.3 "/>
<text text-anchor="start" x="1070.9562" y="-132.7" font-family="Times,serif" font-size="14.00" fill="#000000">Feature Envy</text>
<polyline fill="none" stroke="#000000" points="1042.9341,-124.5 1174.0085,-124.5 "/>
<text text-anchor="start" x="1050.9341" y="-107.9" font-family="Times,serif" font-size="14.00" fill="#000000">Long Parameter List</text>
<polyline fill="none" stroke="#000000" points="1042.9341,-99.7 1174.0085,-99.7 "/>
<text text-anchor="start" x="1061.2255" y="-83.1" font-family="Times,serif" font-size="14.00" fill="#000000">Shotgun Surgery</text>
</g>
<!-- 高内聚&#45;&gt;高内聚 Bad codes -->
<g id="edge34" class="edge">
<title>高内聚&#45;&gt;高内聚 Bad codes</title>
<path fill="none" stroke="#000000" d="M1108.4713,-335.0141C1108.4713,-312.3076 1108.4713,-271.7861 1108.4713,-234.376"/>
<polygon fill="#000000" stroke="#000000" points="1111.9714,-233.9243 1108.4713,-223.9243 1104.9714,-233.9243 1111.9714,-233.9243"/>
</g>
<!-- 高内聚 重构方法 -->
<g id="node33" class="node">
<title>高内聚 重构方法</title>
<polygon fill="none" stroke="#000000" points="810.1259,-25.3 810.1259,-273.3 1024.8167,-273.3 1024.8167,-25.3 810.1259,-25.3"/>
<text text-anchor="start" x="890.0607" y="-257.7" font-family="Times,serif" font-weight="bold" font-size="14.00" fill="#000000">重构方法</text>
<polyline fill="none" stroke="#000000" points="810.1259,-248.5 1024.8167,-248.5 "/>
<text text-anchor="start" x="832.5025" y="-231.9" font-family="Times,serif" font-size="14.00" fill="#000000">Combine Functions Into Class</text>
<polyline fill="none" stroke="#000000" points="810.1259,-223.7 1024.8167,-223.7 "/>
<text text-anchor="start" x="818.1259" y="-207.1" font-family="Times,serif" font-size="14.00" fill="#000000">Combine Functions Into Transform</text>
<polyline fill="none" stroke="#000000" points="810.1259,-198.9 1024.8167,-198.9 "/>
<text text-anchor="start" x="828.2479" y="-182.3" font-family="Times,serif" font-size="14.00" fill="#000000">Combine Variables Into Record</text>
<polyline fill="none" stroke="#000000" points="810.1259,-174.1 1024.8167,-174.1 "/>
<text text-anchor="start" x="884.2276" y="-157.5" font-family="Times,serif" font-size="14.00" fill="#000000">Inline Class</text>
<polyline fill="none" stroke="#000000" points="810.1259,-149.3 1024.8167,-149.3 "/>
<text text-anchor="start" x="874.5039" y="-132.7" font-family="Times,serif" font-size="14.00" fill="#000000">Inline Function</text>
<polyline fill="none" stroke="#000000" points="810.1259,-124.5 1024.8167,-124.5 "/>
<text text-anchor="start" x="840.1206" y="-107.9" font-family="Times,serif" font-size="14.00" fill="#000000">Introduce Parameter Object</text>
<polyline fill="none" stroke="#000000" points="810.1259,-99.7 1024.8167,-99.7 "/>
<text text-anchor="start" x="829.3952" y="-83.1" font-family="Times,serif" font-size="14.00" fill="#000000">Move Statements into Function</text>
<polyline fill="none" stroke="#000000" points="810.1259,-74.9 1024.8167,-74.9 "/>
<text text-anchor="start" x="852.5568" y="-58.3" font-family="Times,serif" font-size="14.00" fill="#000000">Preserve Whole Object</text>
<polyline fill="none" stroke="#000000" points="810.1259,-50.1 1024.8167,-50.1 "/>
<text text-anchor="start" x="832.5207" y="-33.5" font-family="Times,serif" font-size="14.00" fill="#000000">Replace Primitive with Object</text>
</g>
<!-- 高内聚&#45;&gt;高内聚 重构方法 -->
<g id="edge35" class="edge">
<title>高内聚&#45;&gt;高内聚 重构方法</title>
<path fill="none" stroke="#000000" d="M1079.5704,-334.9199C1064.9826,-325.0648 1047.4621,-312.1483 1033.4713,-298.6 1027.7513,-293.0609 1022.0737,-287.231 1016.482,-281.2151"/>
<polygon fill="#000000" stroke="#000000" points="1018.773,-278.5332 1009.4482,-273.5034 1013.6012,-283.2504 1018.773,-278.5332"/>
</g>
<!-- ETU -->
<g id="node5" class="node">
<title>ETU</title>
<polygon fill="none" stroke="#000000" points="1288.4713,-408.1 1288.4713,-444.1 1342.4713,-444.1 1342.4713,-408.1 1288.4713,-408.1"/>
<text text-anchor="middle" x="1315.0772" y="-421.9" font-family="Times,serif" font-size="14.00" fill="#000000">ETU</text>
</g>
<!-- ETU&#45;&gt;语义化 -->
<g id="edge3" class="edge">
<title>ETU&#45;&gt;语义化</title>
<path fill="none" stroke="#000000" d="M1288.3874,-423.8806C1199.6201,-416.5925 909.4089,-392.6541 669.4713,-371.6 613.2042,-366.6627 548.1907,-360.6908 507.2083,-356.8935"/>
<polygon fill="#000000" stroke="#000000" points="507.3543,-353.3921 497.0738,-355.9534 506.7077,-360.3622 507.3543,-353.3921"/>
</g>
<!-- ETU&#45;&gt;高内聚 -->
<g id="edge4" class="edge">
<title>ETU&#45;&gt;高内聚</title>
<path fill="none" stroke="#000000" d="M1288.4097,-416.5565C1253.0016,-404.0696 1190.6262,-382.0725 1149.4194,-367.5406"/>
<polygon fill="#000000" stroke="#000000" points="1150.5366,-364.2234 1139.9418,-364.1983 1148.2085,-370.8249 1150.5366,-364.2234"/>
</g>
<!-- SRP -->
<g id="node6" class="node">
<title>SRP</title>
<polygon fill="none" stroke="#000000" points="1495.4713,-335.1 1495.4713,-371.1 1549.4713,-371.1 1549.4713,-335.1 1495.4713,-335.1"/>
<text text-anchor="middle" x="1522.4222" y="-348.9" font-family="Times,serif" font-size="14.00" fill="#000000">SRP</text>
</g>
<!-- ETU&#45;&gt;SRP -->
<g id="edge5" class="edge">
<title>ETU&#45;&gt;SRP</title>
<path fill="none" stroke="#000000" d="M1342.5329,-416.5565C1379.1825,-403.6318 1444.7234,-380.5183 1485.7774,-366.0404"/>
<polygon fill="#000000" stroke="#000000" points="1487.1363,-369.2725 1495.403,-362.6458 1484.8082,-362.6709 1487.1363,-369.2725"/>
</g>
<!-- 意图与实现分离 -->
<g id="node7" class="node">
<title>意图与实现分离</title>
<polygon fill="none" stroke="#000000" points="2315.4997,-335.1 2315.4997,-371.1 2417.4429,-371.1 2417.4429,-335.1 2315.4997,-335.1"/>
<text text-anchor="middle" x="2366.4713" y="-348.9" font-family="Times,serif" font-size="14.00" fill="#000000">意图与实现分离</text>
</g>
<!-- ETU&#45;&gt;意图与实现分离 -->
<g id="edge6" class="edge">
<title>ETU&#45;&gt;意图与实现分离</title>
<path fill="none" stroke="#000000" d="M1342.5074,-424.2221C1480.3581,-414.6473 2106.1993,-371.1779 2305.3912,-357.3425"/>
<polygon fill="#000000" stroke="#000000" points="2305.656,-360.8326 2315.3895,-356.648 2305.1709,-353.8494 2305.656,-360.8326"/>
</g>
<!-- 方便使用者 -->
<g id="node8" class="node">
<title>方便使用者</title>
<polygon fill="none" stroke="#000000" points="678.6231,-335.1 678.6231,-371.1 774.3195,-371.1 774.3195,-335.1 678.6231,-335.1"/>
<text text-anchor="middle" x="726.4713" y="-348.9" font-family="Times,serif" font-size="14.00" fill="#000000">方便使用者</text>
</g>
<!-- ETU&#45;&gt;方便使用者 -->
<g id="edge7" class="edge">
<title>ETU&#45;&gt;方便使用者</title>
<path fill="none" stroke="#000000" d="M1288.2439,-422.7255C1198.3492,-411.584 909.6607,-375.8043 784.8577,-360.3363"/>
<polygon fill="#000000" stroke="#000000" points="785.0834,-356.8376 774.7288,-359.081 784.2223,-363.7845 785.0834,-356.8376"/>
</g>
<!-- 低耦合 -->
<g id="node9" class="node">
<title>低耦合</title>
<polygon fill="none" stroke="#000000" points="1960.195,-335.1 1960.195,-371.1 2026.7476,-371.1 2026.7476,-335.1 1960.195,-335.1"/>
<text text-anchor="middle" x="1993.4713" y="-348.9" font-family="Times,serif" font-size="14.00" fill="#000000">低耦合</text>
</g>
<!-- ETU&#45;&gt;低耦合 -->
<g id="edge8" class="edge">
<title>ETU&#45;&gt;低耦合</title>
<path fill="none" stroke="#000000" d="M1342.8894,-423.1479C1447.3482,-411.9009 1820.9814,-371.6719 1949.5996,-357.8236"/>
<polygon fill="#000000" stroke="#000000" points="1950.2868,-361.27 1959.8546,-356.7195 1949.5374,-354.3102 1950.2868,-361.27"/>
</g>
<!-- SRP Bad codes -->
<g id="node15" class="node">
<title>SRP Bad codes</title>
<polygon fill="none" stroke="#000000" points="1192.1473,-87.3 1192.1473,-211.3 1394.7953,-211.3 1394.7953,-87.3 1192.1473,-87.3"/>
<text text-anchor="start" x="1264.5088" y="-195.7" font-family="Times,serif" font-weight="bold" font-size="14.00" fill="#000000">Bad codes</text>
<polyline fill="none" stroke="#000000" points="1192.1473,-186.5 1394.7953,-186.5 "/>
<text text-anchor="start" x="1242.3496" y="-169.9" font-family="Times,serif" font-size="14.00" fill="#000000">Divergent Change</text>
<polyline fill="none" stroke="#000000" points="1192.1473,-161.7 1394.7953,-161.7 "/>
<text text-anchor="start" x="1208.3429" y="-145.1" font-family="Times,serif" font-size="14.00" fill="#000000">Large Class and Large Record</text>
<polyline fill="none" stroke="#000000" points="1192.1473,-136.9 1394.7953,-136.9 "/>
<text text-anchor="start" x="1200.1473" y="-120.3" font-family="Times,serif" font-size="14.00" fill="#000000">Long Function and Long Module</text>
<polyline fill="none" stroke="#000000" points="1192.1473,-112.1 1394.7953,-112.1 "/>
<text text-anchor="start" x="1229.5235" y="-95.5" font-family="Times,serif" font-size="14.00" fill="#000000">Speculative Generality</text>
</g>
<!-- SRP&#45;&gt;SRP Bad codes -->
<g id="edge17" class="edge">
<title>SRP&#45;&gt;SRP Bad codes</title>
<path fill="none" stroke="#000000" d="M1495.0308,-344.8074C1469.6378,-336.1754 1431.7975,-320.7919 1404.4713,-298.6 1377.5459,-276.7336 1353.6773,-246.9397 1335.0391,-219.7173"/>
<polygon fill="#000000" stroke="#000000" points="1337.9078,-217.7111 1329.4252,-211.3632 1332.0978,-221.6154 1337.9078,-217.7111"/>
</g>
<!-- SRP 重构方法 -->
<g id="node16" class="node">
<title>SRP 重构方法</title>
<polygon fill="none" stroke="#000000" points="1413,-50.1 1413,-248.5 1631.9426,-248.5 1631.9426,-50.1 1413,-50.1"/>
<text text-anchor="start" x="1495.0607" y="-232.9" font-family="Times,serif" font-weight="bold" font-size="14.00" fill="#000000">重构方法</text>
<polyline fill="none" stroke="#000000" points="1413,-223.7 1631.9426,-223.7 "/>
<text text-anchor="start" x="1485.344" y="-207.1" font-family="Times,serif" font-size="14.00" fill="#000000">Extract Class</text>
<polyline fill="none" stroke="#000000" points="1413,-198.9 1631.9426,-198.9 "/>
<text text-anchor="start" x="1475.6203" y="-182.3" font-family="Times,serif" font-size="14.00" fill="#000000">Extract Function</text>
<polyline fill="none" stroke="#000000" points="1413,-174.1 1631.9426,-174.1 "/>
<text text-anchor="start" x="1454.8177" y="-157.5" font-family="Times,serif" font-size="14.00" fill="#000000">Remove Flag Argument</text>
<polyline fill="none" stroke="#000000" points="1413,-149.3 1631.9426,-149.3 "/>
<text text-anchor="start" x="1421" y="-132.7" font-family="Times,serif" font-size="14.00" fill="#000000">Replace Type Code with Subclasses</text>
<polyline fill="none" stroke="#000000" points="1413,-124.5 1631.9426,-124.5 "/>
<text text-anchor="start" x="1437.1476" y="-107.9" font-family="Times,serif" font-size="14.00" fill="#000000">Separate Query from Modifier</text>
<polyline fill="none" stroke="#000000" points="1413,-99.7 1631.9426,-99.7 "/>
<text text-anchor="start" x="1492.7178" y="-83.1" font-family="Times,serif" font-size="14.00" fill="#000000">Split Loop</text>
<polyline fill="none" stroke="#000000" points="1413,-74.9 1631.9426,-74.9 "/>
<text text-anchor="start" x="1491.1659" y="-58.3" font-family="Times,serif" font-size="14.00" fill="#000000">Split Phase</text>
</g>
<!-- SRP&#45;&gt;SRP 重构方法 -->
<g id="edge18" class="edge">
<title>SRP&#45;&gt;SRP 重构方法</title>
<path fill="none" stroke="#000000" d="M1522.4713,-335.0141C1522.4713,-317.2469 1522.4713,-288.5724 1522.4713,-259.0157"/>
<polygon fill="#000000" stroke="#000000" points="1525.9714,-258.9728 1522.4713,-248.9728 1518.9714,-258.9728 1525.9714,-258.9728"/>
</g>
<!-- SRP 设计模式 -->
<g id="node17" class="node">
<title>SRP 设计模式</title>
<polygon fill="none" stroke="#000000" points="1649.5614,-124.5 1649.5614,-174.1 1755.3812,-174.1 1755.3812,-124.5 1649.5614,-124.5"/>
<text text-anchor="start" x="1663.9755" y="-158.5" font-family="Times,serif" font-weight="bold" font-size="14.00" fill="#000000">设计模式</text>
<polyline fill="none" stroke="#000000" points="1649.5614,-149.3 1755.3812,-149.3 "/>
<text text-anchor="start" x="1657.5614" y="-132.7" font-family="Times,serif" font-size="14.00" fill="#000000">责任链模式</text>
</g>
<!-- SRP&#45;&gt;SRP 设计模式 -->
<g id="edge19" class="edge">
<title>SRP&#45;&gt;SRP 设计模式</title>
<path fill="none" stroke="#000000" d="M1549.745,-346.6946C1576.1051,-339.2218 1615.6013,-324.4613 1640.4713,-298.6 1671.1039,-266.7464 1687.5095,-217.5949 1695.6006,-184.4751"/>
<polygon fill="#000000" stroke="#000000" points="1699.104,-184.8585 1697.9429,-174.3275 1692.2834,-183.2841 1699.104,-184.8585"/>
</g>
<!-- 意图与实现分离 Bad codes -->
<g id="node26" class="node">
<title>意图与实现分离 Bad codes</title>
<polygon fill="none" stroke="#000000" points="2217.9341,-62.5 2217.9341,-236.1 2349.0085,-236.1 2349.0085,-62.5 2217.9341,-62.5"/>
<text text-anchor="start" x="2254.5088" y="-220.5" font-family="Times,serif" font-weight="bold" font-size="14.00" fill="#000000">Bad codes</text>
<polyline fill="none" stroke="#000000" points="2217.9341,-211.3 2349.0085,-211.3 "/>
<text text-anchor="start" x="2246.9306" y="-194.7" font-family="Times,serif" font-size="14.00" fill="#000000">MutableData</text>
<polyline fill="none" stroke="#000000" points="2217.9341,-186.5 2349.0085,-186.5 "/>
<text text-anchor="start" x="2237.7893" y="-169.9" font-family="Times,serif" font-size="14.00" fill="#000000">Message Chains</text>
<polyline fill="none" stroke="#000000" points="2217.9341,-161.7 2349.0085,-161.7 "/>
<text text-anchor="start" x="2240.1266" y="-145.1" font-family="Times,serif" font-size="14.00" fill="#000000">Insider Trading</text>
<polyline fill="none" stroke="#000000" points="2217.9341,-136.9 2349.0085,-136.9 "/>
<text text-anchor="start" x="2249.4569" y="-120.3" font-family="Times,serif" font-size="14.00" fill="#000000">Global Data</text>
<polyline fill="none" stroke="#000000" points="2217.9341,-112.1 2349.0085,-112.1 "/>
<text text-anchor="start" x="2225.9341" y="-95.5" font-family="Times,serif" font-size="14.00" fill="#000000">Long Parameter List</text>
<polyline fill="none" stroke="#000000" points="2217.9341,-87.3 2349.0085,-87.3 "/>
<text text-anchor="start" x="2237.7893" y="-70.7" font-family="Times,serif" font-size="14.00" fill="#000000">Message Chains</text>
</g>
<!-- 意图与实现分离&#45;&gt;意图与实现分离 Bad codes -->
<g id="edge28" class="edge">
<title>意图与实现分离&#45;&gt;意图与实现分离 Bad codes</title>
<path fill="none" stroke="#000000" d="M2359.1056,-335.0141C2350.801,-314.6228 2336.6451,-279.8641 2322.8103,-245.8939"/>
<polygon fill="#000000" stroke="#000000" points="2325.9352,-244.2873 2318.9219,-236.3461 2319.4523,-246.9277 2325.9352,-244.2873"/>
</g>
<!-- 意图与实现分离 重构方法 -->
<g id="node27" class="node">
<title>意图与实现分离 重构方法</title>
<polygon fill="none" stroke="#000000" points="2367.4148,-25.3 2367.4148,-273.3 2531.5278,-273.3 2531.5278,-25.3 2367.4148,-25.3"/>
<text text-anchor="start" x="2422.0607" y="-257.7" font-family="Times,serif" font-weight="bold" font-size="14.00" fill="#000000">重构方法</text>
<polyline fill="none" stroke="#000000" points="2367.4148,-248.5 2531.5278,-248.5 "/>
<text text-anchor="start" x="2384.7388" y="-231.9" font-family="Times,serif" font-size="14.00" fill="#000000">Encapsulate Collection</text>
<polyline fill="none" stroke="#000000" points="2367.4148,-223.7 2531.5278,-223.7 "/>
<text text-anchor="start" x="2393.6897" y="-207.1" font-family="Times,serif" font-size="14.00" fill="#000000">Encapsulate Record</text>
<polyline fill="none" stroke="#000000" points="2367.4148,-198.9 2531.5278,-198.9 "/>
<text text-anchor="start" x="2389.8068" y="-182.3" font-family="Times,serif" font-size="14.00" fill="#000000">Encapsulate Variable</text>
<polyline fill="none" stroke="#000000" points="2367.4148,-174.1 2531.5278,-174.1 "/>
<text text-anchor="start" x="2402.6203" y="-157.5" font-family="Times,serif" font-size="14.00" fill="#000000">Extract Function</text>
<polyline fill="none" stroke="#000000" points="2367.4148,-149.3 2531.5278,-149.3 "/>
<text text-anchor="start" x="2403.4134" y="-132.7" font-family="Times,serif" font-size="14.00" fill="#000000">Extract Variable</text>
<polyline fill="none" stroke="#000000" points="2367.4148,-124.5 2531.5278,-124.5 "/>
<text text-anchor="start" x="2409.2423" y="-107.9" font-family="Times,serif" font-size="14.00" fill="#000000">Hide Delegate</text>
<polyline fill="none" stroke="#000000" points="2367.4148,-99.7 2531.5278,-99.7 "/>
<text text-anchor="start" x="2375.4148" y="-83.1" font-family="Times,serif" font-size="14.00" fill="#000000">Replace Temp with Query</text>
<polyline fill="none" stroke="#000000" points="2367.4148,-74.9 2531.5278,-74.9 "/>
<text text-anchor="start" x="2376.3612" y="-58.3" font-family="Times,serif" font-size="14.00" fill="#000000">封装读取和设置方法</text>
<polyline fill="none" stroke="#000000" points="2367.4148,-50.1 2531.5278,-50.1 "/>
<text text-anchor="start" x="2392.0615" y="-33.5" font-family="Times,serif" font-size="14.00" fill="#000000">封装条件表达式</text>
</g>
<!-- 意图与实现分离&#45;&gt;意图与实现分离 重构方法 -->
<g id="edge29" class="edge">
<title>意图与实现分离&#45;&gt;意图与实现分离 重构方法</title>
<path fill="none" stroke="#000000" d="M2373.837,-335.0141C2379.0666,-322.1733 2386.6164,-303.6353 2394.9452,-283.1846"/>
<polygon fill="#000000" stroke="#000000" points="2398.2908,-284.2488 2398.8212,-273.6673 2391.8079,-281.6085 2398.2908,-284.2488"/>
</g>
<!-- 意图与实现分离 设计模式 -->
<g id="node28" class="node">
<title>意图与实现分离 设计模式</title>
<polygon fill="none" stroke="#000000" points="2549.9755,-112.1 2549.9755,-186.5 2642.9671,-186.5 2642.9671,-112.1 2549.9755,-112.1"/>
<text text-anchor="start" x="2557.9755" y="-170.9" font-family="Times,serif" font-weight="bold" font-size="14.00" fill="#000000">设计模式</text>
<polyline fill="none" stroke="#000000" points="2549.9755,-161.7 2642.9671,-161.7 "/>
<text text-anchor="start" x="2564.391" y="-145.1" font-family="Times,serif" font-size="14.00" fill="#000000">代理模式</text>
<polyline fill="none" stroke="#000000" points="2549.9755,-136.9 2642.9671,-136.9 "/>
<text text-anchor="start" x="2558.5614" y="-120.3" font-family="Times,serif" font-size="14.00" fill="#000000">装饰模式</text>
</g>
<!-- 意图与实现分离&#45;&gt;意图与实现分离 设计模式 -->
<g id="edge30" class="edge">
<title>意图与实现分离&#45;&gt;意图与实现分离 设计模式</title>
<path fill="none" stroke="#000000" d="M2417.5997,-342.3176C2462.2351,-331.9898 2522.5934,-315.5156 2540.4713,-298.6 2568.8092,-271.7876 2582.9177,-229.2529 2589.8757,-196.4302"/>
<polygon fill="#000000" stroke="#000000" points="2593.3166,-197.0714 2591.8134,-186.5838 2586.4483,-195.7198 2593.3166,-197.0714"/>
</g>
<!-- 方便使用者 Bad codes -->
<g id="node22" class="node">
<title>方便使用者 Bad codes</title>
<polygon fill="none" stroke="#000000" points="660.9341,-124.5 660.9341,-174.1 792.0085,-174.1 792.0085,-124.5 660.9341,-124.5"/>
<text text-anchor="start" x="697.5088" y="-158.5" font-family="Times,serif" font-weight="bold" font-size="14.00" fill="#000000">Bad codes</text>
<polyline fill="none" stroke="#000000" points="660.9341,-149.3 792.0085,-149.3 "/>
<text text-anchor="start" x="668.9341" y="-132.7" font-family="Times,serif" font-size="14.00" fill="#000000">Long Parameter List</text>
</g>
<!-- 方便使用者&#45;&gt;方便使用者 Bad codes -->
<g id="edge24" class="edge">
<title>方便使用者&#45;&gt;方便使用者 Bad codes</title>
<path fill="none" stroke="#000000" d="M726.4713,-335.0141C726.4713,-301.2654 726.4713,-228.162 726.4713,-184.4123"/>
<polygon fill="#000000" stroke="#000000" points="729.9714,-184.2277 726.4713,-174.2277 722.9714,-184.2278 729.9714,-184.2277"/>
</g>
<!-- 方便使用者 重构方法 -->
<g id="node23" class="node">
<title>方便使用者 重构方法</title>
<polygon fill="none" stroke="#000000" points="384.1648,-99.7 384.1648,-198.9 642.7778,-198.9 642.7778,-99.7 384.1648,-99.7"/>
<text text-anchor="start" x="486.0607" y="-183.3" font-family="Times,serif" font-weight="bold" font-size="14.00" fill="#000000">重构方法</text>
<polyline fill="none" stroke="#000000" points="384.1648,-174.1 642.7778,-174.1 "/>
<text text-anchor="start" x="414.5109" y="-157.5" font-family="Times,serif" font-size="14.00" fill="#000000">Combine Functions into Transform</text>
<polyline fill="none" stroke="#000000" points="384.1648,-149.3 642.7778,-149.3 "/>
<text text-anchor="start" x="392.1648" y="-132.7" font-family="Times,serif" font-size="14.00" fill="#000000">Replace Constructor with Factory Function</text>
<polyline fill="none" stroke="#000000" points="384.1648,-124.5 642.7778,-124.5 "/>
<text text-anchor="start" x="427.372" y="-107.9" font-family="Times,serif" font-size="14.00" fill="#000000">Replace Parameter with Query</text>
</g>
<!-- 方便使用者&#45;&gt;方便使用者 重构方法 -->
<g id="edge25" class="edge">
<title>方便使用者&#45;&gt;方便使用者 重构方法</title>
<path fill="none" stroke="#000000" d="M698.7577,-334.9034C684.1612,-324.8466 666.2693,-311.7515 651.4713,-298.6 619.6235,-270.2958 587.1267,-235.4883 561.6743,-206.6039"/>
<polygon fill="#000000" stroke="#000000" points="564.2464,-204.2284 555.0251,-199.0112 558.9802,-208.8401 564.2464,-204.2284"/>
</g>
<!-- 低耦合 Bad codes -->
<g id="node29" class="node">
<title>低耦合 Bad codes</title>
<polygon fill="none" stroke="#000000" points="1773.7893,-112.1 1773.7893,-186.5 1881.1533,-186.5 1881.1533,-112.1 1773.7893,-112.1"/>
<text text-anchor="start" x="1798.5088" y="-170.9" font-family="Times,serif" font-weight="bold" font-size="14.00" fill="#000000">Bad codes</text>
<polyline fill="none" stroke="#000000" points="1773.7893,-161.7 1881.1533,-161.7 "/>
<text text-anchor="start" x="1789.9562" y="-145.1" font-family="Times,serif" font-size="14.00" fill="#000000">Feature Envy</text>
<polyline fill="none" stroke="#000000" points="1773.7893,-136.9 1881.1533,-136.9 "/>
<text text-anchor="start" x="1781.7893" y="-120.3" font-family="Times,serif" font-size="14.00" fill="#000000">Message Chains</text>
</g>
<!-- 低耦合&#45;&gt;低耦合 Bad codes -->
<g id="edge31" class="edge">
<title>低耦合&#45;&gt;低耦合 Bad codes</title>
<path fill="none" stroke="#000000" d="M1960.0156,-342.1574C1937.7889,-333.4137 1909.3317,-319.1848 1890.4713,-298.6 1864.1469,-269.8688 1847.8658,-228.5219 1838.4662,-196.6216"/>
<polygon fill="#000000" stroke="#000000" points="1841.7308,-195.3018 1835.6522,-186.6242 1834.9926,-197.1985 1841.7308,-195.3018"/>
</g>
<!-- 低耦合 重构方法 -->
<g id="node30" class="node">
<title>低耦合 重构方法</title>
<polygon fill="none" stroke="#000000" points="1899.372,-112.1 1899.372,-186.5 2087.5706,-186.5 2087.5706,-112.1 1899.372,-112.1"/>
<text text-anchor="start" x="1966.0607" y="-170.9" font-family="Times,serif" font-weight="bold" font-size="14.00" fill="#000000">重构方法</text>
<polyline fill="none" stroke="#000000" points="1899.372,-161.7 2087.5706,-161.7 "/>
<text text-anchor="start" x="1907.372" y="-145.1" font-family="Times,serif" font-size="14.00" fill="#000000">Replace Query with Parameter</text>
<polyline fill="none" stroke="#000000" points="1899.372,-136.9 2087.5706,-136.9 "/>
<text text-anchor="start" x="1929.7139" y="-120.3" font-family="Times,serif" font-size="14.00" fill="#000000">Split Parameter Object</text>
</g>
<!-- 低耦合&#45;&gt;低耦合 重构方法 -->
<g id="edge32" class="edge">
<title>低耦合&#45;&gt;低耦合 重构方法</title>
<path fill="none" stroke="#000000" d="M1993.4713,-335.0141C1993.4713,-304.3506 1993.4713,-241.1988 1993.4713,-197.0941"/>
<polygon fill="#000000" stroke="#000000" points="1996.9714,-196.8804 1993.4713,-186.8804 1989.9714,-196.8805 1996.9714,-196.8804"/>
</g>
<!-- 低耦合 设计模式 -->
<g id="node31" class="node">
<title>低耦合 设计模式</title>
<polygon fill="none" stroke="#000000" points="2105.2041,-124.5 2105.2041,-174.1 2199.7385,-174.1 2199.7385,-124.5 2105.2041,-124.5"/>
<text text-anchor="start" x="2113.9755" y="-158.5" font-family="Times,serif" font-weight="bold" font-size="14.00" fill="#000000">设计模式</text>
<polyline fill="none" stroke="#000000" points="2105.2041,-149.3 2199.7385,-149.3 "/>
<text text-anchor="start" x="2113.2041" y="-132.7" font-family="Times,serif" font-size="14.00" fill="#000000">中介者模式</text>
</g>
<!-- 低耦合&#45;&gt;低耦合 设计模式 -->
<g id="edge33" class="edge">
<title>低耦合&#45;&gt;低耦合 设计模式</title>
<path fill="none" stroke="#000000" d="M2027.1948,-342.3979C2049.5411,-333.7615 2078.0311,-319.5621 2096.4713,-298.6 2125.18,-265.9651 2139.7384,-217.2015 2146.7048,-184.3688"/>
<polygon fill="#000000" stroke="#000000" points="2150.1875,-184.8002 2148.7081,-174.3092 2143.3223,-183.433 2150.1875,-184.8002"/>
</g>
<!-- ETM -->
<g id="node10" class="node">
<title>ETM</title>
<polygon fill="none" stroke="#000000" points="2075.4713,-408.1 2075.4713,-444.1 2129.4713,-444.1 2129.4713,-408.1 2075.4713,-408.1"/>
<text text-anchor="middle" x="2102.2462" y="-421.9" font-family="Times,serif" font-size="14.00" fill="#000000">ETM</text>
</g>
<!-- ETM&#45;&gt;高内聚 -->
<g id="edge9" class="edge">
<title>ETM&#45;&gt;高内聚</title>
<path fill="none" stroke="#000000" d="M2075.3687,-424.1096C1937.8336,-414.0089 1317.1216,-368.4234 1150.0141,-356.1509"/>
<polygon fill="#000000" stroke="#000000" points="1150.1272,-352.6499 1139.8977,-355.408 1149.6145,-359.6311 1150.1272,-352.6499"/>
</g>
<!-- ETM&#45;&gt;SRP -->
<g id="edge10" class="edge">
<title>ETM&#45;&gt;SRP</title>
<path fill="none" stroke="#000000" d="M2075.2746,-422.677C1980.9911,-410.8102 1668.0241,-371.4196 1559.731,-357.7896"/>
<polygon fill="#000000" stroke="#000000" points="1559.9679,-354.2919 1549.6091,-356.5156 1559.0937,-361.2371 1559.9679,-354.2919"/>
</g>
<!-- ETM&#45;&gt;意图与实现分离 -->
<g id="edge11" class="edge">
<title>ETM&#45;&gt;意图与实现分离</title>
<path fill="none" stroke="#000000" d="M2129.7296,-418.5627C2170.9903,-407.1534 2250.358,-385.2071 2305.7725,-369.8841"/>
<polygon fill="#000000" stroke="#000000" points="2306.776,-373.2381 2315.4815,-367.1995 2304.9103,-366.4913 2306.776,-373.2381"/>
</g>
<!-- ETM&#45;&gt;低耦合 -->
<g id="edge12" class="edge">
<title>ETM&#45;&gt;低耦合</title>
<path fill="none" stroke="#000000" d="M2075.5275,-408.0551C2061.5093,-398.6667 2044.1903,-387.0678 2029.0816,-376.9491"/>
<polygon fill="#000000" stroke="#000000" points="2030.7393,-373.8469 2020.4829,-371.1904 2026.8441,-379.6631 2030.7393,-373.8469"/>
</g>
<!-- OCP -->
<g id="node11" class="node">
<title>OCP</title>
<polygon fill="none" stroke="#000000" points="2803.4713,-335.1 2803.4713,-371.1 2857.4713,-371.1 2857.4713,-335.1 2803.4713,-335.1"/>
<text text-anchor="middle" x="2830.0842" y="-348.9" font-family="Times,serif" font-size="14.00" fill="#000000">OCP</text>
</g>
<!-- ETM&#45;&gt;OCP -->
<g id="edge13" class="edge">
<title>ETM&#45;&gt;OCP</title>
<path fill="none" stroke="#000000" d="M2129.6811,-423.3715C2241.2818,-412.1808 2664.1068,-369.7822 2792.9675,-356.8607"/>
<polygon fill="#000000" stroke="#000000" points="2793.524,-360.3225 2803.1249,-355.8422 2792.8255,-353.3575 2793.524,-360.3225"/>
</g>
<!-- DRY -->
<g id="node12" class="node">
<title>DRY</title>
<polygon fill="none" stroke="#000000" points="3031.4713,-335.1 3031.4713,-371.1 3085.4713,-371.1 3085.4713,-335.1 3031.4713,-335.1"/>
<text text-anchor="middle" x="3058.2462" y="-348.9" font-family="Times,serif" font-size="14.00" fill="#000000">DRY</text>
</g>
<!-- ETM&#45;&gt;DRY -->
<g id="edge14" class="edge">
<title>ETM&#45;&gt;DRY</title>
<path fill="none" stroke="#000000" d="M2129.5571,-424.4122C2228.2999,-418.2073 2578.2596,-395.7612 2866.4713,-371.6 2920.3089,-367.0867 2982.5432,-360.9146 3021.209,-356.967"/>
<polygon fill="#000000" stroke="#000000" points="3021.8723,-360.4174 3031.4632,-355.9157 3021.1584,-353.4539 3021.8723,-360.4174"/>
</g>
<!-- OCP Bad codes -->
<g id="node18" class="node">
<title>OCP Bad codes</title>
<polygon fill="none" stroke="#000000" points="2661.2346,-124.5 2661.2346,-174.1 2771.708,-174.1 2771.708,-124.5 2661.2346,-124.5"/>
<text text-anchor="start" x="2687.5088" y="-158.5" font-family="Times,serif" font-weight="bold" font-size="14.00" fill="#000000">Bad codes</text>
<polyline fill="none" stroke="#000000" points="2661.2346,-149.3 2771.708,-149.3 "/>
<text text-anchor="start" x="2669.2346" y="-132.7" font-family="Times,serif" font-size="14.00" fill="#000000">Duplicated Code</text>
</g>
<!-- OCP&#45;&gt;OCP Bad codes -->
<g id="edge20" class="edge">
<title>OCP&#45;&gt;OCP Bad codes</title>
<path fill="none" stroke="#000000" d="M2811.1509,-334.6674C2801.3891,-324.6462 2789.8671,-311.6565 2781.4713,-298.6 2757.8783,-261.9099 2739.1121,-215.2092 2727.9252,-183.8947"/>
<polygon fill="#000000" stroke="#000000" points="2731.1733,-182.5802 2724.5629,-174.3005 2724.5672,-184.8954 2731.1733,-182.5802"/>
</g>
<!-- OCP 重构方法 -->
<g id="node19" class="node">
<title>OCP 重构方法</title>
<polygon fill="none" stroke="#000000" points="2790.1297,-99.7 2790.1297,-198.9 3100.8129,-198.9 3100.8129,-99.7 2790.1297,-99.7"/>
<text text-anchor="start" x="2918.0607" y="-183.3" font-family="Times,serif" font-weight="bold" font-size="14.00" fill="#000000">重构方法</text>
<polyline fill="none" stroke="#000000" points="2790.1297,-174.1 3100.8129,-174.1 "/>
<text text-anchor="start" x="2898.6203" y="-157.5" font-family="Times,serif" font-size="14.00" fill="#000000">Extract Function</text>
<polyline fill="none" stroke="#000000" points="2790.1297,-149.3 3100.8129,-149.3 "/>
<text text-anchor="start" x="2914.1659" y="-132.7" font-family="Times,serif" font-size="14.00" fill="#000000">Split Phase</text>
<polyline fill="none" stroke="#000000" points="2790.1297,-124.5 3100.8129,-124.5 "/>
<text text-anchor="start" x="2798.1297" y="-107.9" font-family="Times,serif" font-size="14.00" fill="#000000">Use decision table to replace complicated conditions</text>
</g>
<!-- OCP&#45;&gt;OCP 重构方法 -->
<g id="edge21" class="edge">
<title>OCP&#45;&gt;OCP 重构方法</title>
<path fill="none" stroke="#000000" d="M2840.6768,-335.0141C2856.6193,-306.7613 2888.125,-250.9277 2912.4472,-207.8244"/>
<polygon fill="#000000" stroke="#000000" points="2915.4982,-209.5395 2917.3644,-199.1103 2909.4018,-206.0994 2915.4982,-209.5395"/>
</g>
<!-- OCP 设计模式 -->
<g id="node20" class="node">
<title>OCP 设计模式</title>
<polygon fill="none" stroke="#000000" points="3118.5614,-99.7 3118.5614,-198.9 3224.3812,-198.9 3224.3812,-99.7 3118.5614,-99.7"/>
<text text-anchor="start" x="3132.9755" y="-183.3" font-family="Times,serif" font-weight="bold" font-size="14.00" fill="#000000">设计模式</text>
<polyline fill="none" stroke="#000000" points="3118.5614,-174.1 3224.3812,-174.1 "/>
<text text-anchor="start" x="3126.5614" y="-157.5" font-family="Times,serif" font-size="14.00" fill="#000000">责任链模式</text>
<polyline fill="none" stroke="#000000" points="3118.5614,-149.3 3224.3812,-149.3 "/>
<text text-anchor="start" x="3141.4707" y="-132.7" font-family="Times,serif" font-size="14.00" fill="#000000">状态模式</text>
<polyline fill="none" stroke="#000000" points="3118.5614,-124.5 3224.3812,-124.5 "/>
<text text-anchor="start" x="3140.5607" y="-107.9" font-family="Times,serif" font-size="14.00" fill="#000000">策略模式</text>
</g>
<!-- OCP&#45;&gt;OCP 设计模式 -->
<g id="edge22" class="edge">
<title>OCP&#45;&gt;OCP 设计模式</title>
<path fill="none" stroke="#000000" d="M2857.7868,-351.0191C2920.2247,-345.7603 3070.9664,-330.0605 3109.4713,-298.6 3136.6334,-276.4071 3152.0514,-240.3011 3160.7184,-209.1553"/>
<polygon fill="#000000" stroke="#000000" points="3164.167,-209.8007 3163.3015,-199.2413 3157.3932,-208.0357 3164.167,-209.8007"/>
</g>
<!-- DRY Bad codes -->
<g id="node21" class="node">
<title>DRY Bad codes</title>
<polygon fill="none" stroke="#000000" points="3242.3145,-112.1 3242.3145,-186.5 3412.6281,-186.5 3412.6281,-112.1 3242.3145,-112.1"/>
<text text-anchor="start" x="3298.5088" y="-170.9" font-family="Times,serif" font-weight="bold" font-size="14.00" fill="#000000">Bad codes</text>
<polyline fill="none" stroke="#000000" points="3242.3145,-161.7 3412.6281,-161.7 "/>
<text text-anchor="start" x="3250.3145" y="-145.1" font-family="Times,serif" font-size="14.00" fill="#000000">Change Value to Reference</text>
<polyline fill="none" stroke="#000000" points="3242.3145,-136.9 3412.6281,-136.9 "/>
<text text-anchor="start" x="3280.2346" y="-120.3" font-family="Times,serif" font-size="14.00" fill="#000000">Duplicated Code</text>
</g>
<!-- DRY&#45;&gt;DRY Bad codes -->
<g id="edge23" class="edge">
<title>DRY&#45;&gt;DRY Bad codes</title>
<path fill="none" stroke="#000000" d="M3085.7373,-350.5002C3122.6302,-345.7669 3188.9439,-332.8309 3233.4713,-298.6 3267.9498,-272.0942 3293.0984,-229.0638 3308.6602,-195.9922"/>
<polygon fill="#000000" stroke="#000000" points="3312.0178,-197.0654 3312.9882,-186.5151 3305.6503,-194.1575 3312.0178,-197.0654"/>
</g>
<!-- ETC -->
<g id="node13" class="node">
<title>ETC</title>
<polygon fill="none" stroke="#000000" points="2928.4713,-408.1 2928.4713,-444.1 2982.4713,-444.1 2982.4713,-408.1 2928.4713,-408.1"/>
<text text-anchor="middle" x="2955.1922" y="-421.9" font-family="Times,serif" font-size="14.00" fill="#000000">ETC</text>
</g>
<!-- ETC&#45;&gt;意图与实现分离 -->
<g id="edge15" class="edge">
<title>ETC&#45;&gt;意图与实现分离</title>
<path fill="none" stroke="#000000" d="M2928.2439,-422.7255C2839.1194,-411.6795 2554.593,-376.4156 2428.1015,-360.7384"/>
<polygon fill="#000000" stroke="#000000" points="2428.1707,-357.2203 2417.8161,-359.4636 2427.3096,-364.1671 2428.1707,-357.2203"/>
</g>
<!-- 消除非必要的可变性 -->
<g id="node14" class="node">
<title>消除非必要的可变性</title>
<polygon fill="none" stroke="#000000" points="3472.2512,-335.1 3472.2512,-371.1 3616.6914,-371.1 3616.6914,-335.1 3472.2512,-335.1"/>
<text text-anchor="middle" x="3544.4713" y="-348.9" font-family="Times,serif" font-size="14.00" fill="#000000">消除非必要的可变性</text>
</g>
<!-- ETC&#45;&gt;消除非必要的可变性 -->
<g id="edge16" class="edge">
<title>ETC&#45;&gt;消除非必要的可变性</title>
<path fill="none" stroke="#000000" d="M2982.6987,-422.7255C3067.2062,-412.2517 3327.395,-380.0042 3461.9598,-363.3264"/>
<polygon fill="#000000" stroke="#000000" points="3462.7222,-366.7588 3472.2158,-362.0553 3461.8612,-359.8119 3462.7222,-366.7588"/>
</g>
<!-- 消除非必要的可变性 Bad codes -->
<g id="node24" class="node">
<title>消除非必要的可变性 Bad codes</title>
<polygon fill="none" stroke="#000000" points="3676.1806,-112.1 3676.1806,-186.5 3768.762,-186.5 3768.762,-112.1 3676.1806,-112.1"/>
<text text-anchor="start" x="3693.5088" y="-170.9" font-family="Times,serif" font-weight="bold" font-size="14.00" fill="#000000">Bad codes</text>
<polyline fill="none" stroke="#000000" points="3676.1806,-161.7 3768.762,-161.7 "/>
<text text-anchor="start" x="3688.4569" y="-145.1" font-family="Times,serif" font-size="14.00" fill="#000000">Global Data</text>
<polyline fill="none" stroke="#000000" points="3676.1806,-136.9 3768.762,-136.9 "/>
<text text-anchor="start" x="3684.1806" y="-120.3" font-family="Times,serif" font-size="14.00" fill="#000000">Mutable Data</text>
</g>
<!-- 消除非必要的可变性&#45;&gt;消除非必要的可变性 Bad codes -->
<g id="edge26" class="edge">
<title>消除非必要的可变性&#45;&gt;消除非必要的可变性 Bad codes</title>
<path fill="none" stroke="#000000" d="M3610.5786,-335.0103C3631.0014,-326.7079 3652.1329,-314.9551 3667.4713,-298.6 3693.7295,-270.6013 3707.6867,-229.0078 3714.9603,-196.8282"/>
<polygon fill="#000000" stroke="#000000" points="3718.4488,-197.248 3717.0941,-186.7402 3711.6003,-195.7994 3718.4488,-197.248"/>
</g>
<!-- 消除非必要的可变性 重构方法 -->
<g id="node25" class="node">
<title>消除非必要的可变性 重构方法</title>
<polygon fill="none" stroke="#000000" points="3430.3541,-74.9 3430.3541,-223.7 3658.5885,-223.7 3658.5885,-74.9 3430.3541,-74.9"/>
<text text-anchor="start" x="3517.0607" y="-208.1" font-family="Times,serif" font-weight="bold" font-size="14.00" fill="#000000">重构方法</text>
<polyline fill="none" stroke="#000000" points="3430.3541,-198.9 3658.5885,-198.9 "/>
<text text-anchor="start" x="3467.3145" y="-182.3" font-family="Times,serif" font-size="14.00" fill="#000000">Change Reference to Value</text>
<polyline fill="none" stroke="#000000" points="3430.3541,-174.1 3658.5885,-174.1 "/>
<text text-anchor="start" x="3479.7388" y="-157.5" font-family="Times,serif" font-size="14.00" fill="#000000">Encapsulate Collection</text>
<polyline fill="none" stroke="#000000" points="3430.3541,-149.3 3658.5885,-149.3 "/>
<text text-anchor="start" x="3476.0337" y="-132.7" font-family="Times,serif" font-size="14.00" fill="#000000">Remove Setting Method</text>
<polyline fill="none" stroke="#000000" points="3430.3541,-124.5 3658.5885,-124.5 "/>
<text text-anchor="start" x="3438.3541" y="-107.9" font-family="Times,serif" font-size="14.00" fill="#000000">Replace Derived Variable with Query</text>
<polyline fill="none" stroke="#000000" points="3430.3541,-99.7 3658.5885,-99.7 "/>
<text text-anchor="start" x="3470.2125" y="-83.1" font-family="Times,serif" font-size="14.00" fill="#000000">用常量代替基础类型值</text>
</g>
<!-- 消除非必要的可变性&#45;&gt;消除非必要的可变性 重构方法 -->
<g id="edge27" class="edge">
<title>消除非必要的可变性&#45;&gt;消除非必要的可变性 重构方法</title>
<path fill="none" stroke="#000000" d="M3544.4713,-335.0141C3544.4713,-312.3076 3544.4713,-271.7861 3544.4713,-234.376"/>
<polygon fill="#000000" stroke="#000000" points="3547.9714,-233.9243 3544.4713,-223.9243 3540.9714,-233.9243 3547.9714,-233.9243"/>
</g>
</g>
</svg>