<?xml version="1.0" encoding="UTF-8" standalone="no"?><!DOCTYPE svg PUBLIC "-//W3C//DTD SVG 1.1//EN" "http://www.w3.org/Graphics/SVG/1.1/DTD/svg11.dtd"><!-- Generated by graphviz version 2.40.1 (20161225.0304)
 --><!-- Title: G Pages: 1 --><svg xmlns="http://www.w3.org/2000/svg" xmlns:xlink="http://www.w3.org/1999/xlink" width="3818pt" height="378pt" viewBox="0.00 0.00 3817.76 378.20">
<g id="graph0" class="graph" transform="scale(1 1) rotate(0) translate(4 374.2)">
<title>G</title>
<polygon fill="#ffffff" stroke="transparent" points="-4,4 -4,-374.2 3813.762,-374.2 3813.762,4 -4,4"/>
<!-- YAGNI -->
<g id="node1" class="node">
<title>YAGNI</title>
<polygon fill="none" stroke="#000000" points="447.9278,-333.7 447.9278,-369.7 509.0148,-369.7 509.0148,-333.7 447.9278,-333.7"/>
<text text-anchor="middle" x="478.4713" y="-347.5" font-family="Times,serif" font-size="14.00" fill="#000000">YAGNI</text>
</g>
<!-- ETR -->
<g id="node2" class="node">
<title>ETR</title>
<polygon fill="none" stroke="#000000" points="527.4713,-333.7 527.4713,-369.7 581.4713,-369.7 581.4713,-333.7 527.4713,-333.7"/>
<text text-anchor="middle" x="554.1922" y="-347.5" font-family="Times,serif" font-size="14.00" fill="#000000">ETR</text>
</g>
<!-- 语义化 -->
<g id="node3" class="node">
<title>语义化</title>
<polygon fill="none" stroke="#000000" points="411.1161,-260.7 411.1161,-296.7 471.8265,-296.7 471.8265,-260.7 411.1161,-260.7"/>
<text text-anchor="middle" x="441.4713" y="-274.5" font-family="Times,serif" font-size="14.00" fill="#000000">语义化</text>
</g>
<!-- ETR&#45;&gt;语义化 -->
<g id="edge1" class="edge">
<title>ETR-&gt;语义化</title>
<path fill="none" stroke="#000000" d="M527.405,-334.2147C512.6406,-324.6766 494.1558,-312.7351 478.1167,-302.3736"/>
<polygon fill="#000000" stroke="#000000" points="479.7958,-299.2915 469.4969,-296.805 475.9973,-305.1713 479.7958,-299.2915"/>
</g>
<!-- 高内聚 -->
<g id="node4" class="node">
<title>高内聚</title>
<polygon fill="none" stroke="#000000" points="637.1417,-260.7 637.1417,-296.7 699.8009,-296.7 699.8009,-260.7 637.1417,-260.7"/>
<text text-anchor="middle" x="668.4713" y="-274.5" font-family="Times,serif" font-size="14.00" fill="#000000">高内聚</text>
</g>
<!-- ETR&#45;&gt;高内聚 -->
<g id="edge2" class="edge">
<title>ETR-&gt;高内聚</title>
<path fill="none" stroke="#000000" d="M581.4877,-334.4C596.3763,-324.8661 615.0804,-312.8889 631.3257,-302.4862"/>
<polygon fill="#000000" stroke="#000000" points="633.524,-305.2347 640.058,-296.8945 629.7492,-299.3397 633.524,-305.2347"/>
</g>
<!-- 语义化 Bad codes -->
<g id="node35" class="node">
<title>语义化 Bad codes</title>
<polygon fill="none" stroke="#000000" points="236.513,-74.9 236.513,-149.3 352.4296,-149.3 352.4296,-74.9 236.513,-74.9"/>
<text text-anchor="start" x="265.5088" y="-133.7" font-family="Times,serif" font-weight="bold" font-size="14.00" fill="#000000">Bad codes</text>
<polyline fill="none" stroke="#000000" points="236.513,-124.5 352.4296,-124.5 "/>
<text text-anchor="start" x="257.7269" y="-107.9" font-family="Times,serif" font-size="14.00" fill="#000000">Data Clumps</text>
<polyline fill="none" stroke="#000000" points="236.513,-99.7 352.4296,-99.7 "/>
<text text-anchor="start" x="244.513" y="-83.1" font-family="Times,serif" font-size="14.00" fill="#000000">Mysterious Name</text>
</g>
<!-- 语义化&#45;&gt;语义化 Bad codes -->
<g id="edge37" class="edge">
<title>语义化-&gt;语义化 Bad codes</title>
<path fill="none" stroke="#000000" d="M410.9962,-262.2694C394.9793,-252.6265 375.7632,-239.3658 361.4713,-224.2 343.3073,-204.9252 327.7697,-179.9004 316.2436,-158.3861"/>
<polygon fill="#000000" stroke="#000000" points="319.2859,-156.6507 311.5535,-149.4077 313.0814,-159.8918 319.2859,-156.6507"/>
</g>
<!-- 语义化 重构方法 -->
<g id="node36" class="node">
<title>语义化 重构方法</title>
<polygon fill="none" stroke="#000000" points="0,-50.1 0,-174.1 218.9426,-174.1 218.9426,-50.1 0,-50.1"/>
<text text-anchor="start" x="82.0607" y="-158.5" font-family="Times,serif" font-weight="bold" font-size="14.00" fill="#000000">重构方法</text>
<polyline fill="none" stroke="#000000" points="0,-149.3 218.9426,-149.3 "/>
<text text-anchor="start" x="44.5568" y="-132.7" font-family="Times,serif" font-size="14.00" fill="#000000">Preserve Whole Object</text>
<polyline fill="none" stroke="#000000" points="0,-124.5 218.9426,-124.5 "/>
<text text-anchor="start" x="19.8657" y="-107.9" font-family="Times,serif" font-size="14.00" fill="#000000">Replace Subclass with Delegate</text>
<polyline fill="none" stroke="#000000" points="0,-99.7 218.9426,-99.7 "/>
<text text-anchor="start" x="14.4281" y="-83.1" font-family="Times,serif" font-size="14.00" fill="#000000">Replace Superclass with Delegate</text>
<polyline fill="none" stroke="#000000" points="0,-74.9 218.9426,-74.9 "/>
<text text-anchor="start" x="8" y="-58.3" font-family="Times,serif" font-size="14.00" fill="#000000">Replace Type Code with Subclasses</text>
</g>
<!-- 语义化&#45;&gt;语义化 重构方法 -->
<g id="edge38" class="edge">
<title>语义化-&gt;语义化 重构方法</title>
<path fill="none" stroke="#000000" d="M410.979,-275.8358C367.7852,-270.7276 287.3778,-257.2832 227.4713,-224.2 207.2008,-213.0056 187.8162,-197.491 170.8275,-181.5692"/>
<polygon fill="#000000" stroke="#000000" points="172.8326,-178.6421 163.1959,-174.2391 167.9836,-183.6906 172.8326,-178.6421"/>
</g>
<!-- 高内聚 Bad codes -->
<g id="node33" class="node">
<title>高内聚 Bad codes</title>
<polygon fill="none" stroke="#000000" points="602.9341,-37.7 602.9341,-186.5 734.0085,-186.5 734.0085,-37.7 602.9341,-37.7"/>
<text text-anchor="start" x="639.5088" y="-170.9" font-family="Times,serif" font-weight="bold" font-size="14.00" fill="#000000">Bad codes</text>
<polyline fill="none" stroke="#000000" points="602.9341,-161.7 734.0085,-161.7 "/>
<text text-anchor="start" x="638.3426" y="-145.1" font-family="Times,serif" font-size="14.00" fill="#000000">Data Class</text>
<polyline fill="none" stroke="#000000" points="602.9341,-136.9 734.0085,-136.9 "/>
<text text-anchor="start" x="631.7269" y="-120.3" font-family="Times,serif" font-size="14.00" fill="#000000">Data Clumps</text>
<polyline fill="none" stroke="#000000" points="602.9341,-112.1 734.0085,-112.1 "/>
<text text-anchor="start" x="630.9562" y="-95.5" font-family="Times,serif" font-size="14.00" fill="#000000">Feature Envy</text>
<polyline fill="none" stroke="#000000" points="602.9341,-87.3 734.0085,-87.3 "/>
<text text-anchor="start" x="610.9341" y="-70.7" font-family="Times,serif" font-size="14.00" fill="#000000">Long Parameter List</text>
<polyline fill="none" stroke="#000000" points="602.9341,-62.5 734.0085,-62.5 "/>
<text text-anchor="start" x="621.2255" y="-45.9" font-family="Times,serif" font-size="14.00" fill="#000000">Shotgun Surgery</text>
</g>
<!-- 高内聚&#45;&gt;高内聚 Bad codes -->
<g id="edge35" class="edge">
<title>高内聚-&gt;高内聚 Bad codes</title>
<path fill="none" stroke="#000000" d="M668.4713,-260.5537C668.4713,-244.9098 668.4713,-221.1148 668.4713,-197.1287"/>
<polygon fill="#000000" stroke="#000000" points="671.9714,-196.8604 668.4713,-186.8604 664.9714,-196.8604 671.9714,-196.8604"/>
</g>
<!-- 高内聚 重构方法 -->
<g id="node34" class="node">
<title>高内聚 重构方法</title>
<polygon fill="none" stroke="#000000" points="370.1259,-.5 370.1259,-223.7 584.8167,-223.7 584.8167,-.5 370.1259,-.5"/>
<text text-anchor="start" x="450.0607" y="-208.1" font-family="Times,serif" font-weight="bold" font-size="14.00" fill="#000000">重构方法</text>
<polyline fill="none" stroke="#000000" points="370.1259,-198.9 584.8167,-198.9 "/>
<text text-anchor="start" x="392.5025" y="-182.3" font-family="Times,serif" font-size="14.00" fill="#000000">Combine Functions Into Class</text>
<polyline fill="none" stroke="#000000" points="370.1259,-174.1 584.8167,-174.1 "/>
<text text-anchor="start" x="378.1259" y="-157.5" font-family="Times,serif" font-size="14.00" fill="#000000">Combine Functions Into Transform</text>
<polyline fill="none" stroke="#000000" points="370.1259,-149.3 584.8167,-149.3 "/>
<text text-anchor="start" x="388.2479" y="-132.7" font-family="Times,serif" font-size="14.00" fill="#000000">Combine Variables Into Record</text>
<polyline fill="none" stroke="#000000" points="370.1259,-124.5 584.8167,-124.5 "/>
<text text-anchor="start" x="444.2276" y="-107.9" font-family="Times,serif" font-size="14.00" fill="#000000">Inline Class</text>
<polyline fill="none" stroke="#000000" points="370.1259,-99.7 584.8167,-99.7 "/>
<text text-anchor="start" x="434.5039" y="-83.1" font-family="Times,serif" font-size="14.00" fill="#000000">Inline Function</text>
<polyline fill="none" stroke="#000000" points="370.1259,-74.9 584.8167,-74.9 "/>
<text text-anchor="start" x="400.1206" y="-58.3" font-family="Times,serif" font-size="14.00" fill="#000000">Introduce Parameter Object</text>
<polyline fill="none" stroke="#000000" points="370.1259,-50.1 584.8167,-50.1 "/>
<text text-anchor="start" x="389.3952" y="-33.5" font-family="Times,serif" font-size="14.00" fill="#000000">Move Statements into Function</text>
<polyline fill="none" stroke="#000000" points="370.1259,-25.3 584.8167,-25.3 "/>
<text text-anchor="start" x="412.5568" y="-8.7" font-family="Times,serif" font-size="14.00" fill="#000000">Preserve Whole Object</text>
</g>
<!-- 高内聚&#45;&gt;高内聚 重构方法 -->
<g id="edge36" class="edge">
<title>高内聚-&gt;高内聚 重构方法</title>
<path fill="none" stroke="#000000" d="M641.7585,-260.6542C627.1234,-250.4329 608.8809,-237.1359 593.4713,-224.2 593.2099,-223.9805 592.9483,-223.7606 592.6866,-223.5403"/>
<polygon fill="#000000" stroke="#000000" points="594.9447,-220.8661 585.0669,-217.0347 590.3994,-226.1897 594.9447,-220.8661"/>
</g>
<!-- ETU -->
<g id="node5" class="node">
<title>ETU</title>
<polygon fill="none" stroke="#000000" points="1261.4713,-333.7 1261.4713,-369.7 1315.4713,-369.7 1315.4713,-333.7 1261.4713,-333.7"/>
<text text-anchor="middle" x="1288.0772" y="-347.5" font-family="Times,serif" font-size="14.00" fill="#000000">ETU</text>
</g>
<!-- ETU&#45;&gt;语义化 -->
<g id="edge3" class="edge">
<title>ETU-&gt;语义化</title>
<path fill="none" stroke="#000000" d="M1261.4248,-349.6248C1171.4623,-342.6886 874.0799,-319.4883 628.4713,-297.2 577.9845,-292.6185 519.8894,-286.7827 482.0238,-282.9033"/>
<polygon fill="#000000" stroke="#000000" points="482.2087,-279.404 471.9034,-281.8637 481.4934,-286.3673 482.2087,-279.404"/>
</g>
<!-- ETU&#45;&gt;高内聚 -->
<g id="edge4" class="edge">
<title>ETU-&gt;高内聚</title>
<path fill="none" stroke="#000000" d="M1261.432,-348.5163C1163.6953,-337.0086 828.2925,-297.5177 710.0982,-283.6012"/>
<polygon fill="#000000" stroke="#000000" points="710.3433,-280.106 700.0026,-282.4126 709.5247,-287.058 710.3433,-280.106"/>
</g>
<!-- SRP -->
<g id="node6" class="node">
<title>SRP</title>
<polygon fill="none" stroke="#000000" points="1982.4713,-260.7 1982.4713,-296.7 2036.4713,-296.7 2036.4713,-260.7 1982.4713,-260.7"/>
<text text-anchor="middle" x="2009.4222" y="-274.5" font-family="Times,serif" font-size="14.00" fill="#000000">SRP</text>
</g>
<!-- ETU&#45;&gt;SRP -->
<g id="edge5" class="edge">
<title>ETU-&gt;SRP</title>
<path fill="none" stroke="#000000" d="M1315.8549,-348.9275C1427.0652,-337.6676 1845.0438,-295.348 1972.406,-282.4528"/>
<polygon fill="#000000" stroke="#000000" points="1972.8486,-285.926 1982.4451,-281.4364 1972.1434,-278.9616 1972.8486,-285.926"/>
</g>
<!-- 意图与实现分离 -->
<g id="node7" class="node">
<title>意图与实现分离</title>
<polygon fill="none" stroke="#000000" points="2320.4997,-260.7 2320.4997,-296.7 2422.4429,-296.7 2422.4429,-260.7 2320.4997,-260.7"/>
<text text-anchor="middle" x="2371.4713" y="-274.5" font-family="Times,serif" font-size="14.00" fill="#000000">意图与实现分离</text>
</g>
<!-- ETU&#45;&gt;意图与实现分离 -->
<g id="edge6" class="edge">
<title>ETU-&gt;意图与实现分离</title>
<path fill="none" stroke="#000000" d="M1315.5124,-349.8773C1456.2415,-340.3914 2106.1812,-296.582 2310.0962,-282.837"/>
<polygon fill="#000000" stroke="#000000" points="2310.5811,-286.3124 2320.3231,-282.1477 2310.1103,-279.3282 2310.5811,-286.3124"/>
</g>
<!-- 方便使用者 -->
<g id="node8" class="node">
<title>方便使用者</title>
<polygon fill="none" stroke="#000000" points="1074.6231,-260.7 1074.6231,-296.7 1170.3195,-296.7 1170.3195,-260.7 1074.6231,-260.7"/>
<text text-anchor="middle" x="1122.4713" y="-274.5" font-family="Times,serif" font-size="14.00" fill="#000000">方便使用者</text>
</g>
<!-- ETU&#45;&gt;方便使用者 -->
<g id="edge7" class="edge">
<title>ETU-&gt;方便使用者</title>
<path fill="none" stroke="#000000" d="M1261.4311,-339.8088C1237.4731,-329.2731 1201.8716,-313.617 1172.7024,-300.7896"/>
<polygon fill="#000000" stroke="#000000" points="1174.0438,-297.556 1163.4809,-296.7343 1171.2259,-303.9638 1174.0438,-297.556"/>
</g>
<!-- 低耦合 -->
<g id="node9" class="node">
<title>低耦合</title>
<polygon fill="none" stroke="#000000" points="1421.195,-260.7 1421.195,-296.7 1487.7476,-296.7 1487.7476,-260.7 1421.195,-260.7"/>
<text text-anchor="middle" x="1454.4713" y="-274.5" font-family="Times,serif" font-size="14.00" fill="#000000">低耦合</text>
</g>
<!-- ETU&#45;&gt;低耦合 -->
<g id="edge8" class="edge">
<title>ETU-&gt;低耦合</title>
<path fill="none" stroke="#000000" d="M1315.5115,-339.8088C1341.5419,-328.3617 1381.3176,-310.87 1411.6539,-297.5293"/>
<polygon fill="#000000" stroke="#000000" points="1413.3973,-300.5862 1421.1423,-293.3567 1410.5794,-294.1784 1413.3973,-300.5862"/>
</g>
<!-- SRP Bad codes -->
<g id="node16" class="node">
<title>SRP Bad codes</title>
<polygon fill="none" stroke="#000000" points="1679.1473,-50.1 1679.1473,-174.1 1881.7953,-174.1 1881.7953,-50.1 1679.1473,-50.1"/>
<text text-anchor="start" x="1751.5088" y="-158.5" font-family="Times,serif" font-weight="bold" font-size="14.00" fill="#000000">Bad codes</text>
<polyline fill="none" stroke="#000000" points="1679.1473,-149.3 1881.7953,-149.3 "/>
<text text-anchor="start" x="1729.3496" y="-132.7" font-family="Times,serif" font-size="14.00" fill="#000000">Divergent Change</text>
<polyline fill="none" stroke="#000000" points="1679.1473,-124.5 1881.7953,-124.5 "/>
<text text-anchor="start" x="1695.3429" y="-107.9" font-family="Times,serif" font-size="14.00" fill="#000000">Large Class and Large Record</text>
<polyline fill="none" stroke="#000000" points="1679.1473,-99.7 1881.7953,-99.7 "/>
<text text-anchor="start" x="1687.1473" y="-83.1" font-family="Times,serif" font-size="14.00" fill="#000000">Long Function and Long Module</text>
<polyline fill="none" stroke="#000000" points="1679.1473,-74.9 1881.7953,-74.9 "/>
<text text-anchor="start" x="1716.5235" y="-58.3" font-family="Times,serif" font-size="14.00" fill="#000000">Speculative Generality</text>
</g>
<!-- SRP&#45;&gt;SRP Bad codes -->
<g id="edge18" class="edge">
<title>SRP-&gt;SRP Bad codes</title>
<path fill="none" stroke="#000000" d="M1982.2355,-269.3209C1957.3267,-260.0237 1920.1097,-244.2801 1891.4713,-224.2 1874.0304,-211.9712 1856.9418,-196.8263 1841.6012,-181.6658"/>
<polygon fill="#000000" stroke="#000000" points="1843.7484,-178.8611 1834.2169,-174.2348 1838.783,-183.7952 1843.7484,-178.8611"/>
</g>
<!-- SRP 重构方法 -->
<g id="node17" class="node">
<title>SRP 重构方法</title>
<polygon fill="none" stroke="#000000" points="1900,-12.9 1900,-211.3 2118.9426,-211.3 2118.9426,-12.9 1900,-12.9"/>
<text text-anchor="start" x="1982.0607" y="-195.7" font-family="Times,serif" font-weight="bold" font-size="14.00" fill="#000000">重构方法</text>
<polyline fill="none" stroke="#000000" points="1900,-186.5 2118.9426,-186.5 "/>
<text text-anchor="start" x="1972.344" y="-169.9" font-family="Times,serif" font-size="14.00" fill="#000000">Extract Class</text>
<polyline fill="none" stroke="#000000" points="1900,-161.7 2118.9426,-161.7 "/>
<text text-anchor="start" x="1962.6203" y="-145.1" font-family="Times,serif" font-size="14.00" fill="#000000">Extract Function</text>
<polyline fill="none" stroke="#000000" points="1900,-136.9 2118.9426,-136.9 "/>
<text text-anchor="start" x="1941.8177" y="-120.3" font-family="Times,serif" font-size="14.00" fill="#000000">Remove Flag Argument</text>
<polyline fill="none" stroke="#000000" points="1900,-112.1 2118.9426,-112.1 "/>
<text text-anchor="start" x="1908" y="-95.5" font-family="Times,serif" font-size="14.00" fill="#000000">Replace Type Code with Subclasses</text>
<polyline fill="none" stroke="#000000" points="1900,-87.3 2118.9426,-87.3 "/>
<text text-anchor="start" x="1924.1476" y="-70.7" font-family="Times,serif" font-size="14.00" fill="#000000">Separate Query from Modifier</text>
<polyline fill="none" stroke="#000000" points="1900,-62.5 2118.9426,-62.5 "/>
<text text-anchor="start" x="1979.7178" y="-45.9" font-family="Times,serif" font-size="14.00" fill="#000000">Split Loop</text>
<polyline fill="none" stroke="#000000" points="1900,-37.7 2118.9426,-37.7 "/>
<text text-anchor="start" x="1978.1659" y="-21.1" font-family="Times,serif" font-size="14.00" fill="#000000">Split Phase</text>
</g>
<!-- SRP&#45;&gt;SRP 重构方法 -->
<g id="edge19" class="edge">
<title>SRP-&gt;SRP 重构方法</title>
<path fill="none" stroke="#000000" d="M2009.4713,-260.5537C2009.4713,-250.315 2009.4713,-236.5849 2009.4713,-221.5949"/>
<polygon fill="#000000" stroke="#000000" points="2012.9714,-221.5863 2009.4713,-211.5863 2005.9714,-221.5864 2012.9714,-221.5863"/>
</g>
<!-- SRP 设计模式 -->
<g id="node18" class="node">
<title>SRP 设计模式</title>
<polygon fill="none" stroke="#000000" points="2136.5614,-87.3 2136.5614,-136.9 2242.3812,-136.9 2242.3812,-87.3 2136.5614,-87.3"/>
<text text-anchor="start" x="2150.9755" y="-121.3" font-family="Times,serif" font-weight="bold" font-size="14.00" fill="#000000">设计模式</text>
<polyline fill="none" stroke="#000000" points="2136.5614,-112.1 2242.3812,-112.1 "/>
<text text-anchor="start" x="2144.5614" y="-95.5" font-family="Times,serif" font-size="14.00" fill="#000000">责任链模式</text>
</g>
<!-- SRP&#45;&gt;SRP 设计模式 -->
<g id="edge20" class="edge">
<title>SRP-&gt;SRP 设计模式</title>
<path fill="none" stroke="#000000" d="M2036.6307,-271.5292C2062.5334,-263.5498 2101.3629,-248.4803 2127.4713,-224.2 2150.3734,-202.9014 2166.8229,-171.1762 2176.9982,-146.9061"/>
<polygon fill="#000000" stroke="#000000" points="2180.3592,-147.9294 2180.8471,-137.3458 2173.8657,-145.3151 2180.3592,-147.9294"/>
</g>
<!-- 意图与实现分离 Bad codes -->
<g id="node27" class="node">
<title>意图与实现分离 Bad codes</title>
<polygon fill="none" stroke="#000000" points="2370.9341,-25.3 2370.9341,-198.9 2502.0085,-198.9 2502.0085,-25.3 2370.9341,-25.3"/>
<text text-anchor="start" x="2407.5088" y="-183.3" font-family="Times,serif" font-weight="bold" font-size="14.00" fill="#000000">Bad codes</text>
<polyline fill="none" stroke="#000000" points="2370.9341,-174.1 2502.0085,-174.1 "/>
<text text-anchor="start" x="2399.9306" y="-157.5" font-family="Times,serif" font-size="14.00" fill="#000000">MutableData</text>
<polyline fill="none" stroke="#000000" points="2370.9341,-149.3 2502.0085,-149.3 "/>
<text text-anchor="start" x="2390.7893" y="-132.7" font-family="Times,serif" font-size="14.00" fill="#000000">Message Chains</text>
<polyline fill="none" stroke="#000000" points="2370.9341,-124.5 2502.0085,-124.5 "/>
<text text-anchor="start" x="2393.1266" y="-107.9" font-family="Times,serif" font-size="14.00" fill="#000000">Insider Trading</text>
<polyline fill="none" stroke="#000000" points="2370.9341,-99.7 2502.0085,-99.7 "/>
<text text-anchor="start" x="2402.4569" y="-83.1" font-family="Times,serif" font-size="14.00" fill="#000000">Global Data</text>
<polyline fill="none" stroke="#000000" points="2370.9341,-74.9 2502.0085,-74.9 "/>
<text text-anchor="start" x="2378.9341" y="-58.3" font-family="Times,serif" font-size="14.00" fill="#000000">Long Parameter List</text>
<polyline fill="none" stroke="#000000" points="2370.9341,-50.1 2502.0085,-50.1 "/>
<text text-anchor="start" x="2390.7893" y="-33.5" font-family="Times,serif" font-size="14.00" fill="#000000">Message Chains</text>
</g>
<!-- 意图与实现分离&#45;&gt;意图与实现分离 Bad codes -->
<g id="edge29" class="edge">
<title>意图与实现分离-&gt;意图与实现分离 Bad codes</title>
<path fill="none" stroke="#000000" d="M2378.5512,-260.5537C2383.6641,-247.449 2391.0085,-228.6246 2398.759,-208.7594"/>
<polygon fill="#000000" stroke="#000000" points="2402.0906,-209.8497 2402.4647,-199.2615 2395.5693,-207.3054 2402.0906,-209.8497"/>
</g>
<!-- 意图与实现分离 重构方法 -->
<g id="node28" class="node">
<title>意图与实现分离 重构方法</title>
<polygon fill="none" stroke="#000000" points="2520.4148,-.5 2520.4148,-223.7 2684.5278,-223.7 2684.5278,-.5 2520.4148,-.5"/>
<text text-anchor="start" x="2575.0607" y="-208.1" font-family="Times,serif" font-weight="bold" font-size="14.00" fill="#000000">重构方法</text>
<polyline fill="none" stroke="#000000" points="2520.4148,-198.9 2684.5278,-198.9 "/>
<text text-anchor="start" x="2537.7388" y="-182.3" font-family="Times,serif" font-size="14.00" fill="#000000">Encapsulate Collection</text>
<polyline fill="none" stroke="#000000" points="2520.4148,-174.1 2684.5278,-174.1 "/>
<text text-anchor="start" x="2546.6897" y="-157.5" font-family="Times,serif" font-size="14.00" fill="#000000">Encapsulate Record</text>
<polyline fill="none" stroke="#000000" points="2520.4148,-149.3 2684.5278,-149.3 "/>
<text text-anchor="start" x="2542.8068" y="-132.7" font-family="Times,serif" font-size="14.00" fill="#000000">Encapsulate Variable</text>
<polyline fill="none" stroke="#000000" points="2520.4148,-124.5 2684.5278,-124.5 "/>
<text text-anchor="start" x="2555.6203" y="-107.9" font-family="Times,serif" font-size="14.00" fill="#000000">Extract Function</text>
<polyline fill="none" stroke="#000000" points="2520.4148,-99.7 2684.5278,-99.7 "/>
<text text-anchor="start" x="2556.4134" y="-83.1" font-family="Times,serif" font-size="14.00" fill="#000000">Extract Variable</text>
<polyline fill="none" stroke="#000000" points="2520.4148,-74.9 2684.5278,-74.9 "/>
<text text-anchor="start" x="2562.2423" y="-58.3" font-family="Times,serif" font-size="14.00" fill="#000000">Hide Delegate</text>
<polyline fill="none" stroke="#000000" points="2520.4148,-50.1 2684.5278,-50.1 "/>
<text text-anchor="start" x="2528.4148" y="-33.5" font-family="Times,serif" font-size="14.00" fill="#000000">Replace Temp with Query</text>
<polyline fill="none" stroke="#000000" points="2520.4148,-25.3 2684.5278,-25.3 "/>
<text text-anchor="start" x="2545.0615" y="-8.7" font-family="Times,serif" font-size="14.00" fill="#000000">封装条件表达式</text>
</g>
<!-- 意图与实现分离&#45;&gt;意图与实现分离 重构方法 -->
<g id="edge30" class="edge">
<title>意图与实现分离-&gt;意图与实现分离 重构方法</title>
<path fill="none" stroke="#000000" d="M2422.5696,-265.7914C2450.5883,-257.0686 2484.918,-243.5635 2511.4713,-224.2 2511.6548,-224.0661 2511.8382,-223.9318 2512.0215,-223.7971"/>
<polygon fill="#000000" stroke="#000000" points="2514.4283,-226.3583 2520.1547,-217.4442 2510.1193,-220.8417 2514.4283,-226.3583"/>
</g>
<!-- 意图与实现分离 设计模式 -->
<g id="node29" class="node">
<title>意图与实现分离 设计模式</title>
<polygon fill="none" stroke="#000000" points="2259.9755,-74.9 2259.9755,-149.3 2352.9671,-149.3 2352.9671,-74.9 2259.9755,-74.9"/>
<text text-anchor="start" x="2267.9755" y="-133.7" font-family="Times,serif" font-weight="bold" font-size="14.00" fill="#000000">设计模式</text>
<polyline fill="none" stroke="#000000" points="2259.9755,-124.5 2352.9671,-124.5 "/>
<text text-anchor="start" x="2274.391" y="-107.9" font-family="Times,serif" font-size="14.00" fill="#000000">代理模式</text>
<polyline fill="none" stroke="#000000" points="2259.9755,-99.7 2352.9671,-99.7 "/>
<text text-anchor="start" x="2268.5614" y="-83.1" font-family="Times,serif" font-size="14.00" fill="#000000">装饰模式</text>
</g>
<!-- 意图与实现分离&#45;&gt;意图与实现分离 设计模式 -->
<g id="edge31" class="edge">
<title>意图与实现分离-&gt;意图与实现分离 设计模式</title>
<path fill="none" stroke="#000000" d="M2364.3914,-260.5537C2354.958,-236.3752 2337.9282,-192.7263 2324.7671,-158.9936"/>
<polygon fill="#000000" stroke="#000000" points="2327.8892,-157.3661 2320.9938,-149.3222 2321.3679,-159.9104 2327.8892,-157.3661"/>
</g>
<!-- 方便使用者 Bad codes -->
<g id="node23" class="node">
<title>方便使用者 Bad codes</title>
<polygon fill="none" stroke="#000000" points="1028.372,-74.9 1028.372,-149.3 1216.5706,-149.3 1216.5706,-74.9 1028.372,-74.9"/>
<text text-anchor="start" x="1093.5088" y="-133.7" font-family="Times,serif" font-weight="bold" font-size="14.00" fill="#000000">Bad codes</text>
<polyline fill="none" stroke="#000000" points="1028.372,-124.5 1216.5706,-124.5 "/>
<text text-anchor="start" x="1064.9341" y="-107.9" font-family="Times,serif" font-size="14.00" fill="#000000">Long Parameter List</text>
<polyline fill="none" stroke="#000000" points="1028.372,-99.7 1216.5706,-99.7 "/>
<text text-anchor="start" x="1036.372" y="-83.1" font-family="Times,serif" font-size="14.00" fill="#000000">Replace Parameter with Query</text>
</g>
<!-- 方便使用者&#45;&gt;方便使用者 Bad codes -->
<g id="edge25" class="edge">
<title>方便使用者-&gt;方便使用者 Bad codes</title>
<path fill="none" stroke="#000000" d="M1122.4713,-260.5537C1122.4713,-236.479 1122.4713,-193.1006 1122.4713,-159.4285"/>
<polygon fill="#000000" stroke="#000000" points="1125.9714,-159.3222 1122.4713,-149.3222 1118.9714,-159.3222 1125.9714,-159.3222"/>
</g>
<!-- 方便使用者 重构方法 -->
<g id="node24" class="node">
<title>方便使用者 重构方法</title>
<polygon fill="none" stroke="#000000" points="752.1648,-62.5 752.1648,-161.7 1010.7778,-161.7 1010.7778,-62.5 752.1648,-62.5"/>
<text text-anchor="start" x="854.0607" y="-146.1" font-family="Times,serif" font-weight="bold" font-size="14.00" fill="#000000">重构方法</text>
<polyline fill="none" stroke="#000000" points="752.1648,-136.9 1010.7778,-136.9 "/>
<text text-anchor="start" x="782.5109" y="-120.3" font-family="Times,serif" font-size="14.00" fill="#000000">Combine Functions into Transform</text>
<polyline fill="none" stroke="#000000" points="752.1648,-112.1 1010.7778,-112.1 "/>
<text text-anchor="start" x="760.1648" y="-95.5" font-family="Times,serif" font-size="14.00" fill="#000000">Replace Constructor with Factory Function</text>
<polyline fill="none" stroke="#000000" points="752.1648,-87.3 1010.7778,-87.3 "/>
<text text-anchor="start" x="795.372" y="-70.7" font-family="Times,serif" font-size="14.00" fill="#000000">Replace Parameter with Query</text>
</g>
<!-- 方便使用者&#45;&gt;方便使用者 重构方法 -->
<g id="edge26" class="edge">
<title>方便使用者-&gt;方便使用者 重构方法</title>
<path fill="none" stroke="#000000" d="M1083.7837,-260.4847C1064.0147,-250.6202 1039.8876,-237.7061 1019.4713,-224.2 994.2551,-207.5186 968.1324,-187.1912 945.4884,-168.45"/>
<polygon fill="#000000" stroke="#000000" points="947.5523,-165.6137 937.6312,-161.8957 943.0683,-170.9891 947.5523,-165.6137"/>
</g>
<!-- 低耦合 Bad codes -->
<g id="node30" class="node">
<title>低耦合 Bad codes</title>
<polygon fill="none" stroke="#000000" points="1234.7893,-74.9 1234.7893,-149.3 1342.1533,-149.3 1342.1533,-74.9 1234.7893,-74.9"/>
<text text-anchor="start" x="1259.5088" y="-133.7" font-family="Times,serif" font-weight="bold" font-size="14.00" fill="#000000">Bad codes</text>
<polyline fill="none" stroke="#000000" points="1234.7893,-124.5 1342.1533,-124.5 "/>
<text text-anchor="start" x="1250.9562" y="-107.9" font-family="Times,serif" font-size="14.00" fill="#000000">Feature Envy</text>
<polyline fill="none" stroke="#000000" points="1234.7893,-99.7 1342.1533,-99.7 "/>
<text text-anchor="start" x="1242.7893" y="-83.1" font-family="Times,serif" font-size="14.00" fill="#000000">Message Chains</text>
</g>
<!-- 低耦合&#45;&gt;低耦合 Bad codes -->
<g id="edge32" class="edge">
<title>低耦合-&gt;低耦合 Bad codes</title>
<path fill="none" stroke="#000000" d="M1420.7791,-266.6625C1399.0096,-257.5883 1371.1715,-243.4074 1351.4713,-224.2 1332.5895,-205.7906 1317.7192,-180.5027 1307.1786,-158.6037"/>
<polygon fill="#000000" stroke="#000000" points="1310.3158,-157.0493 1302.9273,-149.4559 1303.9678,-159.9995 1310.3158,-157.0493"/>
</g>
<!-- 低耦合 重构方法 -->
<g id="node31" class="node">
<title>低耦合 重构方法</title>
<polygon fill="none" stroke="#000000" points="1360.372,-74.9 1360.372,-149.3 1548.5706,-149.3 1548.5706,-74.9 1360.372,-74.9"/>
<text text-anchor="start" x="1427.0607" y="-133.7" font-family="Times,serif" font-weight="bold" font-size="14.00" fill="#000000">重构方法</text>
<polyline fill="none" stroke="#000000" points="1360.372,-124.5 1548.5706,-124.5 "/>
<text text-anchor="start" x="1368.372" y="-107.9" font-family="Times,serif" font-size="14.00" fill="#000000">Replace Query with Parameter</text>
<polyline fill="none" stroke="#000000" points="1360.372,-99.7 1548.5706,-99.7 "/>
<text text-anchor="start" x="1390.7139" y="-83.1" font-family="Times,serif" font-size="14.00" fill="#000000">Split Parameter Object</text>
</g>
<!-- 低耦合&#45;&gt;低耦合 重构方法 -->
<g id="edge33" class="edge">
<title>低耦合-&gt;低耦合 重构方法</title>
<path fill="none" stroke="#000000" d="M1454.4713,-260.5537C1454.4713,-236.479 1454.4713,-193.1006 1454.4713,-159.4285"/>
<polygon fill="#000000" stroke="#000000" points="1457.9714,-159.3222 1454.4713,-149.3222 1450.9714,-159.3222 1457.9714,-159.3222"/>
</g>
<!-- 低耦合 设计模式 -->
<g id="node32" class="node">
<title>低耦合 设计模式</title>
<polygon fill="none" stroke="#000000" points="1566.2041,-87.3 1566.2041,-136.9 1660.7385,-136.9 1660.7385,-87.3 1566.2041,-87.3"/>
<text text-anchor="start" x="1574.9755" y="-121.3" font-family="Times,serif" font-weight="bold" font-size="14.00" fill="#000000">设计模式</text>
<polyline fill="none" stroke="#000000" points="1566.2041,-112.1 1660.7385,-112.1 "/>
<text text-anchor="start" x="1574.2041" y="-95.5" font-family="Times,serif" font-size="14.00" fill="#000000">中介者模式</text>
</g>
<!-- 低耦合&#45;&gt;低耦合 设计模式 -->
<g id="edge34" class="edge">
<title>低耦合-&gt;低耦合 设计模式</title>
<path fill="none" stroke="#000000" d="M1487.9936,-267.1714C1509.9668,-258.2406 1538.1034,-244.0262 1557.4713,-224.2 1578.8495,-202.316 1593.6388,-170.6484 1602.6272,-146.5494"/>
<polygon fill="#000000" stroke="#000000" points="1605.9472,-147.6594 1606.0141,-137.0648 1599.3549,-145.3053 1605.9472,-147.6594"/>
</g>
<!-- ETC_h -->
<g id="node10" class="node">
<title>ETC_h</title>
<polygon fill="none" stroke="#000000" points="2194.2504,-333.7 2194.2504,-369.7 2250.6922,-369.7 2250.6922,-333.7 2194.2504,-333.7"/>
<text text-anchor="middle" x="2222.4713" y="-347.5" font-family="Times,serif" font-size="14.00" fill="#000000">ETC_h</text>
</g>
<!-- ETC_h&#45;&gt;高内聚 -->
<g id="edge9" class="edge">
<title>ETC_h-&gt;高内聚</title>
<path fill="none" stroke="#000000" d="M2194.1722,-350.3706C2005.8765,-341.5253 934.8291,-291.2123 709.909,-280.6466"/>
<polygon fill="#000000" stroke="#000000" points="709.9982,-277.147 699.845,-280.1738 709.6697,-284.1393 709.9982,-277.147"/>
</g>
<!-- ETC_h&#45;&gt;SRP -->
<g id="edge10" class="edge">
<title>ETC_h-&gt;SRP</title>
<path fill="none" stroke="#000000" d="M2194.1865,-342.0062C2156.0519,-328.9365 2088.0986,-305.6474 2046.0979,-291.2528"/>
<polygon fill="#000000" stroke="#000000" points="2047.1202,-287.9033 2036.5256,-287.9721 2044.8507,-294.5252 2047.1202,-287.9033"/>
</g>
<!-- ETC_h&#45;&gt;意图与实现分离 -->
<g id="edge11" class="edge">
<title>ETC_h-&gt;意图与实现分离</title>
<path fill="none" stroke="#000000" d="M2250.8478,-337.7974C2271.9613,-327.4532 2301.2231,-313.1169 2325.6381,-301.1552"/>
<polygon fill="#000000" stroke="#000000" points="2327.2907,-304.2431 2334.731,-296.7003 2324.2109,-297.957 2327.2907,-304.2431"/>
</g>
<!-- ETC_h&#45;&gt;低耦合 -->
<g id="edge12" class="edge">
<title>ETC_h-&gt;低耦合</title>
<path fill="none" stroke="#000000" d="M2194.2269,-349.0153C2078.3252,-337.9986 1638.7075,-296.212 1498.0414,-282.8414"/>
<polygon fill="#000000" stroke="#000000" points="1498.3386,-279.354 1488.0523,-281.8919 1497.6762,-286.3226 1498.3386,-279.354"/>
</g>
<!-- OCP -->
<g id="node11" class="node">
<title>OCP</title>
<polygon fill="none" stroke="#000000" points="2786.4713,-260.7 2786.4713,-296.7 2840.4713,-296.7 2840.4713,-260.7 2786.4713,-260.7"/>
<text text-anchor="middle" x="2813.0842" y="-274.5" font-family="Times,serif" font-size="14.00" fill="#000000">OCP</text>
</g>
<!-- ETC_h&#45;&gt;OCP -->
<g id="edge13" class="edge">
<title>ETC_h-&gt;OCP</title>
<path fill="none" stroke="#000000" d="M2250.9765,-348.1791C2348.1559,-336.1755 2666.4997,-296.8539 2776.0438,-283.323"/>
<polygon fill="#000000" stroke="#000000" points="2776.7812,-286.7586 2786.2767,-282.0591 2775.923,-279.8114 2776.7812,-286.7586"/>
</g>
<!-- DRY -->
<g id="node12" class="node">
<title>DRY</title>
<polygon fill="none" stroke="#000000" points="3088.4713,-260.7 3088.4713,-296.7 3142.4713,-296.7 3142.4713,-260.7 3088.4713,-260.7"/>
<text text-anchor="middle" x="3115.2462" y="-274.5" font-family="Times,serif" font-size="14.00" fill="#000000">DRY</text>
</g>
<!-- ETC_h&#45;&gt;DRY -->
<g id="edge14" class="edge">
<title>ETC_h-&gt;DRY</title>
<path fill="none" stroke="#000000" d="M2251.1716,-349.3538C2382.9473,-338.5816 2929.9035,-293.8696 3078.2253,-281.7447"/>
<polygon fill="#000000" stroke="#000000" points="3078.5229,-285.2322 3088.2044,-280.929 3077.9525,-278.2555 3078.5229,-285.2322"/>
</g>
<!-- OCP Bad codes -->
<g id="node19" class="node">
<title>OCP Bad codes</title>
<polygon fill="none" stroke="#000000" points="2826.2346,-87.3 2826.2346,-136.9 2936.708,-136.9 2936.708,-87.3 2826.2346,-87.3"/>
<text text-anchor="start" x="2852.5088" y="-121.3" font-family="Times,serif" font-weight="bold" font-size="14.00" fill="#000000">Bad codes</text>
<polyline fill="none" stroke="#000000" points="2826.2346,-112.1 2936.708,-112.1 "/>
<text text-anchor="start" x="2834.2346" y="-95.5" font-family="Times,serif" font-size="14.00" fill="#000000">Duplicated Code</text>
</g>
<!-- OCP&#45;&gt;OCP Bad codes -->
<g id="edge21" class="edge">
<title>OCP-&gt;OCP Bad codes</title>
<path fill="none" stroke="#000000" d="M2820.8779,-260.5537C2832.0476,-233.188 2853.3977,-180.8803 2867.5375,-146.2378"/>
<polygon fill="#000000" stroke="#000000" points="2870.7814,-147.5518 2871.32,-136.9707 2864.3005,-144.9065 2870.7814,-147.5518"/>
</g>
<!-- OCP 重构方法 -->
<g id="node20" class="node">
<title>OCP 重构方法</title>
<polygon fill="none" stroke="#000000" points="2955.1297,-62.5 2955.1297,-161.7 3265.8129,-161.7 3265.8129,-62.5 2955.1297,-62.5"/>
<text text-anchor="start" x="3083.0607" y="-146.1" font-family="Times,serif" font-weight="bold" font-size="14.00" fill="#000000">重构方法</text>
<polyline fill="none" stroke="#000000" points="2955.1297,-136.9 3265.8129,-136.9 "/>
<text text-anchor="start" x="3063.6203" y="-120.3" font-family="Times,serif" font-size="14.00" fill="#000000">Extract Function</text>
<polyline fill="none" stroke="#000000" points="2955.1297,-112.1 3265.8129,-112.1 "/>
<text text-anchor="start" x="3079.1659" y="-95.5" font-family="Times,serif" font-size="14.00" fill="#000000">Split Phase</text>
<polyline fill="none" stroke="#000000" points="2955.1297,-87.3 3265.8129,-87.3 "/>
<text text-anchor="start" x="2963.1297" y="-70.7" font-family="Times,serif" font-size="14.00" fill="#000000">Use decision table to replace complicated conditions</text>
</g>
<!-- OCP&#45;&gt;OCP 重构方法 -->
<g id="edge22" class="edge">
<title>OCP-&gt;OCP 重构方法</title>
<path fill="none" stroke="#000000" d="M2840.5037,-269.3933C2867.7163,-259.6001 2910.548,-243.0147 2945.4713,-224.2 2976.1408,-207.677 3008.1844,-186.8304 3035.7866,-167.6093"/>
<polygon fill="#000000" stroke="#000000" points="3038.0284,-170.312 3044.2038,-161.7029 3034.0076,-164.5819 3038.0284,-170.312"/>
</g>
<!-- OCP 设计模式 -->
<g id="node21" class="node">
<title>OCP 设计模式</title>
<polygon fill="none" stroke="#000000" points="2702.5614,-62.5 2702.5614,-161.7 2808.3812,-161.7 2808.3812,-62.5 2702.5614,-62.5"/>
<text text-anchor="start" x="2716.9755" y="-146.1" font-family="Times,serif" font-weight="bold" font-size="14.00" fill="#000000">设计模式</text>
<polyline fill="none" stroke="#000000" points="2702.5614,-136.9 2808.3812,-136.9 "/>
<text text-anchor="start" x="2710.5614" y="-120.3" font-family="Times,serif" font-size="14.00" fill="#000000">责任链模式</text>
<polyline fill="none" stroke="#000000" points="2702.5614,-112.1 2808.3812,-112.1 "/>
<text text-anchor="start" x="2725.4707" y="-95.5" font-family="Times,serif" font-size="14.00" fill="#000000">状态模式</text>
<polyline fill="none" stroke="#000000" points="2702.5614,-87.3 2808.3812,-87.3 "/>
<text text-anchor="start" x="2724.5607" y="-70.7" font-family="Times,serif" font-size="14.00" fill="#000000">策略模式</text>
</g>
<!-- OCP&#45;&gt;OCP 设计模式 -->
<g id="edge23" class="edge">
<title>OCP-&gt;OCP 设计模式</title>
<path fill="none" stroke="#000000" d="M2807.1539,-260.5537C2799.7304,-239.2304 2787.0348,-202.7636 2776.0847,-171.3102"/>
<polygon fill="#000000" stroke="#000000" points="2779.3435,-170.0254 2772.7502,-161.7321 2772.7327,-172.3269 2779.3435,-170.0254"/>
</g>
<!-- DRY Bad codes -->
<g id="node22" class="node">
<title>DRY Bad codes</title>
<polygon fill="none" stroke="#000000" points="3283.3145,-74.9 3283.3145,-149.3 3453.6281,-149.3 3453.6281,-74.9 3283.3145,-74.9"/>
<text text-anchor="start" x="3339.5088" y="-133.7" font-family="Times,serif" font-weight="bold" font-size="14.00" fill="#000000">Bad codes</text>
<polyline fill="none" stroke="#000000" points="3283.3145,-124.5 3453.6281,-124.5 "/>
<text text-anchor="start" x="3291.3145" y="-107.9" font-family="Times,serif" font-size="14.00" fill="#000000">Change Value to Reference</text>
<polyline fill="none" stroke="#000000" points="3283.3145,-99.7 3453.6281,-99.7 "/>
<text text-anchor="start" x="3321.2346" y="-83.1" font-family="Times,serif" font-size="14.00" fill="#000000">Duplicated Code</text>
</g>
<!-- DRY&#45;&gt;DRY Bad codes -->
<g id="edge24" class="edge">
<title>DRY-&gt;DRY Bad codes</title>
<path fill="none" stroke="#000000" d="M3142.5196,-274.0641C3175.8758,-267.3575 3233.2128,-252.5238 3274.4713,-224.2 3300.0205,-206.6606 3322.569,-180.3748 3339.1731,-157.6645"/>
<polygon fill="#000000" stroke="#000000" points="3342.053,-159.6543 3345.0161,-149.4822 3336.3564,-155.5863 3342.053,-159.6543"/>
</g>
<!-- ETC_o -->
<g id="node13" class="node">
<title>ETC_o</title>
<polygon fill="none" stroke="#000000" points="3328.2504,-333.7 3328.2504,-369.7 3384.6922,-369.7 3384.6922,-333.7 3328.2504,-333.7"/>
<text text-anchor="middle" x="3356.4713" y="-347.5" font-family="Times,serif" font-size="14.00" fill="#000000">ETC_o</text>
</g>
<!-- ETC_o&#45;&gt;意图与实现分离 -->
<g id="edge15" class="edge">
<title>ETC_o-&gt;意图与实现分离</title>
<path fill="none" stroke="#000000" d="M3328.0544,-349.594C3193.8626,-339.6488 2622.2457,-297.2853 2432.7663,-283.2427"/>
<polygon fill="#000000" stroke="#000000" points="2432.9322,-279.7455 2422.7008,-282.4967 2432.4148,-286.7263 2432.9322,-279.7455"/>
</g>
<!-- 封装读取和设置方法 -->
<g id="node14" class="node">
<title>封装读取和设置方法</title>
<polygon fill="none" stroke="#000000" points="3275.3612,-260.7 3275.3612,-296.7 3437.5814,-296.7 3437.5814,-260.7 3275.3612,-260.7"/>
<text text-anchor="middle" x="3356.4713" y="-274.5" font-family="Times,serif" font-size="14.00" fill="#000000">封装读取和设置方法</text>
</g>
<!-- ETC_o&#45;&gt;封装读取和设置方法 -->
<g id="edge16" class="edge">
<title>ETC_o-&gt;封装读取和设置方法</title>
<path fill="none" stroke="#000000" d="M3356.4713,-333.6551C3356.4713,-325.5828 3356.4713,-315.8764 3356.4713,-306.8817"/>
<polygon fill="#000000" stroke="#000000" points="3359.9714,-306.7903 3356.4713,-296.7904 3352.9714,-306.7904 3359.9714,-306.7903"/>
</g>
<!-- 消除非必要的可变性 -->
<g id="node15" class="node">
<title>消除非必要的可变性</title>
<polygon fill="none" stroke="#000000" points="3513.2512,-260.7 3513.2512,-296.7 3657.6914,-296.7 3657.6914,-260.7 3513.2512,-260.7"/>
<text text-anchor="middle" x="3585.4713" y="-274.5" font-family="Times,serif" font-size="14.00" fill="#000000">消除非必要的可变性</text>
</g>
<!-- ETC_o&#45;&gt;消除非必要的可变性 -->
<g id="edge17" class="edge">
<title>ETC_o-&gt;消除非必要的可变性</title>
<path fill="none" stroke="#000000" d="M3385.0113,-342.6021C3418.41,-331.9554 3474.8038,-313.9783 3519.285,-299.7987"/>
<polygon fill="#000000" stroke="#000000" points="3520.4057,-303.115 3528.8703,-296.7431 3518.2796,-296.4457 3520.4057,-303.115"/>
</g>
<!-- 消除非必要的可变性 Bad codes -->
<g id="node25" class="node">
<title>消除非必要的可变性 Bad codes</title>
<polygon fill="none" stroke="#000000" points="3717.1806,-74.9 3717.1806,-149.3 3809.762,-149.3 3809.762,-74.9 3717.1806,-74.9"/>
<text text-anchor="start" x="3734.5088" y="-133.7" font-family="Times,serif" font-weight="bold" font-size="14.00" fill="#000000">Bad codes</text>
<polyline fill="none" stroke="#000000" points="3717.1806,-124.5 3809.762,-124.5 "/>
<text text-anchor="start" x="3729.4569" y="-107.9" font-family="Times,serif" font-size="14.00" fill="#000000">Global Data</text>
<polyline fill="none" stroke="#000000" points="3717.1806,-99.7 3809.762,-99.7 "/>
<text text-anchor="start" x="3725.1806" y="-83.1" font-family="Times,serif" font-size="14.00" fill="#000000">Mutable Data</text>
</g>
<!-- 消除非必要的可变性&#45;&gt;消除非必要的可变性 Bad codes -->
<g id="edge27" class="edge">
<title>消除非必要的可变性-&gt;消除非必要的可变性 Bad codes</title>
<path fill="none" stroke="#000000" d="M3648.075,-260.6872C3669.1857,-252.2477 3691.6366,-240.3901 3708.4713,-224.2 3726.982,-206.3981 3740.1388,-181.0658 3748.9329,-158.9851"/>
<polygon fill="#000000" stroke="#000000" points="3752.2826,-160.0224 3752.5536,-149.431 3745.7369,-157.5417 3752.2826,-160.0224"/>
</g>
<!-- 消除非必要的可变性 重构方法 -->
<g id="node26" class="node">
<title>消除非必要的可变性 重构方法</title>
<polygon fill="none" stroke="#000000" points="3471.3541,-37.7 3471.3541,-186.5 3699.5885,-186.5 3699.5885,-37.7 3471.3541,-37.7"/>
<text text-anchor="start" x="3558.0607" y="-170.9" font-family="Times,serif" font-weight="bold" font-size="14.00" fill="#000000">重构方法</text>
<polyline fill="none" stroke="#000000" points="3471.3541,-161.7 3699.5885,-161.7 "/>
<text text-anchor="start" x="3508.3145" y="-145.1" font-family="Times,serif" font-size="14.00" fill="#000000">Change Reference to Value</text>
<polyline fill="none" stroke="#000000" points="3471.3541,-136.9 3699.5885,-136.9 "/>
<text text-anchor="start" x="3520.7388" y="-120.3" font-family="Times,serif" font-size="14.00" fill="#000000">Encapsulate Collection</text>
<polyline fill="none" stroke="#000000" points="3471.3541,-112.1 3699.5885,-112.1 "/>
<text text-anchor="start" x="3517.0337" y="-95.5" font-family="Times,serif" font-size="14.00" fill="#000000">Remove Setting Method</text>
<polyline fill="none" stroke="#000000" points="3471.3541,-87.3 3699.5885,-87.3 "/>
<text text-anchor="start" x="3479.3541" y="-70.7" font-family="Times,serif" font-size="14.00" fill="#000000">Replace Derived Variable with Query</text>
<polyline fill="none" stroke="#000000" points="3471.3541,-62.5 3699.5885,-62.5 "/>
<text text-anchor="start" x="3511.2125" y="-45.9" font-family="Times,serif" font-size="14.00" fill="#000000">用常量代替基础类型值</text>
</g>
<!-- 消除非必要的可变性&#45;&gt;消除非必要的可变性 重构方法 -->
<g id="edge28" class="edge">
<title>消除非必要的可变性-&gt;消除非必要的可变性 重构方法</title>
<path fill="none" stroke="#000000" d="M3585.4713,-260.5537C3585.4713,-244.9098 3585.4713,-221.1148 3585.4713,-197.1287"/>
<polygon fill="#000000" stroke="#000000" points="3588.9714,-196.8604 3585.4713,-186.8604 3581.9714,-196.8604 3588.9714,-196.8604"/>
</g>
</g>
</svg>