<svg xmlns="http://www.w3.org/2000/svg" xmlns:xlink="http://www.w3.org/1999/xlink" viewBox="0 0 123 47"><defs><style>.cls-1{isolation:isolate}.cls-2{opacity:.3;mix-blend-mode:multiply}.cls-3{fill:#231f20}.cls-4{fill:url(#linear-gradient)}.cls-5{fill:url(#linear-gradient-2)}.cls-6{fill:url(#linear-gradient-3)}.cls-7{fill:url(#linear-gradient-4)}.cls-8{fill:url(#linear-gradient-5)}.cls-9{fill:url(#linear-gradient-6)}.cls-10{fill:url(#linear-gradient-7)}</style><linearGradient id="linear-gradient" x1="34.87" y1="38.62" x2="34.87" y2="46.75" gradientUnits="userSpaceOnUse"><stop offset="0" stop-color="#fff"/><stop offset="1" stop-color="#fff"/></linearGradient><linearGradient id="linear-gradient-2" x1="47.35" y1="38.62" x2="47.35" y2="46.75" xlink:href="#linear-gradient"/><linearGradient id="linear-gradient-3" x1="70.93" y1="38.62" x2="70.93" y2="46.75" xlink:href="#linear-gradient"/><linearGradient id="linear-gradient-4" x1="81.92" y1="38.62" x2="81.92" y2="46.75" xlink:href="#linear-gradient"/><linearGradient id="linear-gradient-5" x1="92.35" y1="38.62" x2="92.35" y2="46.75" xlink:href="#linear-gradient"/><linearGradient id="linear-gradient-6" x1="59.31" y1="38.58" x2="59.31" y2="46.75" xlink:href="#linear-gradient"/><linearGradient id="linear-gradient-7" x1="61.5" y1=".5" x2="61.5" y2="32.86" xlink:href="#linear-gradient"/></defs><title>Home-LogoArtboard 1</title><g class="cls-1"><g id="Layer_2" data-name="Layer 2"><g class="cls-2"><path class="cls-3" d="M38.72 37.92h-1.27a.26.26 0 0 0-.21.1L35 41.81c-.11.14-.19.14-.29 0L32.48 38a.26.26 0 0 0-.21-.11H31a.26.26 0 0 0-.26.26v7.61a.26.26 0 0 0 .26.26h1.24a.26.26 0 0 0 .26-.26v-3.88c0-.25.24-.36.39-.16l1.7 2.78a.26.26 0 0 0 .42 0l1.76-2.79c.15-.2.39-.09.39.16v3.91a.26.26 0 0 0 .26.26h1.27a.26.26 0 0 0 .26-.26v-7.6a.26.26 0 0 0-.23-.26zM48.26 38.07a.26.26 0 0 0-.24-.15h-1.34a.26.26 0 0 0-.24.15l-3.36 7.61a.26.26 0 0 0 .24.36h1.35a.26.26 0 0 0 .24-.17l.5-1.27a.26.26 0 0 1 .24-.17h3.41a.26.26 0 0 1 .24.16l.51 1.28a.26.26 0 0 0 .24.16h1.33a.26.26 0 0 0 .24-.36zm0 4.79h-1.78a.26.26 0 0 1-.24-.36l.86-2.18a.26.26 0 0 1 .48 0l.87 2.18a.26.26 0 0 1-.24.37zM71.56 41.63a.26.26 0 0 1 0-.31l2.44-3a.26.26 0 0 0-.2-.42h-1.34a.26.26 0 0 0-.2.1l-2.74 3.45a.26.26 0 0 1-.46-.16v-3.12a.26.26 0 0 0-.26-.26h-1.2a.26.26 0 0 0-.26.26v7.62a.26.26 0 0 0 .26.26h1.21a.26.26 0 0 0 .26-.26v-1.32a.26.26 0 0 1 .06-.16l1-1.26a.26.26 0 0 1 .41 0l2 2.88a.26.26 0 0 0 .21.11h1.5a.26.26 0 0 0 .21-.41zM84.71 44.48h-3.83a.29.29 0 0 1-.29-.29V43a.29.29 0 0 1 .29-.29h2.56a.29.29 0 0 0 .29-.29v-.89a.29.29 0 0 0-.29-.29h-2.56a.29.29 0 0 1-.29-.29v-1.17a.29.29 0 0 1 .29-.29h3.56a.29.29 0 0 0 .29-.29v-1a.29.29 0 0 0-.29-.29h-5.3a.29.29 0 0 0-.29.29v7.55a.29.29 0 0 0 .29.29h5.57a.29.29 0 0 0 .29-.29v-1a.29.29 0 0 0-.29-.27zM95.61 37.92H89.1a.26.26 0 0 0-.26.26v1.05a.26.26 0 0 0 .26.26h2.12a.26.26 0 0 1 .26.26v6a.26.26 0 0 0 .26.26H93a.26.26 0 0 0 .26-.26v-6a.26.26 0 0 1 .26-.26h2.13a.26.26 0 0 0 .26-.26v-1.05a.26.26 0 0 0-.3-.26zM62.57 40.94c0-1.78-1.35-3-3.69-3.06h-2.55a.26.26 0 0 0-.26.26v7.62a.26.26 0 0 0 .26.26h1.22a.26.26 0 0 0 .26-.26v-1.59c0-.2 0-.26.26-.26h1.13c.29 0 .36 0 .44.13l.93 1.85a.26.26 0 0 0 .23.14h1.4a.26.26 0 0 0 .23-.38l-1.08-2.13a.26.26 0 0 1 .09-.33 2.68 2.68 0 0 0 1.13-2.25zM59 42.36h-1a.26.26 0 0 1-.26-.26v-2.41a.26.26 0 0 1 .26-.26h.9c1.06 0 1.86.53 1.86 1.44s-.49 1.4-1.76 1.49zM120 21.93c-.11.11-1.13 6.27-5.51 6.27-1.7 0-2.9-1.29-3.65-2.83A8.59 8.59 0 0 0 118 17a4.25 4.25 0 0 0-4.44-4.6c-3.34 0-7.68 3.1-7.68 9.17a13.54 13.54 0 0 0 .09 1.58 4.94 4.94 0 0 1-2.84-2c1-4.48.82-8.77-1.25-8.77-1.16 0-2.16 1.53-2.16 4.87a9.14 9.14 0 0 0 1 4.12c-.43 2-1.89 7-3.75 7-2.56 0-1.77-12.19-1.77-14 0-1.47-3.55-3-4.33-2.23-.34.34-.4 2.32-.4 4.9a36.78 36.78 0 0 0 .72 6.96c-.25 1.25-1.3 4.47-3.28 4.47-3.06 0-1.51-11.54-1.51-13.4 0-1.33-3.42-2.57-4.25-1.74-.33.33-.56 2.66-.56 6.3a32.64 32.64 0 0 0 .31 4.64c-.32 1.61-1.59 4.2-3.65 4.2-3.27 0-1.82-12.65-1-20.45.53-.1 1.08-.18 1.64-.24 1.43-.16 3.19-.44 3.19.43a2.38 2.38 0 0 0 2.37 2.68c1.1 0 2.1-.87 2.1-2.54s-1.42-3.19-4-3.19a31.26 31.26 0 0 0-5.06.47c.14-1.3.23-2.34.23-3 0-1.74-3.57-3.4-4.27-2.7a44.28 44.28 0 0 0-1 6.63 37.84 37.84 0 0 1-7.36.93c-.84 0-.73 2.54 2.14 2.54a19.42 19.42 0 0 0 5-.81c-.23 2.64-.4 5.56-.4 8.38a40.4 40.4 0 0 0 .46 6.59c-.32 1.4-1.34 4.23-3.18 4.23-3.59 0-1.89-12.42-1.89-14.28 0-.88-3.27-2.79-3.94-2.11a1.92 1.92 0 0 0-.15.62 3 3 0 0 0-1.64-.32c-4.58 0-8.27 5.66-8.27 10.83v.72c-.71 1.66-2.51 4.54-5.76 4.54A4.25 4.25 0 0 1 43.9 26a9.42 9.42 0 0 0 7-8.67 4.91 4.91 0 0 0-4.85-4.94c-3.54 0-7.45 3.55-7.45 9.54a11 11 0 0 0 .9 4.52 3.68 3.68 0 0 1-2.94 2c-3.67 0-1.21-12.34-1.21-13.66a1.5 1.5 0 0 0-.58-1.35C34 12.91 29.6 12.32 28.1 12v-.9c0-2.39-1.5-2.94-2.46-2.94-1.63 0-2 1.83-2 2.27a3.39 3.39 0 0 0 1.75 2.94c0 4.46-2.84 15-10.46 15-5.75 0-7.85-5.92-7.85-10.34 0-7.43 4.36-13.17 7.18-13.17 3.54 0 .42 6.82 4 6.82 2.49 0 2.84-2.41 2.84-3.52a6.64 6.64 0 0 0-6.78-6c-7.36 0-12.81 9-12.81 16.65 0 7.38 5.07 13.33 12.18 13.33 11 0 13.73-11.67 14.3-18.2a24.89 24.89 0 0 1 2.61.67c.29.29-.56 4.25-.56 8.06 0 4.78 1.57 8.6 5.33 8.6 2.36 0 4.25-1.71 5.25-3a7.52 7.52 0 0 0 5.89 3 8.86 8.86 0 0 0 7.37-4.17c1 2.79 3.15 4.17 5.06 4.17 2.67 0 4.28-3.59 4.37-4.17.81 2.5 2.69 4.22 4.82 4.22 2.69 0 4.31-2.44 5-4 1 2.58 2.48 4 4.67 4 2.51 0 4.16-2.28 4.91-3.81.79 2.23 2.11 3.81 4.21 3.81 2.81 0 4.55-2.87 5.14-4.33.92 2.46 2.37 4.24 4.59 4.24 2.48 0 4.62-3.54 5.91-7.55a7.34 7.34 0 0 0 4.05 1.94 7.78 7.78 0 0 0 7.25 5.61c5.38 0 7.44-5.52 7.66-6.82s-1.07-2.89-1.52-2.48zm-74.18-7.8c2.24 0 .91 8.56-2.77 10a8.86 8.86 0 0 1-.42-2.48c.04-2.92 1.18-7.52 3.23-7.52zm13.66 13.6c-3.91 0-1.18-13.55 2-13.55 2.08 0 1.74 13.55-2 13.55zm53.62-13.54c2.16 0 .93 8.83-2.85 9.41a8.34 8.34 0 0 1-.28-2c.03-2.87 1.08-7.41 3.13-7.41z"/></g><path class="cls-4" d="M38.72 38.62h-1.27a.26.26 0 0 0-.21.1L35 42.51c-.11.14-.19.14-.29 0l-2.2-3.79a.26.26 0 0 0-.21-.11H31a.26.26 0 0 0-.26.26v7.61a.26.26 0 0 0 .26.26h1.24a.26.26 0 0 0 .26-.26v-3.9c0-.25.24-.36.39-.16l1.7 2.78a.26.26 0 0 0 .42 0l1.76-2.79c.15-.2.39-.09.39.16v3.91a.26.26 0 0 0 .26.26h1.27a.26.26 0 0 0 .26-.26v-7.6a.26.26 0 0 0-.23-.26z"/><path class="cls-5" d="M48.26 38.77a.26.26 0 0 0-.24-.15h-1.34a.26.26 0 0 0-.24.15l-3.36 7.61a.26.26 0 0 0 .24.36h1.35a.26.26 0 0 0 .24-.17l.5-1.27a.26.26 0 0 1 .24-.17h3.41a.26.26 0 0 1 .24.16l.51 1.28a.26.26 0 0 0 .24.16h1.33a.26.26 0 0 0 .24-.36zm0 4.79h-1.78a.26.26 0 0 1-.24-.36l.86-2.2a.26.26 0 0 1 .48 0l.87 2.18a.26.26 0 0 1-.24.39z"/><path class="cls-6" d="M71.56 42.33a.26.26 0 0 1 0-.31L74 39a.26.26 0 0 0-.2-.42h-1.34a.26.26 0 0 0-.2.1l-2.74 3.45a.26.26 0 0 1-.46-.16v-3.1a.26.26 0 0 0-.26-.26h-1.2a.26.26 0 0 0-.26.26v7.62a.26.26 0 0 0 .26.26h1.21a.26.26 0 0 0 .26-.26v-1.32a.26.26 0 0 1 .06-.16l1-1.26a.26.26 0 0 1 .41 0l2 2.88a.26.26 0 0 0 .21.11h1.5a.26.26 0 0 0 .21-.41z"/><path class="cls-7" d="M84.71 45.18h-3.83a.29.29 0 0 1-.29-.29V43.7a.29.29 0 0 1 .29-.29h2.56a.29.29 0 0 0 .29-.29v-.89a.29.29 0 0 0-.29-.29h-2.56a.29.29 0 0 1-.29-.29v-1.17a.29.29 0 0 1 .29-.29h3.56a.29.29 0 0 0 .29-.29v-1a.29.29 0 0 0-.29-.29h-5.3a.29.29 0 0 0-.29.29v7.55a.29.29 0 0 0 .29.29h5.57a.29.29 0 0 0 .29-.29v-1a.29.29 0 0 0-.29-.27z"/><path class="cls-8" d="M95.61 38.62H89.1a.26.26 0 0 0-.26.26v1.05a.26.26 0 0 0 .26.26h2.12a.26.26 0 0 1 .26.26v6a.26.26 0 0 0 .26.26H93a.26.26 0 0 0 .26-.26v-6a.26.26 0 0 1 .26-.26h2.13a.26.26 0 0 0 .26-.26v-1.05a.26.26 0 0 0-.3-.26z"/><path class="cls-9" d="M62.57 41.64c0-1.78-1.35-3-3.69-3.06h-2.55a.26.26 0 0 0-.26.26v7.62a.26.26 0 0 0 .26.26h1.22a.26.26 0 0 0 .26-.26v-1.59c0-.2 0-.26.26-.26h1.13c.29 0 .36 0 .44.13l.93 1.85a.26.26 0 0 0 .23.14h1.4a.26.26 0 0 0 .23-.38l-1.08-2.13a.26.26 0 0 1 .09-.33 2.68 2.68 0 0 0 1.13-2.25zM59 43.06h-1a.26.26 0 0 1-.26-.26v-2.41a.26.26 0 0 1 .26-.26h.9c1.06 0 1.86.53 1.86 1.44S60.27 43 59 43.06z"/><path class="cls-10" d="M120 22.63c-.11.11-1.13 6.27-5.51 6.27-1.7 0-2.9-1.29-3.65-2.83a8.59 8.59 0 0 0 7.16-8.33 4.25 4.25 0 0 0-4.44-4.6c-3.34 0-7.68 3.1-7.68 9.17a13.54 13.54 0 0 0 .09 1.58 4.94 4.94 0 0 1-2.84-2c1-4.48.82-8.77-1.25-8.77-1.16 0-2.16 1.53-2.16 4.87a9.14 9.14 0 0 0 1 4.12c-.43 2-1.89 7-3.75 7-2.56 0-1.77-12.19-1.77-14 0-1.47-3.55-3-4.33-2.23-.34.34-.4 2.32-.4 4.9a36.78 36.78 0 0 0 .62 6.91c-.25 1.25-1.3 4.47-3.28 4.47-3.06 0-1.51-11.54-1.51-13.4 0-1.33-3.42-2.57-4.25-1.74-.33.33-.56 2.66-.56 6.3a32.64 32.64 0 0 0 .42 4.68c-.32 1.61-1.59 4.2-3.65 4.2-3.27 0-1.82-12.65-1-20.45.53-.1 1.08-.18 1.64-.24 1.43-.16 3.19-.44 3.19.43a2.38 2.38 0 0 0 2.37 2.68c1.1 0 2.1-.87 2.1-2.54s-1.42-3.19-4-3.19a31.26 31.26 0 0 0-5.06.47c.14-1.3.23-2.34.23-3 0-1.74-3.57-3.4-4.27-2.7a44.28 44.28 0 0 0-1 6.63 37.84 37.84 0 0 1-7.36.93c-.84 0-.73 2.54 2.14 2.54a19.42 19.42 0 0 0 5-.81c-.23 2.64-.4 5.56-.4 8.38a40.4 40.4 0 0 0 .46 6.59c-.32 1.4-1.34 4.23-3.18 4.23-3.59 0-1.89-12.42-1.89-14.28 0-.88-3.27-2.79-3.94-2.11a1.92 1.92 0 0 0-.15.62 3 3 0 0 0-1.64-.32c-4.58 0-8.27 5.66-8.27 10.83v.72c-.71 1.66-2.51 4.54-5.76 4.54a4.25 4.25 0 0 1-3.6-2.47 9.42 9.42 0 0 0 7-8.67 4.91 4.91 0 0 0-4.85-4.94c-3.54 0-7.45 3.55-7.45 9.54a11 11 0 0 0 .9 4.52 3.68 3.68 0 0 1-2.94 2c-3.67 0-1.21-12.34-1.21-13.66a1.5 1.5 0 0 0-.58-1.35c-.74-.51-5.14-1.12-6.64-1.4v-.9c0-2.39-1.5-2.94-2.46-2.94-1.63 0-2 1.83-2 2.27a3.39 3.39 0 0 0 1.75 2.94c0 4.46-2.84 15-10.46 15-5.75 0-7.85-5.92-7.85-10.34 0-7.43 4.36-13.17 7.18-13.17 3.54 0 .42 6.82 4 6.82 2.49 0 2.84-2.41 2.84-3.52a6.64 6.64 0 0 0-6.78-6c-7.36 0-12.81 9-12.81 16.65 0 7.38 5.07 13.33 12.18 13.33 11 0 13.73-11.67 14.3-18.2a24.89 24.89 0 0 1 2.61.67c.29.29-.56 4.25-.56 8.06 0 4.78 1.57 8.6 5.33 8.6 2.36 0 4.25-1.71 5.25-3a7.52 7.52 0 0 0 5.89 3 8.86 8.86 0 0 0 7.37-4.17c1 2.79 3.15 4.17 5.06 4.17 2.67 0 4.28-3.59 4.37-4.17C64.12 30.28 66 32 68.13 32c2.69 0 4.31-2.44 5-4 1 2.58 2.48 4 4.67 4 2.51 0 4.16-2.28 4.91-3.81.79 2.23 2.11 3.81 4.21 3.81 2.81 0 4.55-2.87 5.14-4.33.92 2.46 2.37 4.24 4.59 4.24 2.48 0 4.62-3.54 5.91-7.55a7.34 7.34 0 0 0 4.05 1.94 7.78 7.78 0 0 0 7.25 5.61c5.38 0 7.44-5.52 7.66-6.82s-1.07-2.87-1.52-2.46zm-74.18-7.8c2.24 0 .91 8.56-2.77 10a8.86 8.86 0 0 1-.42-2.48c.04-2.92 1.18-7.52 3.23-7.52zm13.66 13.6c-3.91 0-1.18-13.55 2-13.55 2.08 0 1.74 13.55-2 13.55zm53.62-13.54c2.16 0 .93 8.83-2.85 9.41a8.34 8.34 0 0 1-.28-2c.03-2.87 1.08-7.41 3.13-7.41z"/></g></g></svg>